%TF.GenerationSoftware,KiCad,Pcbnew,9.0.7*%
%TF.CreationDate,2026-02-04T01:14:12-07:00*%
%TF.ProjectId,ShieldV1,53686965-6c64-4563-912e-6b696361645f,rev?*%
%TF.SameCoordinates,Original*%
%TF.FileFunction,Legend,Top*%
%TF.FilePolarity,Positive*%
%FSLAX46Y46*%
G04 Gerber Fmt 4.6, Leading zero omitted, Abs format (unit mm)*
G04 Created by KiCad (PCBNEW 9.0.7) date 2026-02-04 01:14:12*
%MOMM*%
%LPD*%
G01*
G04 APERTURE LIST*
%ADD10C,0.150000*%
%ADD11C,0.120000*%
G04 APERTURE END LIST*
D10*
X86060000Y-70860000D02*
X113360000Y-70860000D01*
X113360000Y-98660000D01*
X86060000Y-98660000D01*
X86060000Y-70860000D01*
X87940000Y-52820000D02*
X109270000Y-52820000D01*
X109270000Y-69360000D01*
X87940000Y-69360000D01*
X87940000Y-52820000D01*
G36*
X166468344Y-58748669D02*
G01*
X166498751Y-58779076D01*
X166533009Y-58847592D01*
X166533009Y-59088220D01*
X166206819Y-59088220D01*
X166206819Y-58847592D01*
X166241077Y-58779076D01*
X166271484Y-58748669D01*
X166340000Y-58714411D01*
X166399828Y-58714411D01*
X166468344Y-58748669D01*
G37*
G36*
X166992153Y-58701050D02*
G01*
X167022561Y-58731457D01*
X167056819Y-58799973D01*
X167056819Y-59088220D01*
X166683009Y-59088220D01*
X166683009Y-58842057D01*
X166721180Y-58727543D01*
X166747674Y-58701050D01*
X166816190Y-58666792D01*
X166923637Y-58666792D01*
X166992153Y-58701050D01*
G37*
G36*
X166950617Y-55088085D02*
G01*
X167022561Y-55160028D01*
X167056819Y-55228544D01*
X167056819Y-55383610D01*
X167022561Y-55452125D01*
X166950617Y-55524068D01*
X166789251Y-55564410D01*
X166474386Y-55564410D01*
X166313019Y-55524068D01*
X166241077Y-55452126D01*
X166206819Y-55383610D01*
X166206819Y-55228544D01*
X166241077Y-55160028D01*
X166313019Y-55088085D01*
X166474386Y-55047744D01*
X166789251Y-55047744D01*
X166950617Y-55088085D01*
G37*
G36*
X167413168Y-59349331D02*
G01*
X165945708Y-59349331D01*
X165945708Y-58829887D01*
X166056819Y-58829887D01*
X166056819Y-59163220D01*
X166058260Y-59177852D01*
X166069459Y-59204888D01*
X166090151Y-59225580D01*
X166117187Y-59236779D01*
X166131819Y-59238220D01*
X167131819Y-59238220D01*
X167146451Y-59236779D01*
X167173487Y-59225580D01*
X167194179Y-59204888D01*
X167205378Y-59177852D01*
X167206819Y-59163220D01*
X167206819Y-58782268D01*
X167205378Y-58767636D01*
X167204347Y-58765147D01*
X167204156Y-58762458D01*
X167198901Y-58748727D01*
X167151282Y-58653489D01*
X167147317Y-58647189D01*
X167146560Y-58645362D01*
X167144872Y-58643305D01*
X167143450Y-58641046D01*
X167141950Y-58639745D01*
X167137232Y-58633996D01*
X167089612Y-58586377D01*
X167083863Y-58581659D01*
X167082564Y-58580161D01*
X167080305Y-58578739D01*
X167078247Y-58577050D01*
X167076417Y-58576292D01*
X167070121Y-58572329D01*
X166974883Y-58524710D01*
X166961151Y-58519455D01*
X166958463Y-58519264D01*
X166955974Y-58518233D01*
X166941342Y-58516792D01*
X166798485Y-58516792D01*
X166783853Y-58518233D01*
X166781364Y-58519263D01*
X166778675Y-58519455D01*
X166764944Y-58524710D01*
X166669706Y-58572329D01*
X166663406Y-58576293D01*
X166661579Y-58577051D01*
X166659522Y-58578739D01*
X166657263Y-58580161D01*
X166655963Y-58581659D01*
X166650214Y-58586378D01*
X166602595Y-58633997D01*
X166593268Y-58645362D01*
X166592236Y-58647852D01*
X166590471Y-58649888D01*
X166587762Y-58655955D01*
X166565804Y-58633997D01*
X166560054Y-58629278D01*
X166558755Y-58627780D01*
X166556495Y-58626358D01*
X166554439Y-58624670D01*
X166552611Y-58623912D01*
X166546312Y-58619948D01*
X166451074Y-58572329D01*
X166437342Y-58567074D01*
X166434654Y-58566883D01*
X166432165Y-58565852D01*
X166417533Y-58564411D01*
X166322295Y-58564411D01*
X166307663Y-58565852D01*
X166305174Y-58566882D01*
X166302485Y-58567074D01*
X166288754Y-58572329D01*
X166193516Y-58619948D01*
X166187216Y-58623912D01*
X166185389Y-58624670D01*
X166183332Y-58626358D01*
X166181073Y-58627780D01*
X166179773Y-58629278D01*
X166174024Y-58633997D01*
X166126405Y-58681616D01*
X166121686Y-58687365D01*
X166120188Y-58688665D01*
X166118766Y-58690924D01*
X166117078Y-58692981D01*
X166116320Y-58694808D01*
X166112356Y-58701108D01*
X166064737Y-58796346D01*
X166059482Y-58810078D01*
X166059291Y-58812765D01*
X166058260Y-58815255D01*
X166056819Y-58829887D01*
X165945708Y-58829887D01*
X165945708Y-57577160D01*
X166058260Y-57577160D01*
X166058260Y-57606424D01*
X166069459Y-57633460D01*
X166090151Y-57654152D01*
X166117187Y-57665351D01*
X166131819Y-57666792D01*
X166923637Y-57666792D01*
X166992153Y-57701050D01*
X167022561Y-57731457D01*
X167056819Y-57799973D01*
X167056819Y-57955039D01*
X167022561Y-58023554D01*
X166992153Y-58053961D01*
X166923637Y-58088220D01*
X166131819Y-58088220D01*
X166117187Y-58089661D01*
X166090151Y-58100860D01*
X166069459Y-58121552D01*
X166058260Y-58148588D01*
X166058260Y-58177852D01*
X166069459Y-58204888D01*
X166090151Y-58225580D01*
X166117187Y-58236779D01*
X166131819Y-58238220D01*
X166941342Y-58238220D01*
X166955974Y-58236779D01*
X166958463Y-58235747D01*
X166961151Y-58235557D01*
X166974883Y-58230302D01*
X167070121Y-58182683D01*
X167076417Y-58178719D01*
X167078247Y-58177962D01*
X167080305Y-58176272D01*
X167082564Y-58174851D01*
X167083863Y-58173352D01*
X167089612Y-58168635D01*
X167137232Y-58121016D01*
X167141950Y-58115266D01*
X167143450Y-58113966D01*
X167144872Y-58111706D01*
X167146560Y-58109650D01*
X167147317Y-58107822D01*
X167151282Y-58101523D01*
X167198901Y-58006285D01*
X167204156Y-57992554D01*
X167204347Y-57989864D01*
X167205378Y-57987376D01*
X167206819Y-57972744D01*
X167206819Y-57782268D01*
X167205378Y-57767636D01*
X167204347Y-57765147D01*
X167204156Y-57762458D01*
X167198901Y-57748727D01*
X167151282Y-57653489D01*
X167147317Y-57647189D01*
X167146560Y-57645362D01*
X167144872Y-57643305D01*
X167143450Y-57641046D01*
X167141950Y-57639745D01*
X167137232Y-57633996D01*
X167089612Y-57586377D01*
X167083863Y-57581659D01*
X167082564Y-57580161D01*
X167080305Y-57578739D01*
X167078247Y-57577050D01*
X167076417Y-57576292D01*
X167070121Y-57572329D01*
X166974883Y-57524710D01*
X166961151Y-57519455D01*
X166958463Y-57519264D01*
X166955974Y-57518233D01*
X166941342Y-57516792D01*
X166131819Y-57516792D01*
X166117187Y-57518233D01*
X166090151Y-57529432D01*
X166069459Y-57550124D01*
X166058260Y-57577160D01*
X165945708Y-57577160D01*
X165945708Y-56687030D01*
X166056819Y-56687030D01*
X166056819Y-57258458D01*
X166058260Y-57273090D01*
X166069459Y-57300126D01*
X166090151Y-57320818D01*
X166117187Y-57332017D01*
X166146451Y-57332017D01*
X166173487Y-57320818D01*
X166194179Y-57300126D01*
X166205378Y-57273090D01*
X166206819Y-57258458D01*
X166206819Y-57047744D01*
X167131819Y-57047744D01*
X167146451Y-57046303D01*
X167173487Y-57035104D01*
X167194179Y-57014412D01*
X167205378Y-56987376D01*
X167205378Y-56958112D01*
X167194179Y-56931076D01*
X167173487Y-56910384D01*
X167146451Y-56899185D01*
X167131819Y-56897744D01*
X166206819Y-56897744D01*
X166206819Y-56687030D01*
X166205378Y-56672398D01*
X166194179Y-56645362D01*
X166173487Y-56624670D01*
X166146451Y-56613471D01*
X166117187Y-56613471D01*
X166090151Y-56624670D01*
X166069459Y-56645362D01*
X166058260Y-56672398D01*
X166056819Y-56687030D01*
X165945708Y-56687030D01*
X165945708Y-55925125D01*
X166056819Y-55925125D01*
X166056819Y-56496553D01*
X166058260Y-56511185D01*
X166069459Y-56538221D01*
X166090151Y-56558913D01*
X166117187Y-56570112D01*
X166146451Y-56570112D01*
X166173487Y-56558913D01*
X166194179Y-56538221D01*
X166205378Y-56511185D01*
X166206819Y-56496553D01*
X166206819Y-56285839D01*
X167131819Y-56285839D01*
X167146451Y-56284398D01*
X167173487Y-56273199D01*
X167194179Y-56252507D01*
X167205378Y-56225471D01*
X167205378Y-56196207D01*
X167194179Y-56169171D01*
X167173487Y-56148479D01*
X167146451Y-56137280D01*
X167131819Y-56135839D01*
X166206819Y-56135839D01*
X166206819Y-55925125D01*
X166205378Y-55910493D01*
X166194179Y-55883457D01*
X166173487Y-55862765D01*
X166146451Y-55851566D01*
X166117187Y-55851566D01*
X166090151Y-55862765D01*
X166069459Y-55883457D01*
X166058260Y-55910493D01*
X166056819Y-55925125D01*
X165945708Y-55925125D01*
X165945708Y-55210839D01*
X166056819Y-55210839D01*
X166056819Y-55401315D01*
X166058260Y-55415947D01*
X166059291Y-55418436D01*
X166059482Y-55421124D01*
X166064737Y-55434856D01*
X166112356Y-55530094D01*
X166116320Y-55536393D01*
X166117078Y-55538221D01*
X166118766Y-55540277D01*
X166120188Y-55542537D01*
X166121686Y-55543836D01*
X166126405Y-55549586D01*
X166221643Y-55644824D01*
X166233008Y-55654152D01*
X166238161Y-55656286D01*
X166242640Y-55659605D01*
X166256486Y-55664552D01*
X166446962Y-55712171D01*
X166449498Y-55712546D01*
X166450520Y-55712969D01*
X166456032Y-55713511D01*
X166461506Y-55714321D01*
X166462598Y-55714158D01*
X166465152Y-55714410D01*
X166798485Y-55714410D01*
X166801038Y-55714158D01*
X166802131Y-55714321D01*
X166807604Y-55713511D01*
X166813117Y-55712969D01*
X166814138Y-55712546D01*
X166816675Y-55712171D01*
X167007151Y-55664552D01*
X167020997Y-55659605D01*
X167025476Y-55656285D01*
X167030628Y-55654152D01*
X167041994Y-55644824D01*
X167137233Y-55549586D01*
X167141953Y-55543835D01*
X167143450Y-55542537D01*
X167144869Y-55540282D01*
X167146561Y-55538221D01*
X167147319Y-55536388D01*
X167151282Y-55530094D01*
X167198901Y-55434856D01*
X167204156Y-55421125D01*
X167204347Y-55418435D01*
X167205378Y-55415947D01*
X167206819Y-55401315D01*
X167206819Y-55210839D01*
X167205378Y-55196207D01*
X167204347Y-55193718D01*
X167204156Y-55191029D01*
X167198901Y-55177298D01*
X167151282Y-55082060D01*
X167147319Y-55075765D01*
X167146561Y-55073933D01*
X167144869Y-55071871D01*
X167143450Y-55069617D01*
X167141953Y-55068318D01*
X167137233Y-55062568D01*
X167041994Y-54967330D01*
X167030628Y-54958002D01*
X167025476Y-54955868D01*
X167020997Y-54952549D01*
X167007151Y-54947602D01*
X166816675Y-54899983D01*
X166814138Y-54899607D01*
X166813117Y-54899185D01*
X166807604Y-54898642D01*
X166802131Y-54897833D01*
X166801038Y-54897995D01*
X166798485Y-54897744D01*
X166465152Y-54897744D01*
X166462598Y-54897995D01*
X166461506Y-54897833D01*
X166456032Y-54898642D01*
X166450520Y-54899185D01*
X166449498Y-54899607D01*
X166446962Y-54899983D01*
X166256486Y-54947602D01*
X166242640Y-54952549D01*
X166238161Y-54955867D01*
X166233008Y-54958002D01*
X166221643Y-54967330D01*
X166126405Y-55062568D01*
X166121686Y-55068317D01*
X166120188Y-55069617D01*
X166118766Y-55071876D01*
X166117078Y-55073933D01*
X166116320Y-55075760D01*
X166112356Y-55082060D01*
X166064737Y-55177298D01*
X166059482Y-55191030D01*
X166059291Y-55193717D01*
X166058260Y-55196207D01*
X166056819Y-55210839D01*
X165945708Y-55210839D01*
X165945708Y-54538933D01*
X166057002Y-54538933D01*
X166058260Y-54548829D01*
X166058260Y-54558804D01*
X166060089Y-54563219D01*
X166060692Y-54567963D01*
X166065642Y-54576627D01*
X166069459Y-54585840D01*
X166072837Y-54589218D01*
X166075211Y-54593372D01*
X166083100Y-54599481D01*
X166090151Y-54606532D01*
X166094567Y-54608361D01*
X166098348Y-54611289D01*
X166107971Y-54613913D01*
X166117187Y-54617731D01*
X166124669Y-54618467D01*
X166126580Y-54618989D01*
X166128055Y-54618801D01*
X166131819Y-54619172D01*
X167131819Y-54619172D01*
X167146451Y-54617731D01*
X167173487Y-54606532D01*
X167194179Y-54585840D01*
X167205378Y-54558804D01*
X167205378Y-54529540D01*
X167194179Y-54502504D01*
X167173487Y-54481812D01*
X167146451Y-54470613D01*
X167131819Y-54469172D01*
X166414236Y-54469172D01*
X167169030Y-54037862D01*
X167172114Y-54035672D01*
X167173487Y-54035104D01*
X167174884Y-54033706D01*
X167181019Y-54029352D01*
X167187127Y-54021463D01*
X167194179Y-54014412D01*
X167196009Y-54009993D01*
X167198936Y-54006214D01*
X167201560Y-53996592D01*
X167205378Y-53987376D01*
X167205378Y-53982595D01*
X167206636Y-53977983D01*
X167205378Y-53968086D01*
X167205378Y-53958112D01*
X167203548Y-53953696D01*
X167202946Y-53948953D01*
X167197995Y-53940288D01*
X167194179Y-53931076D01*
X167190800Y-53927697D01*
X167188427Y-53923544D01*
X167180537Y-53917434D01*
X167173487Y-53910384D01*
X167169070Y-53908554D01*
X167165290Y-53905627D01*
X167155666Y-53903002D01*
X167146451Y-53899185D01*
X167138968Y-53898448D01*
X167137058Y-53897927D01*
X167135582Y-53898114D01*
X167131819Y-53897744D01*
X166131819Y-53897744D01*
X166117187Y-53899185D01*
X166090151Y-53910384D01*
X166069459Y-53931076D01*
X166058260Y-53958112D01*
X166058260Y-53987376D01*
X166069459Y-54014412D01*
X166090151Y-54035104D01*
X166117187Y-54046303D01*
X166131819Y-54047744D01*
X166849402Y-54047744D01*
X166094609Y-54479054D01*
X166091525Y-54481242D01*
X166090151Y-54481812D01*
X166088751Y-54483211D01*
X166082619Y-54487564D01*
X166076509Y-54495453D01*
X166069459Y-54502504D01*
X166067629Y-54506920D01*
X166064702Y-54510701D01*
X166062077Y-54520324D01*
X166058260Y-54529540D01*
X166058260Y-54534320D01*
X166057002Y-54538933D01*
X165945708Y-54538933D01*
X165945708Y-52972744D01*
X167152057Y-52972744D01*
X167152057Y-53734649D01*
X167153498Y-53749281D01*
X167164697Y-53776317D01*
X167185389Y-53797009D01*
X167212425Y-53808208D01*
X167241689Y-53808208D01*
X167268725Y-53797009D01*
X167289417Y-53776317D01*
X167300616Y-53749281D01*
X167302057Y-53734649D01*
X167302057Y-52972744D01*
X167300616Y-52958112D01*
X167289417Y-52931076D01*
X167268725Y-52910384D01*
X167241689Y-52899185D01*
X167212425Y-52899185D01*
X167185389Y-52910384D01*
X167164697Y-52931076D01*
X167153498Y-52958112D01*
X167152057Y-52972744D01*
X165945708Y-52972744D01*
X165945708Y-52496632D01*
X166056819Y-52496632D01*
X166058260Y-52503836D01*
X166058260Y-52511185D01*
X166061101Y-52518045D01*
X166062558Y-52525326D01*
X166066646Y-52531431D01*
X166069459Y-52538221D01*
X166074709Y-52543471D01*
X166078841Y-52549641D01*
X166090099Y-52558861D01*
X166090151Y-52558913D01*
X166090173Y-52558922D01*
X166090216Y-52558957D01*
X166226894Y-52650075D01*
X166308275Y-52731456D01*
X166350451Y-52815808D01*
X166358283Y-52828251D01*
X166380391Y-52847424D01*
X166408152Y-52856678D01*
X166437342Y-52854604D01*
X166463517Y-52841516D01*
X166482690Y-52819409D01*
X166491944Y-52791647D01*
X166489870Y-52762457D01*
X166484615Y-52748726D01*
X166436996Y-52653488D01*
X166433033Y-52647193D01*
X166432275Y-52645361D01*
X166430583Y-52643299D01*
X166429164Y-52641045D01*
X166427667Y-52639746D01*
X166422947Y-52633996D01*
X166360504Y-52571553D01*
X167056819Y-52571553D01*
X167056819Y-52782267D01*
X167058260Y-52796899D01*
X167069459Y-52823935D01*
X167090151Y-52844627D01*
X167117187Y-52855826D01*
X167146451Y-52855826D01*
X167173487Y-52844627D01*
X167194179Y-52823935D01*
X167205378Y-52796899D01*
X167206819Y-52782267D01*
X167206819Y-52210839D01*
X167205378Y-52196207D01*
X167194179Y-52169171D01*
X167173487Y-52148479D01*
X167146451Y-52137280D01*
X167117187Y-52137280D01*
X167090151Y-52148479D01*
X167069459Y-52169171D01*
X167058260Y-52196207D01*
X167056819Y-52210839D01*
X167056819Y-52421553D01*
X166131819Y-52421553D01*
X166131766Y-52421558D01*
X166131740Y-52421553D01*
X166131663Y-52421568D01*
X166117187Y-52422994D01*
X166110326Y-52425835D01*
X166103046Y-52427292D01*
X166096940Y-52431380D01*
X166090151Y-52434193D01*
X166084900Y-52439443D01*
X166078731Y-52443575D01*
X166074654Y-52449689D01*
X166069459Y-52454885D01*
X166066617Y-52461745D01*
X166062498Y-52467924D01*
X166061072Y-52475132D01*
X166058260Y-52481921D01*
X166058260Y-52489347D01*
X166056819Y-52496632D01*
X165945708Y-52496632D01*
X165945708Y-52026169D01*
X167413168Y-52026169D01*
X167413168Y-59349331D01*
G37*
X98131819Y-75187030D02*
X98131819Y-75663220D01*
X98131819Y-75663220D02*
X98608009Y-75710839D01*
X98608009Y-75710839D02*
X98560390Y-75663220D01*
X98560390Y-75663220D02*
X98512771Y-75567982D01*
X98512771Y-75567982D02*
X98512771Y-75329887D01*
X98512771Y-75329887D02*
X98560390Y-75234649D01*
X98560390Y-75234649D02*
X98608009Y-75187030D01*
X98608009Y-75187030D02*
X98703247Y-75139411D01*
X98703247Y-75139411D02*
X98941342Y-75139411D01*
X98941342Y-75139411D02*
X99036580Y-75187030D01*
X99036580Y-75187030D02*
X99084200Y-75234649D01*
X99084200Y-75234649D02*
X99131819Y-75329887D01*
X99131819Y-75329887D02*
X99131819Y-75567982D01*
X99131819Y-75567982D02*
X99084200Y-75663220D01*
X99084200Y-75663220D02*
X99036580Y-75710839D01*
X98131819Y-74853696D02*
X99131819Y-74520363D01*
X99131819Y-74520363D02*
X98131819Y-74187030D01*
G36*
X166358400Y-67248669D02*
G01*
X166388807Y-67279076D01*
X166423065Y-67347592D01*
X166423065Y-67588220D01*
X166096875Y-67588220D01*
X166096875Y-67347592D01*
X166131133Y-67279076D01*
X166161540Y-67248669D01*
X166230056Y-67214411D01*
X166289884Y-67214411D01*
X166358400Y-67248669D01*
G37*
G36*
X166882209Y-67201050D02*
G01*
X166912617Y-67231457D01*
X166946875Y-67299973D01*
X166946875Y-67588220D01*
X166573065Y-67588220D01*
X166573065Y-67342057D01*
X166611236Y-67227543D01*
X166637730Y-67201050D01*
X166706246Y-67166792D01*
X166813693Y-67166792D01*
X166882209Y-67201050D01*
G37*
G36*
X166840673Y-63588085D02*
G01*
X166912617Y-63660028D01*
X166946875Y-63728544D01*
X166946875Y-63883610D01*
X166912617Y-63952125D01*
X166840673Y-64024068D01*
X166679307Y-64064410D01*
X166364442Y-64064410D01*
X166203075Y-64024068D01*
X166131133Y-63952126D01*
X166096875Y-63883610D01*
X166096875Y-63728544D01*
X166131133Y-63660028D01*
X166203075Y-63588085D01*
X166364442Y-63547744D01*
X166679307Y-63547744D01*
X166840673Y-63588085D01*
G37*
G36*
X167303224Y-67849331D02*
G01*
X165835764Y-67849331D01*
X165835764Y-67329887D01*
X165946875Y-67329887D01*
X165946875Y-67663220D01*
X165948316Y-67677852D01*
X165959515Y-67704888D01*
X165980207Y-67725580D01*
X166007243Y-67736779D01*
X166021875Y-67738220D01*
X167021875Y-67738220D01*
X167036507Y-67736779D01*
X167063543Y-67725580D01*
X167084235Y-67704888D01*
X167095434Y-67677852D01*
X167096875Y-67663220D01*
X167096875Y-67282268D01*
X167095434Y-67267636D01*
X167094403Y-67265147D01*
X167094212Y-67262458D01*
X167088957Y-67248727D01*
X167041338Y-67153489D01*
X167037373Y-67147189D01*
X167036616Y-67145362D01*
X167034928Y-67143305D01*
X167033506Y-67141046D01*
X167032006Y-67139745D01*
X167027288Y-67133996D01*
X166979668Y-67086377D01*
X166973919Y-67081659D01*
X166972620Y-67080161D01*
X166970361Y-67078739D01*
X166968303Y-67077050D01*
X166966473Y-67076292D01*
X166960177Y-67072329D01*
X166864939Y-67024710D01*
X166851207Y-67019455D01*
X166848519Y-67019264D01*
X166846030Y-67018233D01*
X166831398Y-67016792D01*
X166688541Y-67016792D01*
X166673909Y-67018233D01*
X166671420Y-67019263D01*
X166668731Y-67019455D01*
X166655000Y-67024710D01*
X166559762Y-67072329D01*
X166553462Y-67076293D01*
X166551635Y-67077051D01*
X166549578Y-67078739D01*
X166547319Y-67080161D01*
X166546019Y-67081659D01*
X166540270Y-67086378D01*
X166492651Y-67133997D01*
X166483324Y-67145362D01*
X166482292Y-67147852D01*
X166480527Y-67149888D01*
X166477818Y-67155955D01*
X166455860Y-67133997D01*
X166450110Y-67129278D01*
X166448811Y-67127780D01*
X166446551Y-67126358D01*
X166444495Y-67124670D01*
X166442667Y-67123912D01*
X166436368Y-67119948D01*
X166341130Y-67072329D01*
X166327398Y-67067074D01*
X166324710Y-67066883D01*
X166322221Y-67065852D01*
X166307589Y-67064411D01*
X166212351Y-67064411D01*
X166197719Y-67065852D01*
X166195230Y-67066882D01*
X166192541Y-67067074D01*
X166178810Y-67072329D01*
X166083572Y-67119948D01*
X166077272Y-67123912D01*
X166075445Y-67124670D01*
X166073388Y-67126358D01*
X166071129Y-67127780D01*
X166069829Y-67129278D01*
X166064080Y-67133997D01*
X166016461Y-67181616D01*
X166011742Y-67187365D01*
X166010244Y-67188665D01*
X166008822Y-67190924D01*
X166007134Y-67192981D01*
X166006376Y-67194808D01*
X166002412Y-67201108D01*
X165954793Y-67296346D01*
X165949538Y-67310078D01*
X165949347Y-67312765D01*
X165948316Y-67315255D01*
X165946875Y-67329887D01*
X165835764Y-67329887D01*
X165835764Y-66077160D01*
X165948316Y-66077160D01*
X165948316Y-66106424D01*
X165959515Y-66133460D01*
X165980207Y-66154152D01*
X166007243Y-66165351D01*
X166021875Y-66166792D01*
X166813693Y-66166792D01*
X166882209Y-66201050D01*
X166912617Y-66231457D01*
X166946875Y-66299973D01*
X166946875Y-66455039D01*
X166912617Y-66523554D01*
X166882209Y-66553961D01*
X166813693Y-66588220D01*
X166021875Y-66588220D01*
X166007243Y-66589661D01*
X165980207Y-66600860D01*
X165959515Y-66621552D01*
X165948316Y-66648588D01*
X165948316Y-66677852D01*
X165959515Y-66704888D01*
X165980207Y-66725580D01*
X166007243Y-66736779D01*
X166021875Y-66738220D01*
X166831398Y-66738220D01*
X166846030Y-66736779D01*
X166848519Y-66735747D01*
X166851207Y-66735557D01*
X166864939Y-66730302D01*
X166960177Y-66682683D01*
X166966473Y-66678719D01*
X166968303Y-66677962D01*
X166970361Y-66676272D01*
X166972620Y-66674851D01*
X166973919Y-66673352D01*
X166979668Y-66668635D01*
X167027288Y-66621016D01*
X167032006Y-66615266D01*
X167033506Y-66613966D01*
X167034928Y-66611706D01*
X167036616Y-66609650D01*
X167037373Y-66607822D01*
X167041338Y-66601523D01*
X167088957Y-66506285D01*
X167094212Y-66492554D01*
X167094403Y-66489864D01*
X167095434Y-66487376D01*
X167096875Y-66472744D01*
X167096875Y-66282268D01*
X167095434Y-66267636D01*
X167094403Y-66265147D01*
X167094212Y-66262458D01*
X167088957Y-66248727D01*
X167041338Y-66153489D01*
X167037373Y-66147189D01*
X167036616Y-66145362D01*
X167034928Y-66143305D01*
X167033506Y-66141046D01*
X167032006Y-66139745D01*
X167027288Y-66133996D01*
X166979668Y-66086377D01*
X166973919Y-66081659D01*
X166972620Y-66080161D01*
X166970361Y-66078739D01*
X166968303Y-66077050D01*
X166966473Y-66076292D01*
X166960177Y-66072329D01*
X166864939Y-66024710D01*
X166851207Y-66019455D01*
X166848519Y-66019264D01*
X166846030Y-66018233D01*
X166831398Y-66016792D01*
X166021875Y-66016792D01*
X166007243Y-66018233D01*
X165980207Y-66029432D01*
X165959515Y-66050124D01*
X165948316Y-66077160D01*
X165835764Y-66077160D01*
X165835764Y-65187030D01*
X165946875Y-65187030D01*
X165946875Y-65758458D01*
X165948316Y-65773090D01*
X165959515Y-65800126D01*
X165980207Y-65820818D01*
X166007243Y-65832017D01*
X166036507Y-65832017D01*
X166063543Y-65820818D01*
X166084235Y-65800126D01*
X166095434Y-65773090D01*
X166096875Y-65758458D01*
X166096875Y-65547744D01*
X167021875Y-65547744D01*
X167036507Y-65546303D01*
X167063543Y-65535104D01*
X167084235Y-65514412D01*
X167095434Y-65487376D01*
X167095434Y-65458112D01*
X167084235Y-65431076D01*
X167063543Y-65410384D01*
X167036507Y-65399185D01*
X167021875Y-65397744D01*
X166096875Y-65397744D01*
X166096875Y-65187030D01*
X166095434Y-65172398D01*
X166084235Y-65145362D01*
X166063543Y-65124670D01*
X166036507Y-65113471D01*
X166007243Y-65113471D01*
X165980207Y-65124670D01*
X165959515Y-65145362D01*
X165948316Y-65172398D01*
X165946875Y-65187030D01*
X165835764Y-65187030D01*
X165835764Y-64425125D01*
X165946875Y-64425125D01*
X165946875Y-64996553D01*
X165948316Y-65011185D01*
X165959515Y-65038221D01*
X165980207Y-65058913D01*
X166007243Y-65070112D01*
X166036507Y-65070112D01*
X166063543Y-65058913D01*
X166084235Y-65038221D01*
X166095434Y-65011185D01*
X166096875Y-64996553D01*
X166096875Y-64785839D01*
X167021875Y-64785839D01*
X167036507Y-64784398D01*
X167063543Y-64773199D01*
X167084235Y-64752507D01*
X167095434Y-64725471D01*
X167095434Y-64696207D01*
X167084235Y-64669171D01*
X167063543Y-64648479D01*
X167036507Y-64637280D01*
X167021875Y-64635839D01*
X166096875Y-64635839D01*
X166096875Y-64425125D01*
X166095434Y-64410493D01*
X166084235Y-64383457D01*
X166063543Y-64362765D01*
X166036507Y-64351566D01*
X166007243Y-64351566D01*
X165980207Y-64362765D01*
X165959515Y-64383457D01*
X165948316Y-64410493D01*
X165946875Y-64425125D01*
X165835764Y-64425125D01*
X165835764Y-63710839D01*
X165946875Y-63710839D01*
X165946875Y-63901315D01*
X165948316Y-63915947D01*
X165949347Y-63918436D01*
X165949538Y-63921124D01*
X165954793Y-63934856D01*
X166002412Y-64030094D01*
X166006376Y-64036393D01*
X166007134Y-64038221D01*
X166008822Y-64040277D01*
X166010244Y-64042537D01*
X166011742Y-64043836D01*
X166016461Y-64049586D01*
X166111699Y-64144824D01*
X166123064Y-64154152D01*
X166128217Y-64156286D01*
X166132696Y-64159605D01*
X166146542Y-64164552D01*
X166337018Y-64212171D01*
X166339554Y-64212546D01*
X166340576Y-64212969D01*
X166346088Y-64213511D01*
X166351562Y-64214321D01*
X166352654Y-64214158D01*
X166355208Y-64214410D01*
X166688541Y-64214410D01*
X166691094Y-64214158D01*
X166692187Y-64214321D01*
X166697660Y-64213511D01*
X166703173Y-64212969D01*
X166704194Y-64212546D01*
X166706731Y-64212171D01*
X166897207Y-64164552D01*
X166911053Y-64159605D01*
X166915532Y-64156285D01*
X166920684Y-64154152D01*
X166932050Y-64144824D01*
X167027289Y-64049586D01*
X167032009Y-64043835D01*
X167033506Y-64042537D01*
X167034925Y-64040282D01*
X167036617Y-64038221D01*
X167037375Y-64036388D01*
X167041338Y-64030094D01*
X167088957Y-63934856D01*
X167094212Y-63921125D01*
X167094403Y-63918435D01*
X167095434Y-63915947D01*
X167096875Y-63901315D01*
X167096875Y-63710839D01*
X167095434Y-63696207D01*
X167094403Y-63693718D01*
X167094212Y-63691029D01*
X167088957Y-63677298D01*
X167041338Y-63582060D01*
X167037375Y-63575765D01*
X167036617Y-63573933D01*
X167034925Y-63571871D01*
X167033506Y-63569617D01*
X167032009Y-63568318D01*
X167027289Y-63562568D01*
X166932050Y-63467330D01*
X166920684Y-63458002D01*
X166915532Y-63455868D01*
X166911053Y-63452549D01*
X166897207Y-63447602D01*
X166706731Y-63399983D01*
X166704194Y-63399607D01*
X166703173Y-63399185D01*
X166697660Y-63398642D01*
X166692187Y-63397833D01*
X166691094Y-63397995D01*
X166688541Y-63397744D01*
X166355208Y-63397744D01*
X166352654Y-63397995D01*
X166351562Y-63397833D01*
X166346088Y-63398642D01*
X166340576Y-63399185D01*
X166339554Y-63399607D01*
X166337018Y-63399983D01*
X166146542Y-63447602D01*
X166132696Y-63452549D01*
X166128217Y-63455867D01*
X166123064Y-63458002D01*
X166111699Y-63467330D01*
X166016461Y-63562568D01*
X166011742Y-63568317D01*
X166010244Y-63569617D01*
X166008822Y-63571876D01*
X166007134Y-63573933D01*
X166006376Y-63575760D01*
X166002412Y-63582060D01*
X165954793Y-63677298D01*
X165949538Y-63691030D01*
X165949347Y-63693717D01*
X165948316Y-63696207D01*
X165946875Y-63710839D01*
X165835764Y-63710839D01*
X165835764Y-63038933D01*
X165947058Y-63038933D01*
X165948316Y-63048829D01*
X165948316Y-63058804D01*
X165950145Y-63063219D01*
X165950748Y-63067963D01*
X165955698Y-63076627D01*
X165959515Y-63085840D01*
X165962893Y-63089218D01*
X165965267Y-63093372D01*
X165973156Y-63099481D01*
X165980207Y-63106532D01*
X165984623Y-63108361D01*
X165988404Y-63111289D01*
X165998027Y-63113913D01*
X166007243Y-63117731D01*
X166014725Y-63118467D01*
X166016636Y-63118989D01*
X166018111Y-63118801D01*
X166021875Y-63119172D01*
X167021875Y-63119172D01*
X167036507Y-63117731D01*
X167063543Y-63106532D01*
X167084235Y-63085840D01*
X167095434Y-63058804D01*
X167095434Y-63029540D01*
X167084235Y-63002504D01*
X167063543Y-62981812D01*
X167036507Y-62970613D01*
X167021875Y-62969172D01*
X166304292Y-62969172D01*
X167059086Y-62537862D01*
X167062170Y-62535672D01*
X167063543Y-62535104D01*
X167064940Y-62533706D01*
X167071075Y-62529352D01*
X167077183Y-62521463D01*
X167084235Y-62514412D01*
X167086065Y-62509993D01*
X167088992Y-62506214D01*
X167091616Y-62496592D01*
X167095434Y-62487376D01*
X167095434Y-62482595D01*
X167096692Y-62477983D01*
X167095434Y-62468086D01*
X167095434Y-62458112D01*
X167093604Y-62453696D01*
X167093002Y-62448953D01*
X167088051Y-62440288D01*
X167084235Y-62431076D01*
X167080856Y-62427697D01*
X167078483Y-62423544D01*
X167070593Y-62417434D01*
X167063543Y-62410384D01*
X167059126Y-62408554D01*
X167055346Y-62405627D01*
X167045722Y-62403002D01*
X167036507Y-62399185D01*
X167029024Y-62398448D01*
X167027114Y-62397927D01*
X167025638Y-62398114D01*
X167021875Y-62397744D01*
X166021875Y-62397744D01*
X166007243Y-62399185D01*
X165980207Y-62410384D01*
X165959515Y-62431076D01*
X165948316Y-62458112D01*
X165948316Y-62487376D01*
X165959515Y-62514412D01*
X165980207Y-62535104D01*
X166007243Y-62546303D01*
X166021875Y-62547744D01*
X166739458Y-62547744D01*
X165984665Y-62979054D01*
X165981581Y-62981242D01*
X165980207Y-62981812D01*
X165978807Y-62983211D01*
X165972675Y-62987564D01*
X165966565Y-62995453D01*
X165959515Y-63002504D01*
X165957685Y-63006920D01*
X165954758Y-63010701D01*
X165952133Y-63020324D01*
X165948316Y-63029540D01*
X165948316Y-63034320D01*
X165947058Y-63038933D01*
X165835764Y-63038933D01*
X165835764Y-61472744D01*
X167042113Y-61472744D01*
X167042113Y-62234649D01*
X167043554Y-62249281D01*
X167054753Y-62276317D01*
X167075445Y-62297009D01*
X167102481Y-62308208D01*
X167131745Y-62308208D01*
X167158781Y-62297009D01*
X167179473Y-62276317D01*
X167190672Y-62249281D01*
X167192113Y-62234649D01*
X167192113Y-61472744D01*
X167190672Y-61458112D01*
X167179473Y-61431076D01*
X167158781Y-61410384D01*
X167131745Y-61399185D01*
X167102481Y-61399185D01*
X167075445Y-61410384D01*
X167054753Y-61431076D01*
X167043554Y-61458112D01*
X167042113Y-61472744D01*
X165835764Y-61472744D01*
X165835764Y-60901315D01*
X165946875Y-60901315D01*
X165946875Y-61139410D01*
X165948316Y-61154042D01*
X165949347Y-61156531D01*
X165949538Y-61159219D01*
X165954793Y-61172951D01*
X166002412Y-61268189D01*
X166006376Y-61274488D01*
X166007134Y-61276316D01*
X166008822Y-61278372D01*
X166010244Y-61280632D01*
X166011742Y-61281931D01*
X166016461Y-61287681D01*
X166064080Y-61335300D01*
X166075445Y-61344627D01*
X166102481Y-61355826D01*
X166131744Y-61355826D01*
X166158780Y-61344627D01*
X166179473Y-61323934D01*
X166190672Y-61296898D01*
X166190672Y-61267635D01*
X166179473Y-61240599D01*
X166170146Y-61229234D01*
X166131133Y-61190221D01*
X166096875Y-61121705D01*
X166096875Y-60919020D01*
X166131133Y-60850504D01*
X166161540Y-60820097D01*
X166230056Y-60785839D01*
X166295419Y-60785839D01*
X166409932Y-60824010D01*
X166968842Y-61382919D01*
X166980207Y-61392247D01*
X166999324Y-61400165D01*
X167007243Y-61403445D01*
X167007244Y-61403445D01*
X167036507Y-61403445D01*
X167063543Y-61392246D01*
X167084236Y-61371554D01*
X167092154Y-61352436D01*
X167095434Y-61344518D01*
X167096875Y-61329886D01*
X167096875Y-60710839D01*
X167095434Y-60696207D01*
X167084235Y-60669171D01*
X167063543Y-60648479D01*
X167036507Y-60637280D01*
X167007243Y-60637280D01*
X166980207Y-60648479D01*
X166959515Y-60669171D01*
X166948316Y-60696207D01*
X166946875Y-60710839D01*
X166946875Y-61148820D01*
X166503479Y-60705425D01*
X166492114Y-60696098D01*
X166489623Y-60695066D01*
X166487588Y-60693301D01*
X166474163Y-60687307D01*
X166331306Y-60639688D01*
X166324052Y-60638038D01*
X166322221Y-60637280D01*
X166319566Y-60637018D01*
X166316969Y-60636428D01*
X166314994Y-60636568D01*
X166307589Y-60635839D01*
X166212351Y-60635839D01*
X166197719Y-60637280D01*
X166195230Y-60638310D01*
X166192541Y-60638502D01*
X166178810Y-60643757D01*
X166083572Y-60691376D01*
X166077272Y-60695340D01*
X166075445Y-60696098D01*
X166073388Y-60697786D01*
X166071129Y-60699208D01*
X166069829Y-60700706D01*
X166064080Y-60705425D01*
X166016461Y-60753044D01*
X166011742Y-60758793D01*
X166010244Y-60760093D01*
X166008822Y-60762352D01*
X166007134Y-60764409D01*
X166006376Y-60766236D01*
X166002412Y-60772536D01*
X165954793Y-60867774D01*
X165949538Y-60881506D01*
X165949347Y-60884193D01*
X165948316Y-60886683D01*
X165946875Y-60901315D01*
X165835764Y-60901315D01*
X165835764Y-60524728D01*
X167303224Y-60524728D01*
X167303224Y-67849331D01*
G37*
X97584200Y-65210839D02*
X97631819Y-65067982D01*
X97631819Y-65067982D02*
X97631819Y-64829887D01*
X97631819Y-64829887D02*
X97584200Y-64734649D01*
X97584200Y-64734649D02*
X97536580Y-64687030D01*
X97536580Y-64687030D02*
X97441342Y-64639411D01*
X97441342Y-64639411D02*
X97346104Y-64639411D01*
X97346104Y-64639411D02*
X97250866Y-64687030D01*
X97250866Y-64687030D02*
X97203247Y-64734649D01*
X97203247Y-64734649D02*
X97155628Y-64829887D01*
X97155628Y-64829887D02*
X97108009Y-65020363D01*
X97108009Y-65020363D02*
X97060390Y-65115601D01*
X97060390Y-65115601D02*
X97012771Y-65163220D01*
X97012771Y-65163220D02*
X96917533Y-65210839D01*
X96917533Y-65210839D02*
X96822295Y-65210839D01*
X96822295Y-65210839D02*
X96727057Y-65163220D01*
X96727057Y-65163220D02*
X96679438Y-65115601D01*
X96679438Y-65115601D02*
X96631819Y-65020363D01*
X96631819Y-65020363D02*
X96631819Y-64782268D01*
X96631819Y-64782268D02*
X96679438Y-64639411D01*
X97631819Y-64210839D02*
X96631819Y-64210839D01*
X96631819Y-64210839D02*
X96631819Y-63972744D01*
X96631819Y-63972744D02*
X96679438Y-63829887D01*
X96679438Y-63829887D02*
X96774676Y-63734649D01*
X96774676Y-63734649D02*
X96869914Y-63687030D01*
X96869914Y-63687030D02*
X97060390Y-63639411D01*
X97060390Y-63639411D02*
X97203247Y-63639411D01*
X97203247Y-63639411D02*
X97393723Y-63687030D01*
X97393723Y-63687030D02*
X97488961Y-63734649D01*
X97488961Y-63734649D02*
X97584200Y-63829887D01*
X97584200Y-63829887D02*
X97631819Y-63972744D01*
X97631819Y-63972744D02*
X97631819Y-64210839D01*
X97346104Y-63258458D02*
X97346104Y-62782268D01*
X97631819Y-63353696D02*
X96631819Y-63020363D01*
X96631819Y-63020363D02*
X97631819Y-62687030D01*
X91679438Y-65539411D02*
X91631819Y-65634649D01*
X91631819Y-65634649D02*
X91631819Y-65777506D01*
X91631819Y-65777506D02*
X91679438Y-65920363D01*
X91679438Y-65920363D02*
X91774676Y-66015601D01*
X91774676Y-66015601D02*
X91869914Y-66063220D01*
X91869914Y-66063220D02*
X92060390Y-66110839D01*
X92060390Y-66110839D02*
X92203247Y-66110839D01*
X92203247Y-66110839D02*
X92393723Y-66063220D01*
X92393723Y-66063220D02*
X92488961Y-66015601D01*
X92488961Y-66015601D02*
X92584200Y-65920363D01*
X92584200Y-65920363D02*
X92631819Y-65777506D01*
X92631819Y-65777506D02*
X92631819Y-65682268D01*
X92631819Y-65682268D02*
X92584200Y-65539411D01*
X92584200Y-65539411D02*
X92536580Y-65491792D01*
X92536580Y-65491792D02*
X92203247Y-65491792D01*
X92203247Y-65491792D02*
X92203247Y-65682268D01*
X92631819Y-65063220D02*
X91631819Y-65063220D01*
X91631819Y-65063220D02*
X92631819Y-64491792D01*
X92631819Y-64491792D02*
X91631819Y-64491792D01*
X92631819Y-64015601D02*
X91631819Y-64015601D01*
X91631819Y-64015601D02*
X91631819Y-63777506D01*
X91631819Y-63777506D02*
X91679438Y-63634649D01*
X91679438Y-63634649D02*
X91774676Y-63539411D01*
X91774676Y-63539411D02*
X91869914Y-63491792D01*
X91869914Y-63491792D02*
X92060390Y-63444173D01*
X92060390Y-63444173D02*
X92203247Y-63444173D01*
X92203247Y-63444173D02*
X92393723Y-63491792D01*
X92393723Y-63491792D02*
X92488961Y-63539411D01*
X92488961Y-63539411D02*
X92584200Y-63634649D01*
X92584200Y-63634649D02*
X92631819Y-63777506D01*
X92631819Y-63777506D02*
X92631819Y-64015601D01*
G36*
X93435304Y-54250085D02*
G01*
X93465711Y-54280492D01*
X93499969Y-54349008D01*
X93499969Y-54551693D01*
X93465710Y-54620209D01*
X93435303Y-54650617D01*
X93366788Y-54684875D01*
X93211722Y-54684875D01*
X93143206Y-54650617D01*
X93112799Y-54620209D01*
X93078541Y-54551693D01*
X93078541Y-54349008D01*
X93112799Y-54280492D01*
X93143206Y-54250085D01*
X93211722Y-54215827D01*
X93366788Y-54215827D01*
X93435304Y-54250085D01*
G37*
G36*
X94340066Y-53869133D02*
G01*
X94370473Y-53899540D01*
X94408966Y-53976527D01*
X94452350Y-54150061D01*
X94452350Y-54369688D01*
X94408966Y-54543222D01*
X94370472Y-54620209D01*
X94340065Y-54650617D01*
X94271550Y-54684875D01*
X94211722Y-54684875D01*
X94143206Y-54650617D01*
X94112799Y-54620209D01*
X94074305Y-54543222D01*
X94030922Y-54369688D01*
X94030922Y-54150061D01*
X94074305Y-53976527D01*
X94112799Y-53899540D01*
X94143206Y-53869133D01*
X94211722Y-53834875D01*
X94271550Y-53834875D01*
X94340066Y-53869133D01*
G37*
G36*
X96244828Y-53869133D02*
G01*
X96275235Y-53899540D01*
X96313728Y-53976527D01*
X96357112Y-54150061D01*
X96357112Y-54369688D01*
X96313728Y-54543222D01*
X96275234Y-54620209D01*
X96244827Y-54650617D01*
X96176312Y-54684875D01*
X96116484Y-54684875D01*
X96047968Y-54650617D01*
X96017561Y-54620209D01*
X95979067Y-54543222D01*
X95935684Y-54369688D01*
X95935684Y-54150061D01*
X95979067Y-53976527D01*
X96017561Y-53899540D01*
X96047968Y-53869133D01*
X96116484Y-53834875D01*
X96176312Y-53834875D01*
X96244828Y-53869133D01*
G37*
G36*
X90673399Y-53869133D02*
G01*
X90703806Y-53899540D01*
X90738064Y-53968056D01*
X90738064Y-54075503D01*
X90703806Y-54144019D01*
X90673399Y-54174426D01*
X90604883Y-54208684D01*
X90316636Y-54208684D01*
X90316636Y-53834875D01*
X90604883Y-53834875D01*
X90673399Y-53869133D01*
G37*
G36*
X96618223Y-54945986D02*
G01*
X88912668Y-54945986D01*
X88912668Y-53759875D01*
X89023779Y-53759875D01*
X89023779Y-54759875D01*
X89025220Y-54774507D01*
X89036419Y-54801543D01*
X89057111Y-54822235D01*
X89084147Y-54833434D01*
X89113411Y-54833434D01*
X89140447Y-54822235D01*
X89161139Y-54801543D01*
X89172338Y-54774507D01*
X89173779Y-54759875D01*
X89173779Y-54097942D01*
X89364148Y-54505877D01*
X89367322Y-54511236D01*
X89367982Y-54513049D01*
X89369156Y-54514331D01*
X89371642Y-54518527D01*
X89380051Y-54526227D01*
X89387746Y-54534630D01*
X89390764Y-54536038D01*
X89393223Y-54538290D01*
X89403935Y-54542185D01*
X89414264Y-54547006D01*
X89417592Y-54547152D01*
X89420724Y-54548291D01*
X89432118Y-54547790D01*
X89443500Y-54548290D01*
X89446628Y-54547152D01*
X89449960Y-54547006D01*
X89460295Y-54542182D01*
X89471001Y-54538290D01*
X89473456Y-54536040D01*
X89476478Y-54534631D01*
X89484179Y-54526220D01*
X89492582Y-54518526D01*
X89495065Y-54514333D01*
X89496242Y-54513049D01*
X89496902Y-54511233D01*
X89500076Y-54505876D01*
X89690445Y-54097942D01*
X89690445Y-54759875D01*
X89691886Y-54774507D01*
X89703085Y-54801543D01*
X89723777Y-54822235D01*
X89750813Y-54833434D01*
X89780077Y-54833434D01*
X89807113Y-54822235D01*
X89827805Y-54801543D01*
X89839004Y-54774507D01*
X89840445Y-54759875D01*
X89840445Y-53759875D01*
X90166636Y-53759875D01*
X90166636Y-54759875D01*
X90168077Y-54774507D01*
X90179276Y-54801543D01*
X90199968Y-54822235D01*
X90227004Y-54833434D01*
X90256268Y-54833434D01*
X90283304Y-54822235D01*
X90303996Y-54801543D01*
X90315195Y-54774507D01*
X90316636Y-54759875D01*
X90316636Y-54358684D01*
X90622588Y-54358684D01*
X90637220Y-54357243D01*
X90639709Y-54356211D01*
X90642397Y-54356021D01*
X90656129Y-54350766D01*
X90751367Y-54303147D01*
X90757666Y-54299182D01*
X90759494Y-54298425D01*
X90761550Y-54296736D01*
X90763810Y-54295315D01*
X90765109Y-54293816D01*
X90770859Y-54289098D01*
X90818478Y-54241479D01*
X90823196Y-54235729D01*
X90824695Y-54234430D01*
X90826116Y-54232170D01*
X90827805Y-54230114D01*
X90828562Y-54228286D01*
X90832527Y-54221987D01*
X90880146Y-54126749D01*
X90885401Y-54113018D01*
X90885592Y-54110328D01*
X90886623Y-54107840D01*
X90888064Y-54093208D01*
X90888064Y-53950351D01*
X90886623Y-53935719D01*
X90885592Y-53933230D01*
X90885401Y-53930541D01*
X90880146Y-53916810D01*
X90832527Y-53821572D01*
X90828562Y-53815272D01*
X90827805Y-53813445D01*
X90826116Y-53811388D01*
X90824695Y-53809129D01*
X90823196Y-53807829D01*
X90818478Y-53802080D01*
X90776273Y-53759875D01*
X91166636Y-53759875D01*
X91166636Y-54569398D01*
X91168077Y-54584030D01*
X91169108Y-54586519D01*
X91169299Y-54589207D01*
X91174554Y-54602939D01*
X91222173Y-54698177D01*
X91226136Y-54704473D01*
X91226894Y-54706303D01*
X91228583Y-54708361D01*
X91230005Y-54710620D01*
X91231503Y-54711919D01*
X91236221Y-54717668D01*
X91283840Y-54765288D01*
X91289589Y-54770006D01*
X91290890Y-54771506D01*
X91293149Y-54772928D01*
X91295206Y-54774616D01*
X91297033Y-54775373D01*
X91303333Y-54779338D01*
X91398571Y-54826957D01*
X91412302Y-54832212D01*
X91414991Y-54832403D01*
X91417480Y-54833434D01*
X91432112Y-54834875D01*
X91622588Y-54834875D01*
X91637220Y-54833434D01*
X91639709Y-54832402D01*
X91642397Y-54832212D01*
X91656129Y-54826957D01*
X91751367Y-54779338D01*
X91757666Y-54775373D01*
X91759494Y-54774616D01*
X91761550Y-54772928D01*
X91763810Y-54771506D01*
X91765110Y-54770006D01*
X91770860Y-54765288D01*
X91818478Y-54717669D01*
X91823196Y-54711919D01*
X91824695Y-54710620D01*
X91826116Y-54708361D01*
X91827806Y-54706303D01*
X91828563Y-54704473D01*
X91832527Y-54698177D01*
X91880146Y-54602939D01*
X91885401Y-54589208D01*
X91885592Y-54586518D01*
X91886623Y-54584030D01*
X91888064Y-54569398D01*
X91888064Y-54188446D01*
X92928541Y-54188446D01*
X92928541Y-54569398D01*
X92929982Y-54584030D01*
X92931013Y-54586519D01*
X92931204Y-54589207D01*
X92936459Y-54602939D01*
X92984078Y-54698177D01*
X92988041Y-54704473D01*
X92988799Y-54706303D01*
X92990488Y-54708361D01*
X92991910Y-54710620D01*
X92993408Y-54711919D01*
X92998126Y-54717668D01*
X93045745Y-54765288D01*
X93051494Y-54770006D01*
X93052795Y-54771506D01*
X93055054Y-54772928D01*
X93057111Y-54774616D01*
X93058938Y-54775373D01*
X93065238Y-54779338D01*
X93160476Y-54826957D01*
X93174207Y-54832212D01*
X93176896Y-54832403D01*
X93179385Y-54833434D01*
X93194017Y-54834875D01*
X93384493Y-54834875D01*
X93399125Y-54833434D01*
X93401614Y-54832402D01*
X93404302Y-54832212D01*
X93418034Y-54826957D01*
X93513272Y-54779338D01*
X93519571Y-54775373D01*
X93521399Y-54774616D01*
X93523455Y-54772928D01*
X93525715Y-54771506D01*
X93527015Y-54770006D01*
X93532765Y-54765288D01*
X93580383Y-54717669D01*
X93585101Y-54711919D01*
X93586600Y-54710620D01*
X93588021Y-54708361D01*
X93589711Y-54706303D01*
X93590468Y-54704473D01*
X93594432Y-54698177D01*
X93642051Y-54602939D01*
X93647306Y-54589208D01*
X93647497Y-54586518D01*
X93648528Y-54584030D01*
X93649969Y-54569398D01*
X93649969Y-54331303D01*
X93648528Y-54316671D01*
X93647497Y-54314182D01*
X93647306Y-54311493D01*
X93642051Y-54297762D01*
X93594432Y-54202524D01*
X93590467Y-54196224D01*
X93589710Y-54194397D01*
X93588021Y-54192340D01*
X93586600Y-54190081D01*
X93585101Y-54188781D01*
X93580383Y-54183032D01*
X93538178Y-54140827D01*
X93880922Y-54140827D01*
X93880922Y-54378922D01*
X93881173Y-54381475D01*
X93881011Y-54382568D01*
X93881820Y-54388041D01*
X93882363Y-54393554D01*
X93882785Y-54394575D01*
X93883161Y-54397112D01*
X93930780Y-54587588D01*
X93931165Y-54588667D01*
X93931204Y-54589207D01*
X93933531Y-54595288D01*
X93935727Y-54601434D01*
X93936049Y-54601869D01*
X93936459Y-54602939D01*
X93984078Y-54698177D01*
X93988041Y-54704473D01*
X93988799Y-54706303D01*
X93990488Y-54708361D01*
X93991910Y-54710620D01*
X93993408Y-54711919D01*
X93998126Y-54717668D01*
X94045745Y-54765288D01*
X94051494Y-54770006D01*
X94052795Y-54771506D01*
X94055054Y-54772928D01*
X94057111Y-54774616D01*
X94058938Y-54775373D01*
X94065238Y-54779338D01*
X94160476Y-54826957D01*
X94174207Y-54832212D01*
X94176896Y-54832403D01*
X94179385Y-54833434D01*
X94194017Y-54834875D01*
X94289255Y-54834875D01*
X94303887Y-54833434D01*
X94306376Y-54832402D01*
X94309064Y-54832212D01*
X94322796Y-54826957D01*
X94418034Y-54779338D01*
X94424333Y-54775373D01*
X94426161Y-54774616D01*
X94428217Y-54772928D01*
X94430477Y-54771506D01*
X94431777Y-54770006D01*
X94437527Y-54765288D01*
X94485145Y-54717669D01*
X94489863Y-54711919D01*
X94491362Y-54710620D01*
X94492783Y-54708361D01*
X94494473Y-54706303D01*
X94495230Y-54704473D01*
X94499194Y-54698177D01*
X94546813Y-54602939D01*
X94547222Y-54601869D01*
X94547545Y-54601434D01*
X94549737Y-54595297D01*
X94552068Y-54589208D01*
X94552106Y-54588667D01*
X94552492Y-54587588D01*
X94600111Y-54397112D01*
X94600486Y-54394575D01*
X94600909Y-54393554D01*
X94601451Y-54388041D01*
X94602261Y-54382568D01*
X94602098Y-54381475D01*
X94602350Y-54378922D01*
X94602350Y-54243305D01*
X94833653Y-54243305D01*
X94834744Y-54246920D01*
X94834744Y-54250696D01*
X94838938Y-54260821D01*
X94842106Y-54271321D01*
X94844497Y-54274244D01*
X94845943Y-54277733D01*
X94853696Y-54285486D01*
X94860637Y-54293969D01*
X94863963Y-54295753D01*
X94866635Y-54298425D01*
X94876762Y-54302620D01*
X94886424Y-54307803D01*
X94890183Y-54308178D01*
X94893672Y-54309624D01*
X94904633Y-54309624D01*
X94915543Y-54310715D01*
X94919159Y-54309624D01*
X94922934Y-54309624D01*
X94933059Y-54305429D01*
X94943559Y-54302262D01*
X94946482Y-54299870D01*
X94949971Y-54298425D01*
X94961336Y-54289098D01*
X95000349Y-54250085D01*
X95068865Y-54215827D01*
X95271550Y-54215827D01*
X95340066Y-54250085D01*
X95370473Y-54280492D01*
X95404731Y-54349008D01*
X95404731Y-54551693D01*
X95370472Y-54620209D01*
X95340065Y-54650617D01*
X95271550Y-54684875D01*
X95068865Y-54684875D01*
X95000349Y-54650617D01*
X94961337Y-54611604D01*
X94949971Y-54602276D01*
X94922935Y-54591077D01*
X94893672Y-54591077D01*
X94866636Y-54602275D01*
X94845943Y-54622968D01*
X94834744Y-54650004D01*
X94834744Y-54679267D01*
X94845942Y-54706303D01*
X94855269Y-54717668D01*
X94902888Y-54765288D01*
X94908637Y-54770006D01*
X94909938Y-54771506D01*
X94912197Y-54772928D01*
X94914254Y-54774616D01*
X94916081Y-54775373D01*
X94922381Y-54779338D01*
X95017619Y-54826957D01*
X95031350Y-54832212D01*
X95034039Y-54832403D01*
X95036528Y-54833434D01*
X95051160Y-54834875D01*
X95289255Y-54834875D01*
X95303887Y-54833434D01*
X95306376Y-54832402D01*
X95309064Y-54832212D01*
X95322796Y-54826957D01*
X95418034Y-54779338D01*
X95424333Y-54775373D01*
X95426161Y-54774616D01*
X95428217Y-54772928D01*
X95430477Y-54771506D01*
X95431777Y-54770006D01*
X95437527Y-54765288D01*
X95485145Y-54717669D01*
X95489863Y-54711919D01*
X95491362Y-54710620D01*
X95492783Y-54708361D01*
X95494473Y-54706303D01*
X95495230Y-54704473D01*
X95499194Y-54698177D01*
X95546813Y-54602939D01*
X95552068Y-54589208D01*
X95552259Y-54586518D01*
X95553290Y-54584030D01*
X95554731Y-54569398D01*
X95554731Y-54331303D01*
X95553290Y-54316671D01*
X95552259Y-54314182D01*
X95552068Y-54311493D01*
X95546813Y-54297762D01*
X95499194Y-54202524D01*
X95495229Y-54196224D01*
X95494472Y-54194397D01*
X95492783Y-54192340D01*
X95491362Y-54190081D01*
X95489863Y-54188781D01*
X95485145Y-54183032D01*
X95442940Y-54140827D01*
X95785684Y-54140827D01*
X95785684Y-54378922D01*
X95785935Y-54381475D01*
X95785773Y-54382568D01*
X95786582Y-54388041D01*
X95787125Y-54393554D01*
X95787547Y-54394575D01*
X95787923Y-54397112D01*
X95835542Y-54587588D01*
X95835927Y-54588667D01*
X95835966Y-54589207D01*
X95838293Y-54595288D01*
X95840489Y-54601434D01*
X95840811Y-54601869D01*
X95841221Y-54602939D01*
X95888840Y-54698177D01*
X95892803Y-54704473D01*
X95893561Y-54706303D01*
X95895250Y-54708361D01*
X95896672Y-54710620D01*
X95898170Y-54711919D01*
X95902888Y-54717668D01*
X95950507Y-54765288D01*
X95956256Y-54770006D01*
X95957557Y-54771506D01*
X95959816Y-54772928D01*
X95961873Y-54774616D01*
X95963700Y-54775373D01*
X95970000Y-54779338D01*
X96065238Y-54826957D01*
X96078969Y-54832212D01*
X96081658Y-54832403D01*
X96084147Y-54833434D01*
X96098779Y-54834875D01*
X96194017Y-54834875D01*
X96208649Y-54833434D01*
X96211138Y-54832402D01*
X96213826Y-54832212D01*
X96227558Y-54826957D01*
X96322796Y-54779338D01*
X96329095Y-54775373D01*
X96330923Y-54774616D01*
X96332979Y-54772928D01*
X96335239Y-54771506D01*
X96336539Y-54770006D01*
X96342289Y-54765288D01*
X96389907Y-54717669D01*
X96394625Y-54711919D01*
X96396124Y-54710620D01*
X96397545Y-54708361D01*
X96399235Y-54706303D01*
X96399992Y-54704473D01*
X96403956Y-54698177D01*
X96451575Y-54602939D01*
X96451984Y-54601869D01*
X96452307Y-54601434D01*
X96454499Y-54595297D01*
X96456830Y-54589208D01*
X96456868Y-54588667D01*
X96457254Y-54587588D01*
X96504873Y-54397112D01*
X96505248Y-54394575D01*
X96505671Y-54393554D01*
X96506213Y-54388041D01*
X96507023Y-54382568D01*
X96506860Y-54381475D01*
X96507112Y-54378922D01*
X96507112Y-54140827D01*
X96506860Y-54138273D01*
X96507023Y-54137181D01*
X96506213Y-54131707D01*
X96505671Y-54126195D01*
X96505248Y-54125173D01*
X96504873Y-54122637D01*
X96457254Y-53932161D01*
X96456868Y-53931081D01*
X96456830Y-53930541D01*
X96454499Y-53924451D01*
X96452307Y-53918315D01*
X96451984Y-53917879D01*
X96451575Y-53916810D01*
X96403956Y-53821572D01*
X96399991Y-53815272D01*
X96399234Y-53813445D01*
X96397545Y-53811388D01*
X96396124Y-53809129D01*
X96394625Y-53807829D01*
X96389907Y-53802080D01*
X96342288Y-53754461D01*
X96336538Y-53749742D01*
X96335239Y-53748244D01*
X96332979Y-53746822D01*
X96330923Y-53745134D01*
X96329095Y-53744376D01*
X96322796Y-53740412D01*
X96227558Y-53692793D01*
X96213826Y-53687538D01*
X96211138Y-53687347D01*
X96208649Y-53686316D01*
X96194017Y-53684875D01*
X96098779Y-53684875D01*
X96084147Y-53686316D01*
X96081658Y-53687346D01*
X96078969Y-53687538D01*
X96065238Y-53692793D01*
X95970000Y-53740412D01*
X95963700Y-53744376D01*
X95961873Y-53745134D01*
X95959816Y-53746822D01*
X95957557Y-53748244D01*
X95956257Y-53749742D01*
X95950508Y-53754461D01*
X95902889Y-53802080D01*
X95898170Y-53807829D01*
X95896672Y-53809129D01*
X95895250Y-53811388D01*
X95893562Y-53813445D01*
X95892804Y-53815272D01*
X95888840Y-53821572D01*
X95841221Y-53916810D01*
X95840811Y-53917879D01*
X95840489Y-53918315D01*
X95838293Y-53924460D01*
X95835966Y-53930542D01*
X95835927Y-53931081D01*
X95835542Y-53932161D01*
X95787923Y-54122637D01*
X95787547Y-54125173D01*
X95787125Y-54126195D01*
X95786582Y-54131707D01*
X95785773Y-54137181D01*
X95785935Y-54138273D01*
X95785684Y-54140827D01*
X95442940Y-54140827D01*
X95437526Y-54135413D01*
X95431776Y-54130694D01*
X95430477Y-54129196D01*
X95428217Y-54127774D01*
X95426161Y-54126086D01*
X95424333Y-54125328D01*
X95418034Y-54121364D01*
X95322796Y-54073745D01*
X95309064Y-54068490D01*
X95306376Y-54068299D01*
X95303887Y-54067268D01*
X95289255Y-54065827D01*
X95051160Y-54065827D01*
X95036528Y-54067268D01*
X95034039Y-54068298D01*
X95031350Y-54068490D01*
X95017619Y-54073745D01*
X94998977Y-54083065D01*
X95023796Y-53834875D01*
X95432112Y-53834875D01*
X95446744Y-53833434D01*
X95473780Y-53822235D01*
X95494472Y-53801543D01*
X95505671Y-53774507D01*
X95505671Y-53745243D01*
X95494472Y-53718207D01*
X95473780Y-53697515D01*
X95446744Y-53686316D01*
X95432112Y-53684875D01*
X94955922Y-53684875D01*
X94950510Y-53685407D01*
X94948682Y-53685225D01*
X94946895Y-53685763D01*
X94941290Y-53686316D01*
X94931163Y-53690510D01*
X94920666Y-53693678D01*
X94917742Y-53696069D01*
X94914254Y-53697515D01*
X94906500Y-53705268D01*
X94898018Y-53712209D01*
X94896233Y-53715535D01*
X94893562Y-53718207D01*
X94889366Y-53728336D01*
X94884184Y-53737996D01*
X94883076Y-53743520D01*
X94882363Y-53745243D01*
X94882363Y-53747079D01*
X94881294Y-53752412D01*
X94833675Y-54228602D01*
X94833653Y-54243305D01*
X94602350Y-54243305D01*
X94602350Y-54140827D01*
X94602098Y-54138273D01*
X94602261Y-54137181D01*
X94601451Y-54131707D01*
X94600909Y-54126195D01*
X94600486Y-54125173D01*
X94600111Y-54122637D01*
X94552492Y-53932161D01*
X94552106Y-53931081D01*
X94552068Y-53930541D01*
X94549737Y-53924451D01*
X94547545Y-53918315D01*
X94547222Y-53917879D01*
X94546813Y-53916810D01*
X94499194Y-53821572D01*
X94495229Y-53815272D01*
X94494472Y-53813445D01*
X94492783Y-53811388D01*
X94491362Y-53809129D01*
X94489863Y-53807829D01*
X94485145Y-53802080D01*
X94437526Y-53754461D01*
X94431776Y-53749742D01*
X94430477Y-53748244D01*
X94428217Y-53746822D01*
X94426161Y-53745134D01*
X94424333Y-53744376D01*
X94418034Y-53740412D01*
X94322796Y-53692793D01*
X94309064Y-53687538D01*
X94306376Y-53687347D01*
X94303887Y-53686316D01*
X94289255Y-53684875D01*
X94194017Y-53684875D01*
X94179385Y-53686316D01*
X94176896Y-53687346D01*
X94174207Y-53687538D01*
X94160476Y-53692793D01*
X94065238Y-53740412D01*
X94058938Y-53744376D01*
X94057111Y-53745134D01*
X94055054Y-53746822D01*
X94052795Y-53748244D01*
X94051495Y-53749742D01*
X94045746Y-53754461D01*
X93998127Y-53802080D01*
X93993408Y-53807829D01*
X93991910Y-53809129D01*
X93990488Y-53811388D01*
X93988800Y-53813445D01*
X93988042Y-53815272D01*
X93984078Y-53821572D01*
X93936459Y-53916810D01*
X93936049Y-53917879D01*
X93935727Y-53918315D01*
X93933531Y-53924460D01*
X93931204Y-53930542D01*
X93931165Y-53931081D01*
X93930780Y-53932161D01*
X93883161Y-54122637D01*
X93882785Y-54125173D01*
X93882363Y-54126195D01*
X93881820Y-54131707D01*
X93881011Y-54137181D01*
X93881173Y-54138273D01*
X93880922Y-54140827D01*
X93538178Y-54140827D01*
X93532764Y-54135413D01*
X93527014Y-54130694D01*
X93525715Y-54129196D01*
X93523455Y-54127774D01*
X93521399Y-54126086D01*
X93519571Y-54125328D01*
X93513272Y-54121364D01*
X93418034Y-54073745D01*
X93404302Y-54068490D01*
X93401614Y-54068299D01*
X93399125Y-54067268D01*
X93384493Y-54065827D01*
X93194017Y-54065827D01*
X93179385Y-54067268D01*
X93176896Y-54068298D01*
X93174207Y-54068490D01*
X93160476Y-54073745D01*
X93102246Y-54102860D01*
X93120770Y-54028763D01*
X93204682Y-53902894D01*
X93238444Y-53869133D01*
X93306960Y-53834875D01*
X93479731Y-53834875D01*
X93494363Y-53833434D01*
X93521399Y-53822235D01*
X93542091Y-53801543D01*
X93553290Y-53774507D01*
X93553290Y-53745243D01*
X93542091Y-53718207D01*
X93521399Y-53697515D01*
X93494363Y-53686316D01*
X93479731Y-53684875D01*
X93289255Y-53684875D01*
X93274623Y-53686316D01*
X93272134Y-53687346D01*
X93269445Y-53687538D01*
X93255714Y-53692793D01*
X93160476Y-53740412D01*
X93154176Y-53744376D01*
X93152349Y-53745134D01*
X93150292Y-53746822D01*
X93148033Y-53748244D01*
X93146733Y-53749742D01*
X93140984Y-53754461D01*
X93093365Y-53802080D01*
X93093331Y-53802120D01*
X93093310Y-53802135D01*
X93088526Y-53807976D01*
X93084038Y-53813445D01*
X93084028Y-53813467D01*
X93083994Y-53813510D01*
X92988756Y-53956367D01*
X92984449Y-53964445D01*
X92983346Y-53965934D01*
X92982717Y-53967693D01*
X92981839Y-53969341D01*
X92981479Y-53971157D01*
X92978399Y-53979780D01*
X92930780Y-54170256D01*
X92930404Y-54172792D01*
X92929982Y-54173814D01*
X92929439Y-54179326D01*
X92928630Y-54184800D01*
X92928792Y-54185892D01*
X92928541Y-54188446D01*
X91888064Y-54188446D01*
X91888064Y-53759875D01*
X91886623Y-53745243D01*
X91875424Y-53718207D01*
X91854732Y-53697515D01*
X91827696Y-53686316D01*
X91798432Y-53686316D01*
X91771396Y-53697515D01*
X91750704Y-53718207D01*
X91739505Y-53745243D01*
X91738064Y-53759875D01*
X91738064Y-54551693D01*
X91703805Y-54620209D01*
X91673398Y-54650617D01*
X91604883Y-54684875D01*
X91449817Y-54684875D01*
X91381301Y-54650617D01*
X91350894Y-54620209D01*
X91316636Y-54551693D01*
X91316636Y-53759875D01*
X91315195Y-53745243D01*
X91303996Y-53718207D01*
X91283304Y-53697515D01*
X91256268Y-53686316D01*
X91227004Y-53686316D01*
X91199968Y-53697515D01*
X91179276Y-53718207D01*
X91168077Y-53745243D01*
X91166636Y-53759875D01*
X90776273Y-53759875D01*
X90770859Y-53754461D01*
X90765109Y-53749742D01*
X90763810Y-53748244D01*
X90761550Y-53746822D01*
X90759494Y-53745134D01*
X90757666Y-53744376D01*
X90751367Y-53740412D01*
X90656129Y-53692793D01*
X90642397Y-53687538D01*
X90639709Y-53687347D01*
X90637220Y-53686316D01*
X90622588Y-53684875D01*
X90241636Y-53684875D01*
X90227004Y-53686316D01*
X90199968Y-53697515D01*
X90179276Y-53718207D01*
X90168077Y-53745243D01*
X90166636Y-53759875D01*
X89840445Y-53759875D01*
X89839497Y-53750253D01*
X89839575Y-53748487D01*
X89839230Y-53747538D01*
X89839004Y-53745243D01*
X89834022Y-53733216D01*
X89829575Y-53720986D01*
X89828445Y-53719752D01*
X89827805Y-53718207D01*
X89818605Y-53709007D01*
X89809811Y-53699404D01*
X89808294Y-53698696D01*
X89807113Y-53697515D01*
X89795100Y-53692538D01*
X89783293Y-53687029D01*
X89781620Y-53686955D01*
X89780077Y-53686316D01*
X89767071Y-53686316D01*
X89754057Y-53685744D01*
X89752484Y-53686316D01*
X89750813Y-53686316D01*
X89738794Y-53691294D01*
X89726556Y-53695745D01*
X89725322Y-53696875D01*
X89723777Y-53697515D01*
X89714578Y-53706713D01*
X89704975Y-53715508D01*
X89703799Y-53717492D01*
X89703085Y-53718207D01*
X89702408Y-53719840D01*
X89697481Y-53728158D01*
X89432111Y-54296806D01*
X89166743Y-53728159D01*
X89161817Y-53719843D01*
X89161139Y-53718207D01*
X89160423Y-53717491D01*
X89159249Y-53715509D01*
X89149652Y-53706720D01*
X89140447Y-53697515D01*
X89138901Y-53696874D01*
X89137668Y-53695745D01*
X89125437Y-53691297D01*
X89113411Y-53686316D01*
X89111737Y-53686316D01*
X89110167Y-53685745D01*
X89097166Y-53686316D01*
X89084147Y-53686316D01*
X89082602Y-53686955D01*
X89080931Y-53687029D01*
X89069132Y-53692535D01*
X89057111Y-53697515D01*
X89055928Y-53698697D01*
X89054413Y-53699405D01*
X89045624Y-53709001D01*
X89036419Y-53718207D01*
X89035778Y-53719752D01*
X89034649Y-53720986D01*
X89030201Y-53733216D01*
X89025220Y-53745243D01*
X89024993Y-53747538D01*
X89024649Y-53748487D01*
X89024726Y-53750253D01*
X89023779Y-53759875D01*
X88912668Y-53759875D01*
X88912668Y-53573764D01*
X96618223Y-53573764D01*
X96618223Y-54945986D01*
G37*
G36*
X131488542Y-83514077D02*
G01*
X131560484Y-83586019D01*
X131600826Y-83747386D01*
X131600826Y-84062251D01*
X131560484Y-84223617D01*
X131488541Y-84295561D01*
X131420026Y-84329819D01*
X131264960Y-84329819D01*
X131196444Y-84295561D01*
X131124501Y-84223617D01*
X131084160Y-84062251D01*
X131084160Y-83747386D01*
X131124501Y-83586019D01*
X131196444Y-83514077D01*
X131264960Y-83479819D01*
X131420026Y-83479819D01*
X131488542Y-83514077D01*
G37*
G36*
X130488542Y-83514077D02*
G01*
X130518949Y-83544484D01*
X130553207Y-83613000D01*
X130553207Y-83720447D01*
X130518949Y-83788963D01*
X130488542Y-83819370D01*
X130420026Y-83853628D01*
X130131779Y-83853628D01*
X130131779Y-83479819D01*
X130420026Y-83479819D01*
X130488542Y-83514077D01*
G37*
G36*
X134336687Y-84686168D02*
G01*
X129870668Y-84686168D01*
X129870668Y-84485425D01*
X132554649Y-84485425D01*
X132554649Y-84514689D01*
X132565848Y-84541725D01*
X132586540Y-84562417D01*
X132613576Y-84573616D01*
X132628208Y-84575057D01*
X133390112Y-84575057D01*
X133404744Y-84573616D01*
X133431780Y-84562417D01*
X133452472Y-84541725D01*
X133463671Y-84514689D01*
X133463671Y-84485425D01*
X133452472Y-84458389D01*
X133431780Y-84437697D01*
X133404744Y-84426498D01*
X133390112Y-84425057D01*
X132628208Y-84425057D01*
X132613576Y-84426498D01*
X132586540Y-84437697D01*
X132565848Y-84458389D01*
X132554649Y-84485425D01*
X129870668Y-84485425D01*
X129870668Y-83404819D01*
X129981779Y-83404819D01*
X129981779Y-84404819D01*
X129983220Y-84419451D01*
X129994419Y-84446487D01*
X130015111Y-84467179D01*
X130042147Y-84478378D01*
X130071411Y-84478378D01*
X130098447Y-84467179D01*
X130119139Y-84446487D01*
X130130338Y-84419451D01*
X130131779Y-84404819D01*
X130131779Y-84003628D01*
X130437731Y-84003628D01*
X130452363Y-84002187D01*
X130454852Y-84001155D01*
X130457540Y-84000965D01*
X130471272Y-83995710D01*
X130566510Y-83948091D01*
X130572809Y-83944126D01*
X130574637Y-83943369D01*
X130576693Y-83941680D01*
X130578953Y-83940259D01*
X130580252Y-83938760D01*
X130586002Y-83934042D01*
X130633621Y-83886423D01*
X130638339Y-83880673D01*
X130639838Y-83879374D01*
X130641259Y-83877114D01*
X130642948Y-83875058D01*
X130643705Y-83873230D01*
X130647670Y-83866931D01*
X130695289Y-83771693D01*
X130700544Y-83757962D01*
X130700735Y-83755272D01*
X130701766Y-83752784D01*
X130703207Y-83738152D01*
X130934160Y-83738152D01*
X130934160Y-84071485D01*
X130934411Y-84074038D01*
X130934249Y-84075131D01*
X130935058Y-84080604D01*
X130935601Y-84086117D01*
X130936023Y-84087138D01*
X130936399Y-84089675D01*
X130984018Y-84280151D01*
X130988965Y-84293997D01*
X130992284Y-84298476D01*
X130994418Y-84303628D01*
X131003746Y-84314994D01*
X131098984Y-84410233D01*
X131104734Y-84414953D01*
X131106033Y-84416450D01*
X131108287Y-84417869D01*
X131110349Y-84419561D01*
X131112181Y-84420319D01*
X131118476Y-84424282D01*
X131213714Y-84471901D01*
X131227445Y-84477156D01*
X131230134Y-84477347D01*
X131232623Y-84478378D01*
X131247255Y-84479819D01*
X131437731Y-84479819D01*
X131452363Y-84478378D01*
X131454852Y-84477346D01*
X131457540Y-84477156D01*
X131471272Y-84471901D01*
X131566510Y-84424282D01*
X131572809Y-84420317D01*
X131574637Y-84419560D01*
X131576693Y-84417871D01*
X131578953Y-84416450D01*
X131580252Y-84414951D01*
X131586002Y-84410233D01*
X131681241Y-84314993D01*
X131690568Y-84303628D01*
X131692701Y-84298476D01*
X131696021Y-84293997D01*
X131700968Y-84280151D01*
X131748587Y-84089675D01*
X131748962Y-84087138D01*
X131749385Y-84086117D01*
X131749927Y-84080604D01*
X131750737Y-84075131D01*
X131750574Y-84074038D01*
X131750826Y-84071485D01*
X131750826Y-83738152D01*
X131750574Y-83735598D01*
X131750737Y-83734506D01*
X131749927Y-83729032D01*
X131749385Y-83723520D01*
X131748962Y-83722498D01*
X131748587Y-83719962D01*
X131700968Y-83529486D01*
X131696021Y-83515640D01*
X131692702Y-83511161D01*
X131690568Y-83506008D01*
X131681240Y-83494643D01*
X131586002Y-83399405D01*
X131580252Y-83394686D01*
X131578953Y-83393188D01*
X131576693Y-83391766D01*
X131574770Y-83390187D01*
X131887982Y-83390187D01*
X131887982Y-83419451D01*
X131899181Y-83446487D01*
X131919873Y-83467179D01*
X131946909Y-83478378D01*
X131961541Y-83479819D01*
X132172255Y-83479819D01*
X132172255Y-84404819D01*
X132173696Y-84419451D01*
X132184895Y-84446487D01*
X132205587Y-84467179D01*
X132232623Y-84478378D01*
X132261887Y-84478378D01*
X132288923Y-84467179D01*
X132309615Y-84446487D01*
X132320814Y-84419451D01*
X132322255Y-84404819D01*
X132322255Y-83681152D01*
X133506178Y-83681152D01*
X133508252Y-83710342D01*
X133521339Y-83736517D01*
X133543447Y-83755690D01*
X133571208Y-83764944D01*
X133600398Y-83762870D01*
X133614130Y-83757615D01*
X133709368Y-83709996D01*
X133715667Y-83706031D01*
X133717495Y-83705274D01*
X133719551Y-83703585D01*
X133721811Y-83702164D01*
X133723110Y-83700665D01*
X133728860Y-83695947D01*
X133791303Y-83633504D01*
X133791303Y-84329819D01*
X133580589Y-84329819D01*
X133565957Y-84331260D01*
X133538921Y-84342459D01*
X133518229Y-84363151D01*
X133507030Y-84390187D01*
X133507030Y-84419451D01*
X133518229Y-84446487D01*
X133538921Y-84467179D01*
X133565957Y-84478378D01*
X133580589Y-84479819D01*
X134152017Y-84479819D01*
X134166649Y-84478378D01*
X134193685Y-84467179D01*
X134214377Y-84446487D01*
X134225576Y-84419451D01*
X134225576Y-84390187D01*
X134214377Y-84363151D01*
X134193685Y-84342459D01*
X134166649Y-84331260D01*
X134152017Y-84329819D01*
X133941303Y-84329819D01*
X133941303Y-83404819D01*
X133941297Y-83404766D01*
X133941303Y-83404740D01*
X133941287Y-83404663D01*
X133939862Y-83390187D01*
X133937020Y-83383326D01*
X133935564Y-83376045D01*
X133931474Y-83369938D01*
X133928663Y-83363151D01*
X133923414Y-83357902D01*
X133919281Y-83351730D01*
X133913164Y-83347652D01*
X133907971Y-83342459D01*
X133901111Y-83339617D01*
X133894932Y-83335498D01*
X133887723Y-83334072D01*
X133880935Y-83331260D01*
X133873508Y-83331260D01*
X133866224Y-83329819D01*
X133859019Y-83331260D01*
X133851671Y-83331260D01*
X133844810Y-83334101D01*
X133837530Y-83335558D01*
X133831424Y-83339646D01*
X133824635Y-83342459D01*
X133819384Y-83347709D01*
X133813215Y-83351841D01*
X133803994Y-83363099D01*
X133803943Y-83363151D01*
X133803933Y-83363173D01*
X133803899Y-83363216D01*
X133712779Y-83499896D01*
X133631400Y-83581275D01*
X133547048Y-83623451D01*
X133534605Y-83631283D01*
X133515432Y-83653391D01*
X133506178Y-83681152D01*
X132322255Y-83681152D01*
X132322255Y-83479819D01*
X132532969Y-83479819D01*
X132547601Y-83478378D01*
X132574637Y-83467179D01*
X132595329Y-83446487D01*
X132606528Y-83419451D01*
X132606528Y-83390187D01*
X132595329Y-83363151D01*
X132574637Y-83342459D01*
X132547601Y-83331260D01*
X132532969Y-83329819D01*
X131961541Y-83329819D01*
X131946909Y-83331260D01*
X131919873Y-83342459D01*
X131899181Y-83363151D01*
X131887982Y-83390187D01*
X131574770Y-83390187D01*
X131574637Y-83390078D01*
X131572809Y-83389320D01*
X131566510Y-83385356D01*
X131471272Y-83337737D01*
X131457540Y-83332482D01*
X131454852Y-83332291D01*
X131452363Y-83331260D01*
X131437731Y-83329819D01*
X131247255Y-83329819D01*
X131232623Y-83331260D01*
X131230134Y-83332290D01*
X131227445Y-83332482D01*
X131213714Y-83337737D01*
X131118476Y-83385356D01*
X131112181Y-83389318D01*
X131110349Y-83390077D01*
X131108287Y-83391768D01*
X131106033Y-83393188D01*
X131104734Y-83394684D01*
X131098984Y-83399405D01*
X131003746Y-83494643D01*
X130994419Y-83506008D01*
X130992285Y-83511158D01*
X130988965Y-83515640D01*
X130984018Y-83529486D01*
X130936399Y-83719962D01*
X130936023Y-83722498D01*
X130935601Y-83723520D01*
X130935058Y-83729032D01*
X130934249Y-83734506D01*
X130934411Y-83735598D01*
X130934160Y-83738152D01*
X130703207Y-83738152D01*
X130703207Y-83595295D01*
X130701766Y-83580663D01*
X130700735Y-83578174D01*
X130700544Y-83575485D01*
X130695289Y-83561754D01*
X130647670Y-83466516D01*
X130643705Y-83460216D01*
X130642948Y-83458389D01*
X130641259Y-83456332D01*
X130639838Y-83454073D01*
X130638339Y-83452773D01*
X130633621Y-83447024D01*
X130586002Y-83399405D01*
X130580252Y-83394686D01*
X130578953Y-83393188D01*
X130576693Y-83391766D01*
X130574637Y-83390078D01*
X130572809Y-83389320D01*
X130566510Y-83385356D01*
X130471272Y-83337737D01*
X130457540Y-83332482D01*
X130454852Y-83332291D01*
X130452363Y-83331260D01*
X130437731Y-83329819D01*
X130056779Y-83329819D01*
X130042147Y-83331260D01*
X130015111Y-83342459D01*
X129994419Y-83363151D01*
X129983220Y-83390187D01*
X129981779Y-83404819D01*
X129870668Y-83404819D01*
X129870668Y-83218708D01*
X134336687Y-83218708D01*
X134336687Y-84686168D01*
G37*
X104084200Y-75710839D02*
X104131819Y-75567982D01*
X104131819Y-75567982D02*
X104131819Y-75329887D01*
X104131819Y-75329887D02*
X104084200Y-75234649D01*
X104084200Y-75234649D02*
X104036580Y-75187030D01*
X104036580Y-75187030D02*
X103941342Y-75139411D01*
X103941342Y-75139411D02*
X103846104Y-75139411D01*
X103846104Y-75139411D02*
X103750866Y-75187030D01*
X103750866Y-75187030D02*
X103703247Y-75234649D01*
X103703247Y-75234649D02*
X103655628Y-75329887D01*
X103655628Y-75329887D02*
X103608009Y-75520363D01*
X103608009Y-75520363D02*
X103560390Y-75615601D01*
X103560390Y-75615601D02*
X103512771Y-75663220D01*
X103512771Y-75663220D02*
X103417533Y-75710839D01*
X103417533Y-75710839D02*
X103322295Y-75710839D01*
X103322295Y-75710839D02*
X103227057Y-75663220D01*
X103227057Y-75663220D02*
X103179438Y-75615601D01*
X103179438Y-75615601D02*
X103131819Y-75520363D01*
X103131819Y-75520363D02*
X103131819Y-75282268D01*
X103131819Y-75282268D02*
X103179438Y-75139411D01*
X104131819Y-74710839D02*
X103131819Y-74710839D01*
X103131819Y-74710839D02*
X103131819Y-74472744D01*
X103131819Y-74472744D02*
X103179438Y-74329887D01*
X103179438Y-74329887D02*
X103274676Y-74234649D01*
X103274676Y-74234649D02*
X103369914Y-74187030D01*
X103369914Y-74187030D02*
X103560390Y-74139411D01*
X103560390Y-74139411D02*
X103703247Y-74139411D01*
X103703247Y-74139411D02*
X103893723Y-74187030D01*
X103893723Y-74187030D02*
X103988961Y-74234649D01*
X103988961Y-74234649D02*
X104084200Y-74329887D01*
X104084200Y-74329887D02*
X104131819Y-74472744D01*
X104131819Y-74472744D02*
X104131819Y-74710839D01*
X103846104Y-73758458D02*
X103846104Y-73282268D01*
X104131819Y-73853696D02*
X103131819Y-73520363D01*
X103131819Y-73520363D02*
X104131819Y-73187030D01*
X95084200Y-65210839D02*
X95131819Y-65067982D01*
X95131819Y-65067982D02*
X95131819Y-64829887D01*
X95131819Y-64829887D02*
X95084200Y-64734649D01*
X95084200Y-64734649D02*
X95036580Y-64687030D01*
X95036580Y-64687030D02*
X94941342Y-64639411D01*
X94941342Y-64639411D02*
X94846104Y-64639411D01*
X94846104Y-64639411D02*
X94750866Y-64687030D01*
X94750866Y-64687030D02*
X94703247Y-64734649D01*
X94703247Y-64734649D02*
X94655628Y-64829887D01*
X94655628Y-64829887D02*
X94608009Y-65020363D01*
X94608009Y-65020363D02*
X94560390Y-65115601D01*
X94560390Y-65115601D02*
X94512771Y-65163220D01*
X94512771Y-65163220D02*
X94417533Y-65210839D01*
X94417533Y-65210839D02*
X94322295Y-65210839D01*
X94322295Y-65210839D02*
X94227057Y-65163220D01*
X94227057Y-65163220D02*
X94179438Y-65115601D01*
X94179438Y-65115601D02*
X94131819Y-65020363D01*
X94131819Y-65020363D02*
X94131819Y-64782268D01*
X94131819Y-64782268D02*
X94179438Y-64639411D01*
X95036580Y-63639411D02*
X95084200Y-63687030D01*
X95084200Y-63687030D02*
X95131819Y-63829887D01*
X95131819Y-63829887D02*
X95131819Y-63925125D01*
X95131819Y-63925125D02*
X95084200Y-64067982D01*
X95084200Y-64067982D02*
X94988961Y-64163220D01*
X94988961Y-64163220D02*
X94893723Y-64210839D01*
X94893723Y-64210839D02*
X94703247Y-64258458D01*
X94703247Y-64258458D02*
X94560390Y-64258458D01*
X94560390Y-64258458D02*
X94369914Y-64210839D01*
X94369914Y-64210839D02*
X94274676Y-64163220D01*
X94274676Y-64163220D02*
X94179438Y-64067982D01*
X94179438Y-64067982D02*
X94131819Y-63925125D01*
X94131819Y-63925125D02*
X94131819Y-63829887D01*
X94131819Y-63829887D02*
X94179438Y-63687030D01*
X94179438Y-63687030D02*
X94227057Y-63639411D01*
X95131819Y-62734649D02*
X95131819Y-63210839D01*
X95131819Y-63210839D02*
X94131819Y-63210839D01*
G36*
X114530542Y-72479077D02*
G01*
X114602484Y-72551019D01*
X114642826Y-72712386D01*
X114642826Y-73027251D01*
X114602484Y-73188617D01*
X114530541Y-73260561D01*
X114462026Y-73294819D01*
X114306960Y-73294819D01*
X114238444Y-73260561D01*
X114166501Y-73188617D01*
X114126160Y-73027251D01*
X114126160Y-72712386D01*
X114166501Y-72551019D01*
X114238444Y-72479077D01*
X114306960Y-72444819D01*
X114462026Y-72444819D01*
X114530542Y-72479077D01*
G37*
G36*
X119331068Y-73555930D02*
G01*
X113865049Y-73555930D01*
X113865049Y-72703152D01*
X113976160Y-72703152D01*
X113976160Y-73036485D01*
X113976411Y-73039038D01*
X113976249Y-73040131D01*
X113977058Y-73045604D01*
X113977601Y-73051117D01*
X113978023Y-73052138D01*
X113978399Y-73054675D01*
X114026018Y-73245151D01*
X114030965Y-73258997D01*
X114034284Y-73263476D01*
X114036418Y-73268628D01*
X114045746Y-73279994D01*
X114140984Y-73375233D01*
X114146734Y-73379953D01*
X114148033Y-73381450D01*
X114150287Y-73382869D01*
X114152349Y-73384561D01*
X114154181Y-73385319D01*
X114160476Y-73389282D01*
X114255714Y-73436901D01*
X114269445Y-73442156D01*
X114272134Y-73442347D01*
X114274623Y-73443378D01*
X114289255Y-73444819D01*
X114479731Y-73444819D01*
X114494363Y-73443378D01*
X114496852Y-73442346D01*
X114499540Y-73442156D01*
X114513272Y-73436901D01*
X114608510Y-73389282D01*
X114614809Y-73385317D01*
X114616637Y-73384560D01*
X114618693Y-73382871D01*
X114620953Y-73381450D01*
X114622252Y-73379951D01*
X114628002Y-73375233D01*
X114723241Y-73279993D01*
X114732568Y-73268628D01*
X114734701Y-73263476D01*
X114738021Y-73258997D01*
X114742968Y-73245151D01*
X114790587Y-73054675D01*
X114790962Y-73052138D01*
X114791385Y-73051117D01*
X114791927Y-73045604D01*
X114792737Y-73040131D01*
X114792574Y-73039038D01*
X114792826Y-73036485D01*
X114792826Y-72703152D01*
X114792574Y-72700598D01*
X114792737Y-72699506D01*
X114791927Y-72694032D01*
X114791385Y-72688520D01*
X114790962Y-72687498D01*
X114790587Y-72684962D01*
X114742968Y-72494486D01*
X114738021Y-72480640D01*
X114734702Y-72476161D01*
X114732568Y-72471008D01*
X114723240Y-72459643D01*
X114633416Y-72369819D01*
X115071398Y-72369819D01*
X115071398Y-73369819D01*
X115072839Y-73384451D01*
X115084038Y-73411487D01*
X115104730Y-73432179D01*
X115131766Y-73443378D01*
X115161030Y-73443378D01*
X115188066Y-73432179D01*
X115208758Y-73411487D01*
X115219957Y-73384451D01*
X115221398Y-73369819D01*
X115221398Y-72921009D01*
X115479731Y-72921009D01*
X115494363Y-72919568D01*
X115521399Y-72908369D01*
X115542091Y-72887677D01*
X115553290Y-72860641D01*
X115553290Y-72831377D01*
X115542091Y-72804341D01*
X115521399Y-72783649D01*
X115494363Y-72772450D01*
X115479731Y-72771009D01*
X115221398Y-72771009D01*
X115221398Y-72444819D01*
X115622588Y-72444819D01*
X115637220Y-72443378D01*
X115664256Y-72432179D01*
X115684948Y-72411487D01*
X115696147Y-72384451D01*
X115696147Y-72369819D01*
X115928541Y-72369819D01*
X115928541Y-73369819D01*
X115929982Y-73384451D01*
X115941181Y-73411487D01*
X115961873Y-73432179D01*
X115988909Y-73443378D01*
X116018173Y-73443378D01*
X116045209Y-73432179D01*
X116065901Y-73411487D01*
X116077100Y-73384451D01*
X116078541Y-73369819D01*
X116078541Y-72921009D01*
X116336874Y-72921009D01*
X116351506Y-72919568D01*
X116378542Y-72908369D01*
X116399234Y-72887677D01*
X116410433Y-72860641D01*
X116410433Y-72831377D01*
X116399234Y-72804341D01*
X116378542Y-72783649D01*
X116351506Y-72772450D01*
X116336874Y-72771009D01*
X116078541Y-72771009D01*
X116078541Y-72560295D01*
X116738065Y-72560295D01*
X116738065Y-72655533D01*
X116739506Y-72670165D01*
X116740537Y-72672654D01*
X116740728Y-72675342D01*
X116745983Y-72689074D01*
X116793602Y-72784312D01*
X116797566Y-72790611D01*
X116798324Y-72792439D01*
X116800012Y-72794495D01*
X116801434Y-72796755D01*
X116802932Y-72798054D01*
X116807651Y-72803804D01*
X116855270Y-72851423D01*
X116861019Y-72856141D01*
X116862319Y-72857640D01*
X116864578Y-72859061D01*
X116866635Y-72860750D01*
X116868462Y-72861507D01*
X116874762Y-72865472D01*
X116970000Y-72913091D01*
X116971069Y-72913500D01*
X116971505Y-72913823D01*
X116977641Y-72916015D01*
X116983731Y-72918346D01*
X116984271Y-72918384D01*
X116985351Y-72918770D01*
X117167841Y-72964392D01*
X117244828Y-73002886D01*
X117275235Y-73033293D01*
X117309493Y-73101809D01*
X117309493Y-73161637D01*
X117275234Y-73230153D01*
X117244827Y-73260561D01*
X117176312Y-73294819D01*
X116968092Y-73294819D01*
X116836782Y-73251049D01*
X116822445Y-73247789D01*
X116793255Y-73249864D01*
X116767082Y-73262950D01*
X116747908Y-73285057D01*
X116738654Y-73312820D01*
X116740729Y-73342010D01*
X116753815Y-73368183D01*
X116775922Y-73387357D01*
X116789348Y-73393351D01*
X116932204Y-73440970D01*
X116939459Y-73442619D01*
X116941290Y-73443378D01*
X116943943Y-73443639D01*
X116946541Y-73444230D01*
X116948515Y-73444089D01*
X116955922Y-73444819D01*
X117194017Y-73444819D01*
X117208649Y-73443378D01*
X117211138Y-73442346D01*
X117213826Y-73442156D01*
X117227558Y-73436901D01*
X117322796Y-73389282D01*
X117329095Y-73385317D01*
X117330923Y-73384560D01*
X117332979Y-73382872D01*
X117335239Y-73381450D01*
X117336539Y-73379950D01*
X117342289Y-73375232D01*
X117389907Y-73327613D01*
X117394625Y-73321863D01*
X117396124Y-73320564D01*
X117397545Y-73318305D01*
X117399235Y-73316247D01*
X117399992Y-73314417D01*
X117403956Y-73308121D01*
X117451575Y-73212883D01*
X117456830Y-73199152D01*
X117457021Y-73196462D01*
X117458052Y-73193974D01*
X117459493Y-73179342D01*
X117459493Y-73084104D01*
X117458052Y-73069472D01*
X117457021Y-73066983D01*
X117456830Y-73064294D01*
X117451575Y-73050563D01*
X117403956Y-72955325D01*
X117399991Y-72949025D01*
X117399234Y-72947198D01*
X117397545Y-72945141D01*
X117396124Y-72942882D01*
X117394625Y-72941582D01*
X117389907Y-72935833D01*
X117342288Y-72888214D01*
X117336538Y-72883495D01*
X117335239Y-72881997D01*
X117332979Y-72880575D01*
X117330923Y-72878887D01*
X117329095Y-72878129D01*
X117322796Y-72874165D01*
X117227558Y-72826546D01*
X117226488Y-72826136D01*
X117226053Y-72825814D01*
X117219907Y-72823618D01*
X117213826Y-72821291D01*
X117213286Y-72821252D01*
X117212207Y-72820867D01*
X117029717Y-72775244D01*
X116952730Y-72736751D01*
X116922323Y-72706344D01*
X116888065Y-72637828D01*
X116888065Y-72578000D01*
X116922323Y-72509484D01*
X116952730Y-72479077D01*
X117021246Y-72444819D01*
X117229466Y-72444819D01*
X117360775Y-72488589D01*
X117375112Y-72491849D01*
X117404302Y-72489774D01*
X117430476Y-72476688D01*
X117449650Y-72454580D01*
X117458904Y-72426818D01*
X117456829Y-72397628D01*
X117443742Y-72371455D01*
X117441856Y-72369819D01*
X117738065Y-72369819D01*
X117738065Y-73369819D01*
X117739506Y-73384451D01*
X117750705Y-73411487D01*
X117771397Y-73432179D01*
X117798433Y-73443378D01*
X117813065Y-73444819D01*
X118289255Y-73444819D01*
X118303887Y-73443378D01*
X118330923Y-73432179D01*
X118351615Y-73411487D01*
X118362814Y-73384451D01*
X118362814Y-73355187D01*
X118351615Y-73328151D01*
X118330923Y-73307459D01*
X118303887Y-73296260D01*
X118289255Y-73294819D01*
X117888065Y-73294819D01*
X117888065Y-72921009D01*
X118146398Y-72921009D01*
X118161030Y-72919568D01*
X118188066Y-72908369D01*
X118208758Y-72887677D01*
X118219957Y-72860641D01*
X118219957Y-72831377D01*
X118208758Y-72804341D01*
X118188066Y-72783649D01*
X118161030Y-72772450D01*
X118146398Y-72771009D01*
X117888065Y-72771009D01*
X117888065Y-72444819D01*
X118289255Y-72444819D01*
X118303887Y-72443378D01*
X118330923Y-72432179D01*
X118351615Y-72411487D01*
X118362814Y-72384451D01*
X118362814Y-72355187D01*
X118501411Y-72355187D01*
X118501411Y-72384451D01*
X118512610Y-72411487D01*
X118533302Y-72432179D01*
X118560338Y-72443378D01*
X118574970Y-72444819D01*
X118785684Y-72444819D01*
X118785684Y-73369819D01*
X118787125Y-73384451D01*
X118798324Y-73411487D01*
X118819016Y-73432179D01*
X118846052Y-73443378D01*
X118875316Y-73443378D01*
X118902352Y-73432179D01*
X118923044Y-73411487D01*
X118934243Y-73384451D01*
X118935684Y-73369819D01*
X118935684Y-72444819D01*
X119146398Y-72444819D01*
X119161030Y-72443378D01*
X119188066Y-72432179D01*
X119208758Y-72411487D01*
X119219957Y-72384451D01*
X119219957Y-72355187D01*
X119208758Y-72328151D01*
X119188066Y-72307459D01*
X119161030Y-72296260D01*
X119146398Y-72294819D01*
X118574970Y-72294819D01*
X118560338Y-72296260D01*
X118533302Y-72307459D01*
X118512610Y-72328151D01*
X118501411Y-72355187D01*
X118362814Y-72355187D01*
X118351615Y-72328151D01*
X118330923Y-72307459D01*
X118303887Y-72296260D01*
X118289255Y-72294819D01*
X117813065Y-72294819D01*
X117798433Y-72296260D01*
X117771397Y-72307459D01*
X117750705Y-72328151D01*
X117739506Y-72355187D01*
X117738065Y-72369819D01*
X117441856Y-72369819D01*
X117421635Y-72352281D01*
X117408210Y-72346287D01*
X117265353Y-72298668D01*
X117258099Y-72297018D01*
X117256268Y-72296260D01*
X117253613Y-72295998D01*
X117251016Y-72295408D01*
X117249041Y-72295548D01*
X117241636Y-72294819D01*
X117003541Y-72294819D01*
X116988909Y-72296260D01*
X116986420Y-72297290D01*
X116983731Y-72297482D01*
X116970000Y-72302737D01*
X116874762Y-72350356D01*
X116868462Y-72354320D01*
X116866635Y-72355078D01*
X116864578Y-72356766D01*
X116862319Y-72358188D01*
X116861019Y-72359686D01*
X116855270Y-72364405D01*
X116807651Y-72412024D01*
X116802932Y-72417773D01*
X116801434Y-72419073D01*
X116800012Y-72421332D01*
X116798324Y-72423389D01*
X116797566Y-72425216D01*
X116793602Y-72431516D01*
X116745983Y-72526754D01*
X116740728Y-72540486D01*
X116740537Y-72543173D01*
X116739506Y-72545663D01*
X116738065Y-72560295D01*
X116078541Y-72560295D01*
X116078541Y-72444819D01*
X116479731Y-72444819D01*
X116494363Y-72443378D01*
X116521399Y-72432179D01*
X116542091Y-72411487D01*
X116553290Y-72384451D01*
X116553290Y-72355187D01*
X116542091Y-72328151D01*
X116521399Y-72307459D01*
X116494363Y-72296260D01*
X116479731Y-72294819D01*
X116003541Y-72294819D01*
X115988909Y-72296260D01*
X115961873Y-72307459D01*
X115941181Y-72328151D01*
X115929982Y-72355187D01*
X115928541Y-72369819D01*
X115696147Y-72369819D01*
X115696147Y-72355187D01*
X115684948Y-72328151D01*
X115664256Y-72307459D01*
X115637220Y-72296260D01*
X115622588Y-72294819D01*
X115146398Y-72294819D01*
X115131766Y-72296260D01*
X115104730Y-72307459D01*
X115084038Y-72328151D01*
X115072839Y-72355187D01*
X115071398Y-72369819D01*
X114633416Y-72369819D01*
X114628002Y-72364405D01*
X114622252Y-72359686D01*
X114620953Y-72358188D01*
X114618693Y-72356766D01*
X114616637Y-72355078D01*
X114614809Y-72354320D01*
X114608510Y-72350356D01*
X114513272Y-72302737D01*
X114499540Y-72297482D01*
X114496852Y-72297291D01*
X114494363Y-72296260D01*
X114479731Y-72294819D01*
X114289255Y-72294819D01*
X114274623Y-72296260D01*
X114272134Y-72297290D01*
X114269445Y-72297482D01*
X114255714Y-72302737D01*
X114160476Y-72350356D01*
X114154181Y-72354318D01*
X114152349Y-72355077D01*
X114150287Y-72356768D01*
X114148033Y-72358188D01*
X114146734Y-72359684D01*
X114140984Y-72364405D01*
X114045746Y-72459643D01*
X114036419Y-72471008D01*
X114034285Y-72476158D01*
X114030965Y-72480640D01*
X114026018Y-72494486D01*
X113978399Y-72684962D01*
X113978023Y-72687498D01*
X113977601Y-72688520D01*
X113977058Y-72694032D01*
X113976249Y-72699506D01*
X113976411Y-72700598D01*
X113976160Y-72703152D01*
X113865049Y-72703152D01*
X113865049Y-72183708D01*
X119331068Y-72183708D01*
X119331068Y-73555930D01*
G37*
G36*
X89030542Y-94979077D02*
G01*
X89102484Y-95051019D01*
X89142826Y-95212386D01*
X89142826Y-95527251D01*
X89102484Y-95688617D01*
X89030541Y-95760561D01*
X88962026Y-95794819D01*
X88806960Y-95794819D01*
X88738444Y-95760561D01*
X88666501Y-95688617D01*
X88626160Y-95527251D01*
X88626160Y-95212386D01*
X88666501Y-95051019D01*
X88738444Y-94979077D01*
X88806960Y-94944819D01*
X88962026Y-94944819D01*
X89030542Y-94979077D01*
G37*
G36*
X91701122Y-94982990D02*
G01*
X91775235Y-95057103D01*
X91813728Y-95134090D01*
X91857112Y-95307624D01*
X91857112Y-95432013D01*
X91813728Y-95605547D01*
X91775234Y-95682534D01*
X91701122Y-95756647D01*
X91586609Y-95794819D01*
X91435684Y-95794819D01*
X91435684Y-94944819D01*
X91586609Y-94944819D01*
X91701122Y-94982990D01*
G37*
G36*
X92118223Y-96055930D02*
G01*
X88365049Y-96055930D01*
X88365049Y-95203152D01*
X88476160Y-95203152D01*
X88476160Y-95536485D01*
X88476411Y-95539038D01*
X88476249Y-95540131D01*
X88477058Y-95545604D01*
X88477601Y-95551117D01*
X88478023Y-95552138D01*
X88478399Y-95554675D01*
X88526018Y-95745151D01*
X88530965Y-95758997D01*
X88534284Y-95763476D01*
X88536418Y-95768628D01*
X88545746Y-95779994D01*
X88640984Y-95875233D01*
X88646734Y-95879953D01*
X88648033Y-95881450D01*
X88650287Y-95882869D01*
X88652349Y-95884561D01*
X88654181Y-95885319D01*
X88660476Y-95889282D01*
X88755714Y-95936901D01*
X88769445Y-95942156D01*
X88772134Y-95942347D01*
X88774623Y-95943378D01*
X88789255Y-95944819D01*
X88979731Y-95944819D01*
X88994363Y-95943378D01*
X88996852Y-95942346D01*
X88999540Y-95942156D01*
X89013272Y-95936901D01*
X89108510Y-95889282D01*
X89114809Y-95885317D01*
X89116637Y-95884560D01*
X89118693Y-95882871D01*
X89120953Y-95881450D01*
X89122252Y-95879951D01*
X89128002Y-95875233D01*
X89223241Y-95779993D01*
X89232568Y-95768628D01*
X89234701Y-95763476D01*
X89238021Y-95758997D01*
X89242968Y-95745151D01*
X89290587Y-95554675D01*
X89290962Y-95552138D01*
X89291385Y-95551117D01*
X89291927Y-95545604D01*
X89292737Y-95540131D01*
X89292574Y-95539038D01*
X89292826Y-95536485D01*
X89292826Y-95203152D01*
X89292574Y-95200598D01*
X89292737Y-95199506D01*
X89291927Y-95194032D01*
X89291385Y-95188520D01*
X89290962Y-95187498D01*
X89290587Y-95184962D01*
X89242968Y-94994486D01*
X89238021Y-94980640D01*
X89234702Y-94976161D01*
X89232568Y-94971008D01*
X89223240Y-94959643D01*
X89133416Y-94869819D01*
X89571398Y-94869819D01*
X89571398Y-95869819D01*
X89572839Y-95884451D01*
X89584038Y-95911487D01*
X89604730Y-95932179D01*
X89631766Y-95943378D01*
X89646398Y-95944819D01*
X90122588Y-95944819D01*
X90137220Y-95943378D01*
X90164256Y-95932179D01*
X90184948Y-95911487D01*
X90196147Y-95884451D01*
X90196147Y-95855187D01*
X90184948Y-95828151D01*
X90164256Y-95807459D01*
X90137220Y-95796260D01*
X90122588Y-95794819D01*
X89721398Y-95794819D01*
X89721398Y-94869819D01*
X90380922Y-94869819D01*
X90380922Y-95869819D01*
X90382363Y-95884451D01*
X90393562Y-95911487D01*
X90414254Y-95932179D01*
X90441290Y-95943378D01*
X90455922Y-95944819D01*
X90932112Y-95944819D01*
X90946744Y-95943378D01*
X90973780Y-95932179D01*
X90994472Y-95911487D01*
X91005671Y-95884451D01*
X91005671Y-95855187D01*
X90994472Y-95828151D01*
X90973780Y-95807459D01*
X90946744Y-95796260D01*
X90932112Y-95794819D01*
X90530922Y-95794819D01*
X90530922Y-95421009D01*
X90789255Y-95421009D01*
X90803887Y-95419568D01*
X90830923Y-95408369D01*
X90851615Y-95387677D01*
X90862814Y-95360641D01*
X90862814Y-95331377D01*
X90851615Y-95304341D01*
X90830923Y-95283649D01*
X90803887Y-95272450D01*
X90789255Y-95271009D01*
X90530922Y-95271009D01*
X90530922Y-94944819D01*
X90932112Y-94944819D01*
X90946744Y-94943378D01*
X90973780Y-94932179D01*
X90994472Y-94911487D01*
X91005671Y-94884451D01*
X91005671Y-94869819D01*
X91285684Y-94869819D01*
X91285684Y-95869819D01*
X91287125Y-95884451D01*
X91298324Y-95911487D01*
X91319016Y-95932179D01*
X91346052Y-95943378D01*
X91360684Y-95944819D01*
X91598779Y-95944819D01*
X91606184Y-95944089D01*
X91608159Y-95944230D01*
X91610756Y-95943639D01*
X91613411Y-95943378D01*
X91615242Y-95942619D01*
X91622496Y-95940970D01*
X91765353Y-95893351D01*
X91778778Y-95887357D01*
X91780813Y-95885591D01*
X91783304Y-95884560D01*
X91794669Y-95875233D01*
X91889908Y-95779993D01*
X91894625Y-95774244D01*
X91896124Y-95772945D01*
X91897545Y-95770686D01*
X91899235Y-95768628D01*
X91899992Y-95766798D01*
X91903956Y-95760502D01*
X91951575Y-95665264D01*
X91951984Y-95664194D01*
X91952307Y-95663759D01*
X91954499Y-95657622D01*
X91956830Y-95651533D01*
X91956868Y-95650992D01*
X91957254Y-95649913D01*
X92004873Y-95459437D01*
X92005248Y-95456900D01*
X92005671Y-95455879D01*
X92006213Y-95450366D01*
X92007023Y-95444893D01*
X92006860Y-95443800D01*
X92007112Y-95441247D01*
X92007112Y-95298390D01*
X92006860Y-95295836D01*
X92007023Y-95294744D01*
X92006213Y-95289270D01*
X92005671Y-95283758D01*
X92005248Y-95282736D01*
X92004873Y-95280200D01*
X91957254Y-95089724D01*
X91956868Y-95088644D01*
X91956830Y-95088104D01*
X91954499Y-95082014D01*
X91952307Y-95075878D01*
X91951984Y-95075442D01*
X91951575Y-95074373D01*
X91903956Y-94979135D01*
X91899993Y-94972840D01*
X91899235Y-94971008D01*
X91897543Y-94968946D01*
X91896124Y-94966692D01*
X91894627Y-94965393D01*
X91889907Y-94959643D01*
X91794669Y-94864405D01*
X91783304Y-94855078D01*
X91780813Y-94854046D01*
X91778778Y-94852281D01*
X91765353Y-94846287D01*
X91622496Y-94798668D01*
X91615242Y-94797018D01*
X91613411Y-94796260D01*
X91610756Y-94795998D01*
X91608159Y-94795408D01*
X91606184Y-94795548D01*
X91598779Y-94794819D01*
X91360684Y-94794819D01*
X91346052Y-94796260D01*
X91319016Y-94807459D01*
X91298324Y-94828151D01*
X91287125Y-94855187D01*
X91285684Y-94869819D01*
X91005671Y-94869819D01*
X91005671Y-94855187D01*
X90994472Y-94828151D01*
X90973780Y-94807459D01*
X90946744Y-94796260D01*
X90932112Y-94794819D01*
X90455922Y-94794819D01*
X90441290Y-94796260D01*
X90414254Y-94807459D01*
X90393562Y-94828151D01*
X90382363Y-94855187D01*
X90380922Y-94869819D01*
X89721398Y-94869819D01*
X89719957Y-94855187D01*
X89708758Y-94828151D01*
X89688066Y-94807459D01*
X89661030Y-94796260D01*
X89631766Y-94796260D01*
X89604730Y-94807459D01*
X89584038Y-94828151D01*
X89572839Y-94855187D01*
X89571398Y-94869819D01*
X89133416Y-94869819D01*
X89128002Y-94864405D01*
X89122252Y-94859686D01*
X89120953Y-94858188D01*
X89118693Y-94856766D01*
X89116637Y-94855078D01*
X89114809Y-94854320D01*
X89108510Y-94850356D01*
X89013272Y-94802737D01*
X88999540Y-94797482D01*
X88996852Y-94797291D01*
X88994363Y-94796260D01*
X88979731Y-94794819D01*
X88789255Y-94794819D01*
X88774623Y-94796260D01*
X88772134Y-94797290D01*
X88769445Y-94797482D01*
X88755714Y-94802737D01*
X88660476Y-94850356D01*
X88654181Y-94854318D01*
X88652349Y-94855077D01*
X88650287Y-94856768D01*
X88648033Y-94858188D01*
X88646734Y-94859684D01*
X88640984Y-94864405D01*
X88545746Y-94959643D01*
X88536419Y-94971008D01*
X88534285Y-94976158D01*
X88530965Y-94980640D01*
X88526018Y-94994486D01*
X88478399Y-95184962D01*
X88478023Y-95187498D01*
X88477601Y-95188520D01*
X88477058Y-95194032D01*
X88476249Y-95199506D01*
X88476411Y-95200598D01*
X88476160Y-95203152D01*
X88365049Y-95203152D01*
X88365049Y-94683708D01*
X92118223Y-94683708D01*
X92118223Y-96055930D01*
G37*
X88631819Y-63187030D02*
X88631819Y-63663220D01*
X88631819Y-63663220D02*
X89108009Y-63710839D01*
X89108009Y-63710839D02*
X89060390Y-63663220D01*
X89060390Y-63663220D02*
X89012771Y-63567982D01*
X89012771Y-63567982D02*
X89012771Y-63329887D01*
X89012771Y-63329887D02*
X89060390Y-63234649D01*
X89060390Y-63234649D02*
X89108009Y-63187030D01*
X89108009Y-63187030D02*
X89203247Y-63139411D01*
X89203247Y-63139411D02*
X89441342Y-63139411D01*
X89441342Y-63139411D02*
X89536580Y-63187030D01*
X89536580Y-63187030D02*
X89584200Y-63234649D01*
X89584200Y-63234649D02*
X89631819Y-63329887D01*
X89631819Y-63329887D02*
X89631819Y-63567982D01*
X89631819Y-63567982D02*
X89584200Y-63663220D01*
X89584200Y-63663220D02*
X89536580Y-63710839D01*
X88631819Y-62853696D02*
X89631819Y-62520363D01*
X89631819Y-62520363D02*
X88631819Y-62187030D01*
X95679438Y-76139411D02*
X95631819Y-76234649D01*
X95631819Y-76234649D02*
X95631819Y-76377506D01*
X95631819Y-76377506D02*
X95679438Y-76520363D01*
X95679438Y-76520363D02*
X95774676Y-76615601D01*
X95774676Y-76615601D02*
X95869914Y-76663220D01*
X95869914Y-76663220D02*
X96060390Y-76710839D01*
X96060390Y-76710839D02*
X96203247Y-76710839D01*
X96203247Y-76710839D02*
X96393723Y-76663220D01*
X96393723Y-76663220D02*
X96488961Y-76615601D01*
X96488961Y-76615601D02*
X96584200Y-76520363D01*
X96584200Y-76520363D02*
X96631819Y-76377506D01*
X96631819Y-76377506D02*
X96631819Y-76282268D01*
X96631819Y-76282268D02*
X96584200Y-76139411D01*
X96584200Y-76139411D02*
X96536580Y-76091792D01*
X96536580Y-76091792D02*
X96203247Y-76091792D01*
X96203247Y-76091792D02*
X96203247Y-76282268D01*
X96631819Y-75663220D02*
X95631819Y-75663220D01*
X95631819Y-75663220D02*
X96631819Y-75091792D01*
X96631819Y-75091792D02*
X95631819Y-75091792D01*
X96631819Y-74615601D02*
X95631819Y-74615601D01*
X95631819Y-74615601D02*
X95631819Y-74377506D01*
X95631819Y-74377506D02*
X95679438Y-74234649D01*
X95679438Y-74234649D02*
X95774676Y-74139411D01*
X95774676Y-74139411D02*
X95869914Y-74091792D01*
X95869914Y-74091792D02*
X96060390Y-74044173D01*
X96060390Y-74044173D02*
X96203247Y-74044173D01*
X96203247Y-74044173D02*
X96393723Y-74091792D01*
X96393723Y-74091792D02*
X96488961Y-74139411D01*
X96488961Y-74139411D02*
X96584200Y-74234649D01*
X96584200Y-74234649D02*
X96631819Y-74377506D01*
X96631819Y-74377506D02*
X96631819Y-74615601D01*
X101584200Y-75710839D02*
X101631819Y-75567982D01*
X101631819Y-75567982D02*
X101631819Y-75329887D01*
X101631819Y-75329887D02*
X101584200Y-75234649D01*
X101584200Y-75234649D02*
X101536580Y-75187030D01*
X101536580Y-75187030D02*
X101441342Y-75139411D01*
X101441342Y-75139411D02*
X101346104Y-75139411D01*
X101346104Y-75139411D02*
X101250866Y-75187030D01*
X101250866Y-75187030D02*
X101203247Y-75234649D01*
X101203247Y-75234649D02*
X101155628Y-75329887D01*
X101155628Y-75329887D02*
X101108009Y-75520363D01*
X101108009Y-75520363D02*
X101060390Y-75615601D01*
X101060390Y-75615601D02*
X101012771Y-75663220D01*
X101012771Y-75663220D02*
X100917533Y-75710839D01*
X100917533Y-75710839D02*
X100822295Y-75710839D01*
X100822295Y-75710839D02*
X100727057Y-75663220D01*
X100727057Y-75663220D02*
X100679438Y-75615601D01*
X100679438Y-75615601D02*
X100631819Y-75520363D01*
X100631819Y-75520363D02*
X100631819Y-75282268D01*
X100631819Y-75282268D02*
X100679438Y-75139411D01*
X101536580Y-74139411D02*
X101584200Y-74187030D01*
X101584200Y-74187030D02*
X101631819Y-74329887D01*
X101631819Y-74329887D02*
X101631819Y-74425125D01*
X101631819Y-74425125D02*
X101584200Y-74567982D01*
X101584200Y-74567982D02*
X101488961Y-74663220D01*
X101488961Y-74663220D02*
X101393723Y-74710839D01*
X101393723Y-74710839D02*
X101203247Y-74758458D01*
X101203247Y-74758458D02*
X101060390Y-74758458D01*
X101060390Y-74758458D02*
X100869914Y-74710839D01*
X100869914Y-74710839D02*
X100774676Y-74663220D01*
X100774676Y-74663220D02*
X100679438Y-74567982D01*
X100679438Y-74567982D02*
X100631819Y-74425125D01*
X100631819Y-74425125D02*
X100631819Y-74329887D01*
X100631819Y-74329887D02*
X100679438Y-74187030D01*
X100679438Y-74187030D02*
X100727057Y-74139411D01*
X101631819Y-73234649D02*
X101631819Y-73710839D01*
X101631819Y-73710839D02*
X100631819Y-73710839D01*
G36*
X145030542Y-83479077D02*
G01*
X145102484Y-83551019D01*
X145142826Y-83712386D01*
X145142826Y-84027251D01*
X145102484Y-84188617D01*
X145030541Y-84260561D01*
X144962026Y-84294819D01*
X144806960Y-84294819D01*
X144738444Y-84260561D01*
X144666501Y-84188617D01*
X144626160Y-84027251D01*
X144626160Y-83712386D01*
X144666501Y-83551019D01*
X144738444Y-83479077D01*
X144806960Y-83444819D01*
X144962026Y-83444819D01*
X145030542Y-83479077D01*
G37*
G36*
X144030542Y-83479077D02*
G01*
X144060949Y-83509484D01*
X144095207Y-83578000D01*
X144095207Y-83685447D01*
X144060949Y-83753963D01*
X144030542Y-83784370D01*
X143962026Y-83818628D01*
X143673779Y-83818628D01*
X143673779Y-83444819D01*
X143962026Y-83444819D01*
X144030542Y-83479077D01*
G37*
G36*
X147880128Y-84651168D02*
G01*
X143412668Y-84651168D01*
X143412668Y-84450425D01*
X146096649Y-84450425D01*
X146096649Y-84479689D01*
X146107848Y-84506725D01*
X146128540Y-84527417D01*
X146155576Y-84538616D01*
X146170208Y-84540057D01*
X146932112Y-84540057D01*
X146946744Y-84538616D01*
X146973780Y-84527417D01*
X146994472Y-84506725D01*
X147005671Y-84479689D01*
X147005671Y-84450425D01*
X146994472Y-84423389D01*
X146973780Y-84402697D01*
X146946744Y-84391498D01*
X146932112Y-84390057D01*
X146170208Y-84390057D01*
X146155576Y-84391498D01*
X146128540Y-84402697D01*
X146107848Y-84423389D01*
X146096649Y-84450425D01*
X143412668Y-84450425D01*
X143412668Y-83369819D01*
X143523779Y-83369819D01*
X143523779Y-84369819D01*
X143525220Y-84384451D01*
X143536419Y-84411487D01*
X143557111Y-84432179D01*
X143584147Y-84443378D01*
X143613411Y-84443378D01*
X143640447Y-84432179D01*
X143661139Y-84411487D01*
X143672338Y-84384451D01*
X143673779Y-84369819D01*
X143673779Y-83968628D01*
X143979731Y-83968628D01*
X143994363Y-83967187D01*
X143996852Y-83966155D01*
X143999540Y-83965965D01*
X144013272Y-83960710D01*
X144108510Y-83913091D01*
X144114809Y-83909126D01*
X144116637Y-83908369D01*
X144118693Y-83906680D01*
X144120953Y-83905259D01*
X144122252Y-83903760D01*
X144128002Y-83899042D01*
X144175621Y-83851423D01*
X144180339Y-83845673D01*
X144181838Y-83844374D01*
X144183259Y-83842114D01*
X144184948Y-83840058D01*
X144185705Y-83838230D01*
X144189670Y-83831931D01*
X144237289Y-83736693D01*
X144242544Y-83722962D01*
X144242735Y-83720272D01*
X144243766Y-83717784D01*
X144245207Y-83703152D01*
X144476160Y-83703152D01*
X144476160Y-84036485D01*
X144476411Y-84039038D01*
X144476249Y-84040131D01*
X144477058Y-84045604D01*
X144477601Y-84051117D01*
X144478023Y-84052138D01*
X144478399Y-84054675D01*
X144526018Y-84245151D01*
X144530965Y-84258997D01*
X144534284Y-84263476D01*
X144536418Y-84268628D01*
X144545746Y-84279994D01*
X144640984Y-84375233D01*
X144646734Y-84379953D01*
X144648033Y-84381450D01*
X144650287Y-84382869D01*
X144652349Y-84384561D01*
X144654181Y-84385319D01*
X144660476Y-84389282D01*
X144755714Y-84436901D01*
X144769445Y-84442156D01*
X144772134Y-84442347D01*
X144774623Y-84443378D01*
X144789255Y-84444819D01*
X144979731Y-84444819D01*
X144994363Y-84443378D01*
X144996852Y-84442346D01*
X144999540Y-84442156D01*
X145013272Y-84436901D01*
X145108510Y-84389282D01*
X145114809Y-84385317D01*
X145116637Y-84384560D01*
X145118693Y-84382871D01*
X145120953Y-84381450D01*
X145122252Y-84379951D01*
X145128002Y-84375233D01*
X145223241Y-84279993D01*
X145232568Y-84268628D01*
X145234701Y-84263476D01*
X145238021Y-84258997D01*
X145242968Y-84245151D01*
X145290587Y-84054675D01*
X145290962Y-84052138D01*
X145291385Y-84051117D01*
X145291927Y-84045604D01*
X145292737Y-84040131D01*
X145292574Y-84039038D01*
X145292826Y-84036485D01*
X145292826Y-83703152D01*
X145292574Y-83700598D01*
X145292737Y-83699506D01*
X145291927Y-83694032D01*
X145291385Y-83688520D01*
X145290962Y-83687498D01*
X145290587Y-83684962D01*
X145242968Y-83494486D01*
X145238021Y-83480640D01*
X145234702Y-83476161D01*
X145232568Y-83471008D01*
X145223240Y-83459643D01*
X145128002Y-83364405D01*
X145122252Y-83359686D01*
X145120953Y-83358188D01*
X145118693Y-83356766D01*
X145116770Y-83355187D01*
X145429982Y-83355187D01*
X145429982Y-83384451D01*
X145441181Y-83411487D01*
X145461873Y-83432179D01*
X145488909Y-83443378D01*
X145503541Y-83444819D01*
X145714255Y-83444819D01*
X145714255Y-84369819D01*
X145715696Y-84384451D01*
X145726895Y-84411487D01*
X145747587Y-84432179D01*
X145774623Y-84443378D01*
X145803887Y-84443378D01*
X145830923Y-84432179D01*
X145851615Y-84411487D01*
X145862814Y-84384451D01*
X145864255Y-84369819D01*
X145864255Y-84355187D01*
X147001411Y-84355187D01*
X147001411Y-84384451D01*
X147012610Y-84411487D01*
X147033302Y-84432179D01*
X147060338Y-84443378D01*
X147074970Y-84444819D01*
X147694017Y-84444819D01*
X147708649Y-84443378D01*
X147735685Y-84432179D01*
X147756377Y-84411487D01*
X147767576Y-84384451D01*
X147767576Y-84355187D01*
X147756377Y-84328151D01*
X147735685Y-84307459D01*
X147708649Y-84296260D01*
X147694017Y-84294819D01*
X147256036Y-84294819D01*
X147699431Y-83851423D01*
X147708759Y-83840058D01*
X147709790Y-83837567D01*
X147711555Y-83835533D01*
X147717549Y-83822107D01*
X147765168Y-83679251D01*
X147766817Y-83671995D01*
X147767576Y-83670165D01*
X147767837Y-83667511D01*
X147768428Y-83664914D01*
X147768287Y-83662939D01*
X147769017Y-83655533D01*
X147769017Y-83560295D01*
X147767576Y-83545663D01*
X147766545Y-83543174D01*
X147766354Y-83540485D01*
X147761099Y-83526754D01*
X147713480Y-83431516D01*
X147709515Y-83425216D01*
X147708758Y-83423389D01*
X147707069Y-83421332D01*
X147705648Y-83419073D01*
X147704149Y-83417773D01*
X147699431Y-83412024D01*
X147651812Y-83364405D01*
X147646062Y-83359686D01*
X147644763Y-83358188D01*
X147642503Y-83356766D01*
X147640447Y-83355078D01*
X147638619Y-83354320D01*
X147632320Y-83350356D01*
X147537082Y-83302737D01*
X147523350Y-83297482D01*
X147520662Y-83297291D01*
X147518173Y-83296260D01*
X147503541Y-83294819D01*
X147265446Y-83294819D01*
X147250814Y-83296260D01*
X147248325Y-83297290D01*
X147245636Y-83297482D01*
X147231905Y-83302737D01*
X147136667Y-83350356D01*
X147130367Y-83354320D01*
X147128540Y-83355078D01*
X147126483Y-83356766D01*
X147124224Y-83358188D01*
X147122924Y-83359686D01*
X147117175Y-83364405D01*
X147069556Y-83412024D01*
X147060229Y-83423389D01*
X147049030Y-83450426D01*
X147049030Y-83479688D01*
X147060229Y-83506725D01*
X147080921Y-83527417D01*
X147107958Y-83538616D01*
X147137220Y-83538616D01*
X147164257Y-83527417D01*
X147175622Y-83518090D01*
X147214635Y-83479077D01*
X147283151Y-83444819D01*
X147485836Y-83444819D01*
X147554352Y-83479077D01*
X147584759Y-83509484D01*
X147619017Y-83578000D01*
X147619017Y-83643363D01*
X147580845Y-83757876D01*
X147021937Y-84316786D01*
X147012610Y-84328151D01*
X147001411Y-84355187D01*
X145864255Y-84355187D01*
X145864255Y-83444819D01*
X146074969Y-83444819D01*
X146089601Y-83443378D01*
X146116637Y-83432179D01*
X146137329Y-83411487D01*
X146148528Y-83384451D01*
X146148528Y-83355187D01*
X146137329Y-83328151D01*
X146116637Y-83307459D01*
X146089601Y-83296260D01*
X146074969Y-83294819D01*
X145503541Y-83294819D01*
X145488909Y-83296260D01*
X145461873Y-83307459D01*
X145441181Y-83328151D01*
X145429982Y-83355187D01*
X145116770Y-83355187D01*
X145116637Y-83355078D01*
X145114809Y-83354320D01*
X145108510Y-83350356D01*
X145013272Y-83302737D01*
X144999540Y-83297482D01*
X144996852Y-83297291D01*
X144994363Y-83296260D01*
X144979731Y-83294819D01*
X144789255Y-83294819D01*
X144774623Y-83296260D01*
X144772134Y-83297290D01*
X144769445Y-83297482D01*
X144755714Y-83302737D01*
X144660476Y-83350356D01*
X144654181Y-83354318D01*
X144652349Y-83355077D01*
X144650287Y-83356768D01*
X144648033Y-83358188D01*
X144646734Y-83359684D01*
X144640984Y-83364405D01*
X144545746Y-83459643D01*
X144536419Y-83471008D01*
X144534285Y-83476158D01*
X144530965Y-83480640D01*
X144526018Y-83494486D01*
X144478399Y-83684962D01*
X144478023Y-83687498D01*
X144477601Y-83688520D01*
X144477058Y-83694032D01*
X144476249Y-83699506D01*
X144476411Y-83700598D01*
X144476160Y-83703152D01*
X144245207Y-83703152D01*
X144245207Y-83560295D01*
X144243766Y-83545663D01*
X144242735Y-83543174D01*
X144242544Y-83540485D01*
X144237289Y-83526754D01*
X144189670Y-83431516D01*
X144185705Y-83425216D01*
X144184948Y-83423389D01*
X144183259Y-83421332D01*
X144181838Y-83419073D01*
X144180339Y-83417773D01*
X144175621Y-83412024D01*
X144128002Y-83364405D01*
X144122252Y-83359686D01*
X144120953Y-83358188D01*
X144118693Y-83356766D01*
X144116637Y-83355078D01*
X144114809Y-83354320D01*
X144108510Y-83350356D01*
X144013272Y-83302737D01*
X143999540Y-83297482D01*
X143996852Y-83297291D01*
X143994363Y-83296260D01*
X143979731Y-83294819D01*
X143598779Y-83294819D01*
X143584147Y-83296260D01*
X143557111Y-83307459D01*
X143536419Y-83328151D01*
X143525220Y-83355187D01*
X143523779Y-83369819D01*
X143412668Y-83369819D01*
X143412668Y-83183708D01*
X147880128Y-83183708D01*
X147880128Y-84651168D01*
G37*
X136513333Y-67784819D02*
X136180000Y-67308628D01*
X135941905Y-67784819D02*
X135941905Y-66784819D01*
X135941905Y-66784819D02*
X136322857Y-66784819D01*
X136322857Y-66784819D02*
X136418095Y-66832438D01*
X136418095Y-66832438D02*
X136465714Y-66880057D01*
X136465714Y-66880057D02*
X136513333Y-66975295D01*
X136513333Y-66975295D02*
X136513333Y-67118152D01*
X136513333Y-67118152D02*
X136465714Y-67213390D01*
X136465714Y-67213390D02*
X136418095Y-67261009D01*
X136418095Y-67261009D02*
X136322857Y-67308628D01*
X136322857Y-67308628D02*
X135941905Y-67308628D01*
X136989524Y-67784819D02*
X137180000Y-67784819D01*
X137180000Y-67784819D02*
X137275238Y-67737200D01*
X137275238Y-67737200D02*
X137322857Y-67689580D01*
X137322857Y-67689580D02*
X137418095Y-67546723D01*
X137418095Y-67546723D02*
X137465714Y-67356247D01*
X137465714Y-67356247D02*
X137465714Y-66975295D01*
X137465714Y-66975295D02*
X137418095Y-66880057D01*
X137418095Y-66880057D02*
X137370476Y-66832438D01*
X137370476Y-66832438D02*
X137275238Y-66784819D01*
X137275238Y-66784819D02*
X137084762Y-66784819D01*
X137084762Y-66784819D02*
X136989524Y-66832438D01*
X136989524Y-66832438D02*
X136941905Y-66880057D01*
X136941905Y-66880057D02*
X136894286Y-66975295D01*
X136894286Y-66975295D02*
X136894286Y-67213390D01*
X136894286Y-67213390D02*
X136941905Y-67308628D01*
X136941905Y-67308628D02*
X136989524Y-67356247D01*
X136989524Y-67356247D02*
X137084762Y-67403866D01*
X137084762Y-67403866D02*
X137275238Y-67403866D01*
X137275238Y-67403866D02*
X137370476Y-67356247D01*
X137370476Y-67356247D02*
X137418095Y-67308628D01*
X137418095Y-67308628D02*
X137465714Y-67213390D01*
X127487142Y-67714819D02*
X127153809Y-67238628D01*
X126915714Y-67714819D02*
X126915714Y-66714819D01*
X126915714Y-66714819D02*
X127296666Y-66714819D01*
X127296666Y-66714819D02*
X127391904Y-66762438D01*
X127391904Y-66762438D02*
X127439523Y-66810057D01*
X127439523Y-66810057D02*
X127487142Y-66905295D01*
X127487142Y-66905295D02*
X127487142Y-67048152D01*
X127487142Y-67048152D02*
X127439523Y-67143390D01*
X127439523Y-67143390D02*
X127391904Y-67191009D01*
X127391904Y-67191009D02*
X127296666Y-67238628D01*
X127296666Y-67238628D02*
X126915714Y-67238628D01*
X128439523Y-67714819D02*
X127868095Y-67714819D01*
X128153809Y-67714819D02*
X128153809Y-66714819D01*
X128153809Y-66714819D02*
X128058571Y-66857676D01*
X128058571Y-66857676D02*
X127963333Y-66952914D01*
X127963333Y-66952914D02*
X127868095Y-67000533D01*
X128772857Y-66714819D02*
X129391904Y-66714819D01*
X129391904Y-66714819D02*
X129058571Y-67095771D01*
X129058571Y-67095771D02*
X129201428Y-67095771D01*
X129201428Y-67095771D02*
X129296666Y-67143390D01*
X129296666Y-67143390D02*
X129344285Y-67191009D01*
X129344285Y-67191009D02*
X129391904Y-67286247D01*
X129391904Y-67286247D02*
X129391904Y-67524342D01*
X129391904Y-67524342D02*
X129344285Y-67619580D01*
X129344285Y-67619580D02*
X129296666Y-67667200D01*
X129296666Y-67667200D02*
X129201428Y-67714819D01*
X129201428Y-67714819D02*
X128915714Y-67714819D01*
X128915714Y-67714819D02*
X128820476Y-67667200D01*
X128820476Y-67667200D02*
X128772857Y-67619580D01*
X127619142Y-54744819D02*
X127285809Y-54268628D01*
X127047714Y-54744819D02*
X127047714Y-53744819D01*
X127047714Y-53744819D02*
X127428666Y-53744819D01*
X127428666Y-53744819D02*
X127523904Y-53792438D01*
X127523904Y-53792438D02*
X127571523Y-53840057D01*
X127571523Y-53840057D02*
X127619142Y-53935295D01*
X127619142Y-53935295D02*
X127619142Y-54078152D01*
X127619142Y-54078152D02*
X127571523Y-54173390D01*
X127571523Y-54173390D02*
X127523904Y-54221009D01*
X127523904Y-54221009D02*
X127428666Y-54268628D01*
X127428666Y-54268628D02*
X127047714Y-54268628D01*
X128571523Y-54744819D02*
X128000095Y-54744819D01*
X128285809Y-54744819D02*
X128285809Y-53744819D01*
X128285809Y-53744819D02*
X128190571Y-53887676D01*
X128190571Y-53887676D02*
X128095333Y-53982914D01*
X128095333Y-53982914D02*
X128000095Y-54030533D01*
X129428666Y-54078152D02*
X129428666Y-54744819D01*
X129190571Y-53697200D02*
X128952476Y-54411485D01*
X128952476Y-54411485D02*
X129571523Y-54411485D01*
X119647142Y-54764819D02*
X119313809Y-54288628D01*
X119075714Y-54764819D02*
X119075714Y-53764819D01*
X119075714Y-53764819D02*
X119456666Y-53764819D01*
X119456666Y-53764819D02*
X119551904Y-53812438D01*
X119551904Y-53812438D02*
X119599523Y-53860057D01*
X119599523Y-53860057D02*
X119647142Y-53955295D01*
X119647142Y-53955295D02*
X119647142Y-54098152D01*
X119647142Y-54098152D02*
X119599523Y-54193390D01*
X119599523Y-54193390D02*
X119551904Y-54241009D01*
X119551904Y-54241009D02*
X119456666Y-54288628D01*
X119456666Y-54288628D02*
X119075714Y-54288628D01*
X120599523Y-54764819D02*
X120028095Y-54764819D01*
X120313809Y-54764819D02*
X120313809Y-53764819D01*
X120313809Y-53764819D02*
X120218571Y-53907676D01*
X120218571Y-53907676D02*
X120123333Y-54002914D01*
X120123333Y-54002914D02*
X120028095Y-54050533D01*
X121170952Y-54193390D02*
X121075714Y-54145771D01*
X121075714Y-54145771D02*
X121028095Y-54098152D01*
X121028095Y-54098152D02*
X120980476Y-54002914D01*
X120980476Y-54002914D02*
X120980476Y-53955295D01*
X120980476Y-53955295D02*
X121028095Y-53860057D01*
X121028095Y-53860057D02*
X121075714Y-53812438D01*
X121075714Y-53812438D02*
X121170952Y-53764819D01*
X121170952Y-53764819D02*
X121361428Y-53764819D01*
X121361428Y-53764819D02*
X121456666Y-53812438D01*
X121456666Y-53812438D02*
X121504285Y-53860057D01*
X121504285Y-53860057D02*
X121551904Y-53955295D01*
X121551904Y-53955295D02*
X121551904Y-54002914D01*
X121551904Y-54002914D02*
X121504285Y-54098152D01*
X121504285Y-54098152D02*
X121456666Y-54145771D01*
X121456666Y-54145771D02*
X121361428Y-54193390D01*
X121361428Y-54193390D02*
X121170952Y-54193390D01*
X121170952Y-54193390D02*
X121075714Y-54241009D01*
X121075714Y-54241009D02*
X121028095Y-54288628D01*
X121028095Y-54288628D02*
X120980476Y-54383866D01*
X120980476Y-54383866D02*
X120980476Y-54574342D01*
X120980476Y-54574342D02*
X121028095Y-54669580D01*
X121028095Y-54669580D02*
X121075714Y-54717200D01*
X121075714Y-54717200D02*
X121170952Y-54764819D01*
X121170952Y-54764819D02*
X121361428Y-54764819D01*
X121361428Y-54764819D02*
X121456666Y-54717200D01*
X121456666Y-54717200D02*
X121504285Y-54669580D01*
X121504285Y-54669580D02*
X121551904Y-54574342D01*
X121551904Y-54574342D02*
X121551904Y-54383866D01*
X121551904Y-54383866D02*
X121504285Y-54288628D01*
X121504285Y-54288628D02*
X121456666Y-54241009D01*
X121456666Y-54241009D02*
X121361428Y-54193390D01*
X148183333Y-54764819D02*
X147850000Y-54288628D01*
X147611905Y-54764819D02*
X147611905Y-53764819D01*
X147611905Y-53764819D02*
X147992857Y-53764819D01*
X147992857Y-53764819D02*
X148088095Y-53812438D01*
X148088095Y-53812438D02*
X148135714Y-53860057D01*
X148135714Y-53860057D02*
X148183333Y-53955295D01*
X148183333Y-53955295D02*
X148183333Y-54098152D01*
X148183333Y-54098152D02*
X148135714Y-54193390D01*
X148135714Y-54193390D02*
X148088095Y-54241009D01*
X148088095Y-54241009D02*
X147992857Y-54288628D01*
X147992857Y-54288628D02*
X147611905Y-54288628D01*
X149040476Y-54098152D02*
X149040476Y-54764819D01*
X148802381Y-53717200D02*
X148564286Y-54431485D01*
X148564286Y-54431485D02*
X149183333Y-54431485D01*
X123427142Y-67784819D02*
X123093809Y-67308628D01*
X122855714Y-67784819D02*
X122855714Y-66784819D01*
X122855714Y-66784819D02*
X123236666Y-66784819D01*
X123236666Y-66784819D02*
X123331904Y-66832438D01*
X123331904Y-66832438D02*
X123379523Y-66880057D01*
X123379523Y-66880057D02*
X123427142Y-66975295D01*
X123427142Y-66975295D02*
X123427142Y-67118152D01*
X123427142Y-67118152D02*
X123379523Y-67213390D01*
X123379523Y-67213390D02*
X123331904Y-67261009D01*
X123331904Y-67261009D02*
X123236666Y-67308628D01*
X123236666Y-67308628D02*
X122855714Y-67308628D01*
X124379523Y-67784819D02*
X123808095Y-67784819D01*
X124093809Y-67784819D02*
X124093809Y-66784819D01*
X124093809Y-66784819D02*
X123998571Y-66927676D01*
X123998571Y-66927676D02*
X123903333Y-67022914D01*
X123903333Y-67022914D02*
X123808095Y-67070533D01*
X125284285Y-66784819D02*
X124808095Y-66784819D01*
X124808095Y-66784819D02*
X124760476Y-67261009D01*
X124760476Y-67261009D02*
X124808095Y-67213390D01*
X124808095Y-67213390D02*
X124903333Y-67165771D01*
X124903333Y-67165771D02*
X125141428Y-67165771D01*
X125141428Y-67165771D02*
X125236666Y-67213390D01*
X125236666Y-67213390D02*
X125284285Y-67261009D01*
X125284285Y-67261009D02*
X125331904Y-67356247D01*
X125331904Y-67356247D02*
X125331904Y-67594342D01*
X125331904Y-67594342D02*
X125284285Y-67689580D01*
X125284285Y-67689580D02*
X125236666Y-67737200D01*
X125236666Y-67737200D02*
X125141428Y-67784819D01*
X125141428Y-67784819D02*
X124903333Y-67784819D01*
X124903333Y-67784819D02*
X124808095Y-67737200D01*
X124808095Y-67737200D02*
X124760476Y-67689580D01*
X115517142Y-67874819D02*
X115183809Y-67398628D01*
X114945714Y-67874819D02*
X114945714Y-66874819D01*
X114945714Y-66874819D02*
X115326666Y-66874819D01*
X115326666Y-66874819D02*
X115421904Y-66922438D01*
X115421904Y-66922438D02*
X115469523Y-66970057D01*
X115469523Y-66970057D02*
X115517142Y-67065295D01*
X115517142Y-67065295D02*
X115517142Y-67208152D01*
X115517142Y-67208152D02*
X115469523Y-67303390D01*
X115469523Y-67303390D02*
X115421904Y-67351009D01*
X115421904Y-67351009D02*
X115326666Y-67398628D01*
X115326666Y-67398628D02*
X114945714Y-67398628D01*
X116469523Y-67874819D02*
X115898095Y-67874819D01*
X116183809Y-67874819D02*
X116183809Y-66874819D01*
X116183809Y-66874819D02*
X116088571Y-67017676D01*
X116088571Y-67017676D02*
X115993333Y-67112914D01*
X115993333Y-67112914D02*
X115898095Y-67160533D01*
X116945714Y-67874819D02*
X117136190Y-67874819D01*
X117136190Y-67874819D02*
X117231428Y-67827200D01*
X117231428Y-67827200D02*
X117279047Y-67779580D01*
X117279047Y-67779580D02*
X117374285Y-67636723D01*
X117374285Y-67636723D02*
X117421904Y-67446247D01*
X117421904Y-67446247D02*
X117421904Y-67065295D01*
X117421904Y-67065295D02*
X117374285Y-66970057D01*
X117374285Y-66970057D02*
X117326666Y-66922438D01*
X117326666Y-66922438D02*
X117231428Y-66874819D01*
X117231428Y-66874819D02*
X117040952Y-66874819D01*
X117040952Y-66874819D02*
X116945714Y-66922438D01*
X116945714Y-66922438D02*
X116898095Y-66970057D01*
X116898095Y-66970057D02*
X116850476Y-67065295D01*
X116850476Y-67065295D02*
X116850476Y-67303390D01*
X116850476Y-67303390D02*
X116898095Y-67398628D01*
X116898095Y-67398628D02*
X116945714Y-67446247D01*
X116945714Y-67446247D02*
X117040952Y-67493866D01*
X117040952Y-67493866D02*
X117231428Y-67493866D01*
X117231428Y-67493866D02*
X117326666Y-67446247D01*
X117326666Y-67446247D02*
X117374285Y-67398628D01*
X117374285Y-67398628D02*
X117421904Y-67303390D01*
X129723333Y-72149580D02*
X129675714Y-72197200D01*
X129675714Y-72197200D02*
X129532857Y-72244819D01*
X129532857Y-72244819D02*
X129437619Y-72244819D01*
X129437619Y-72244819D02*
X129294762Y-72197200D01*
X129294762Y-72197200D02*
X129199524Y-72101961D01*
X129199524Y-72101961D02*
X129151905Y-72006723D01*
X129151905Y-72006723D02*
X129104286Y-71816247D01*
X129104286Y-71816247D02*
X129104286Y-71673390D01*
X129104286Y-71673390D02*
X129151905Y-71482914D01*
X129151905Y-71482914D02*
X129199524Y-71387676D01*
X129199524Y-71387676D02*
X129294762Y-71292438D01*
X129294762Y-71292438D02*
X129437619Y-71244819D01*
X129437619Y-71244819D02*
X129532857Y-71244819D01*
X129532857Y-71244819D02*
X129675714Y-71292438D01*
X129675714Y-71292438D02*
X129723333Y-71340057D01*
X130104286Y-71340057D02*
X130151905Y-71292438D01*
X130151905Y-71292438D02*
X130247143Y-71244819D01*
X130247143Y-71244819D02*
X130485238Y-71244819D01*
X130485238Y-71244819D02*
X130580476Y-71292438D01*
X130580476Y-71292438D02*
X130628095Y-71340057D01*
X130628095Y-71340057D02*
X130675714Y-71435295D01*
X130675714Y-71435295D02*
X130675714Y-71530533D01*
X130675714Y-71530533D02*
X130628095Y-71673390D01*
X130628095Y-71673390D02*
X130056667Y-72244819D01*
X130056667Y-72244819D02*
X130675714Y-72244819D01*
X140363333Y-67784819D02*
X140030000Y-67308628D01*
X139791905Y-67784819D02*
X139791905Y-66784819D01*
X139791905Y-66784819D02*
X140172857Y-66784819D01*
X140172857Y-66784819D02*
X140268095Y-66832438D01*
X140268095Y-66832438D02*
X140315714Y-66880057D01*
X140315714Y-66880057D02*
X140363333Y-66975295D01*
X140363333Y-66975295D02*
X140363333Y-67118152D01*
X140363333Y-67118152D02*
X140315714Y-67213390D01*
X140315714Y-67213390D02*
X140268095Y-67261009D01*
X140268095Y-67261009D02*
X140172857Y-67308628D01*
X140172857Y-67308628D02*
X139791905Y-67308628D01*
X140696667Y-66784819D02*
X141363333Y-66784819D01*
X141363333Y-66784819D02*
X140934762Y-67784819D01*
X111547142Y-67874819D02*
X111213809Y-67398628D01*
X110975714Y-67874819D02*
X110975714Y-66874819D01*
X110975714Y-66874819D02*
X111356666Y-66874819D01*
X111356666Y-66874819D02*
X111451904Y-66922438D01*
X111451904Y-66922438D02*
X111499523Y-66970057D01*
X111499523Y-66970057D02*
X111547142Y-67065295D01*
X111547142Y-67065295D02*
X111547142Y-67208152D01*
X111547142Y-67208152D02*
X111499523Y-67303390D01*
X111499523Y-67303390D02*
X111451904Y-67351009D01*
X111451904Y-67351009D02*
X111356666Y-67398628D01*
X111356666Y-67398628D02*
X110975714Y-67398628D01*
X111928095Y-66970057D02*
X111975714Y-66922438D01*
X111975714Y-66922438D02*
X112070952Y-66874819D01*
X112070952Y-66874819D02*
X112309047Y-66874819D01*
X112309047Y-66874819D02*
X112404285Y-66922438D01*
X112404285Y-66922438D02*
X112451904Y-66970057D01*
X112451904Y-66970057D02*
X112499523Y-67065295D01*
X112499523Y-67065295D02*
X112499523Y-67160533D01*
X112499523Y-67160533D02*
X112451904Y-67303390D01*
X112451904Y-67303390D02*
X111880476Y-67874819D01*
X111880476Y-67874819D02*
X112499523Y-67874819D01*
X113451904Y-67874819D02*
X112880476Y-67874819D01*
X113166190Y-67874819D02*
X113166190Y-66874819D01*
X113166190Y-66874819D02*
X113070952Y-67017676D01*
X113070952Y-67017676D02*
X112975714Y-67112914D01*
X112975714Y-67112914D02*
X112880476Y-67160533D01*
X159126667Y-64207200D02*
X159269524Y-64254819D01*
X159269524Y-64254819D02*
X159507619Y-64254819D01*
X159507619Y-64254819D02*
X159602857Y-64207200D01*
X159602857Y-64207200D02*
X159650476Y-64159580D01*
X159650476Y-64159580D02*
X159698095Y-64064342D01*
X159698095Y-64064342D02*
X159698095Y-63969104D01*
X159698095Y-63969104D02*
X159650476Y-63873866D01*
X159650476Y-63873866D02*
X159602857Y-63826247D01*
X159602857Y-63826247D02*
X159507619Y-63778628D01*
X159507619Y-63778628D02*
X159317143Y-63731009D01*
X159317143Y-63731009D02*
X159221905Y-63683390D01*
X159221905Y-63683390D02*
X159174286Y-63635771D01*
X159174286Y-63635771D02*
X159126667Y-63540533D01*
X159126667Y-63540533D02*
X159126667Y-63445295D01*
X159126667Y-63445295D02*
X159174286Y-63350057D01*
X159174286Y-63350057D02*
X159221905Y-63302438D01*
X159221905Y-63302438D02*
X159317143Y-63254819D01*
X159317143Y-63254819D02*
X159555238Y-63254819D01*
X159555238Y-63254819D02*
X159698095Y-63302438D01*
X160031429Y-63254819D02*
X160269524Y-64254819D01*
X160269524Y-64254819D02*
X160460000Y-63540533D01*
X160460000Y-63540533D02*
X160650476Y-64254819D01*
X160650476Y-64254819D02*
X160888572Y-63254819D01*
X161221905Y-63350057D02*
X161269524Y-63302438D01*
X161269524Y-63302438D02*
X161364762Y-63254819D01*
X161364762Y-63254819D02*
X161602857Y-63254819D01*
X161602857Y-63254819D02*
X161698095Y-63302438D01*
X161698095Y-63302438D02*
X161745714Y-63350057D01*
X161745714Y-63350057D02*
X161793333Y-63445295D01*
X161793333Y-63445295D02*
X161793333Y-63540533D01*
X161793333Y-63540533D02*
X161745714Y-63683390D01*
X161745714Y-63683390D02*
X161174286Y-64254819D01*
X161174286Y-64254819D02*
X161793333Y-64254819D01*
X115537142Y-54684819D02*
X115203809Y-54208628D01*
X114965714Y-54684819D02*
X114965714Y-53684819D01*
X114965714Y-53684819D02*
X115346666Y-53684819D01*
X115346666Y-53684819D02*
X115441904Y-53732438D01*
X115441904Y-53732438D02*
X115489523Y-53780057D01*
X115489523Y-53780057D02*
X115537142Y-53875295D01*
X115537142Y-53875295D02*
X115537142Y-54018152D01*
X115537142Y-54018152D02*
X115489523Y-54113390D01*
X115489523Y-54113390D02*
X115441904Y-54161009D01*
X115441904Y-54161009D02*
X115346666Y-54208628D01*
X115346666Y-54208628D02*
X114965714Y-54208628D01*
X115918095Y-53780057D02*
X115965714Y-53732438D01*
X115965714Y-53732438D02*
X116060952Y-53684819D01*
X116060952Y-53684819D02*
X116299047Y-53684819D01*
X116299047Y-53684819D02*
X116394285Y-53732438D01*
X116394285Y-53732438D02*
X116441904Y-53780057D01*
X116441904Y-53780057D02*
X116489523Y-53875295D01*
X116489523Y-53875295D02*
X116489523Y-53970533D01*
X116489523Y-53970533D02*
X116441904Y-54113390D01*
X116441904Y-54113390D02*
X115870476Y-54684819D01*
X115870476Y-54684819D02*
X116489523Y-54684819D01*
X117108571Y-53684819D02*
X117203809Y-53684819D01*
X117203809Y-53684819D02*
X117299047Y-53732438D01*
X117299047Y-53732438D02*
X117346666Y-53780057D01*
X117346666Y-53780057D02*
X117394285Y-53875295D01*
X117394285Y-53875295D02*
X117441904Y-54065771D01*
X117441904Y-54065771D02*
X117441904Y-54303866D01*
X117441904Y-54303866D02*
X117394285Y-54494342D01*
X117394285Y-54494342D02*
X117346666Y-54589580D01*
X117346666Y-54589580D02*
X117299047Y-54637200D01*
X117299047Y-54637200D02*
X117203809Y-54684819D01*
X117203809Y-54684819D02*
X117108571Y-54684819D01*
X117108571Y-54684819D02*
X117013333Y-54637200D01*
X117013333Y-54637200D02*
X116965714Y-54589580D01*
X116965714Y-54589580D02*
X116918095Y-54494342D01*
X116918095Y-54494342D02*
X116870476Y-54303866D01*
X116870476Y-54303866D02*
X116870476Y-54065771D01*
X116870476Y-54065771D02*
X116918095Y-53875295D01*
X116918095Y-53875295D02*
X116965714Y-53780057D01*
X116965714Y-53780057D02*
X117013333Y-53732438D01*
X117013333Y-53732438D02*
X117108571Y-53684819D01*
X144143333Y-54834819D02*
X143810000Y-54358628D01*
X143571905Y-54834819D02*
X143571905Y-53834819D01*
X143571905Y-53834819D02*
X143952857Y-53834819D01*
X143952857Y-53834819D02*
X144048095Y-53882438D01*
X144048095Y-53882438D02*
X144095714Y-53930057D01*
X144095714Y-53930057D02*
X144143333Y-54025295D01*
X144143333Y-54025295D02*
X144143333Y-54168152D01*
X144143333Y-54168152D02*
X144095714Y-54263390D01*
X144095714Y-54263390D02*
X144048095Y-54311009D01*
X144048095Y-54311009D02*
X143952857Y-54358628D01*
X143952857Y-54358628D02*
X143571905Y-54358628D01*
X145000476Y-53834819D02*
X144810000Y-53834819D01*
X144810000Y-53834819D02*
X144714762Y-53882438D01*
X144714762Y-53882438D02*
X144667143Y-53930057D01*
X144667143Y-53930057D02*
X144571905Y-54072914D01*
X144571905Y-54072914D02*
X144524286Y-54263390D01*
X144524286Y-54263390D02*
X144524286Y-54644342D01*
X144524286Y-54644342D02*
X144571905Y-54739580D01*
X144571905Y-54739580D02*
X144619524Y-54787200D01*
X144619524Y-54787200D02*
X144714762Y-54834819D01*
X144714762Y-54834819D02*
X144905238Y-54834819D01*
X144905238Y-54834819D02*
X145000476Y-54787200D01*
X145000476Y-54787200D02*
X145048095Y-54739580D01*
X145048095Y-54739580D02*
X145095714Y-54644342D01*
X145095714Y-54644342D02*
X145095714Y-54406247D01*
X145095714Y-54406247D02*
X145048095Y-54311009D01*
X145048095Y-54311009D02*
X145000476Y-54263390D01*
X145000476Y-54263390D02*
X144905238Y-54215771D01*
X144905238Y-54215771D02*
X144714762Y-54215771D01*
X144714762Y-54215771D02*
X144619524Y-54263390D01*
X144619524Y-54263390D02*
X144571905Y-54311009D01*
X144571905Y-54311009D02*
X144524286Y-54406247D01*
X152976666Y-68994819D02*
X152976666Y-69709104D01*
X152976666Y-69709104D02*
X152929047Y-69851961D01*
X152929047Y-69851961D02*
X152833809Y-69947200D01*
X152833809Y-69947200D02*
X152690952Y-69994819D01*
X152690952Y-69994819D02*
X152595714Y-69994819D01*
X153357619Y-68994819D02*
X154024285Y-68994819D01*
X154024285Y-68994819D02*
X153595714Y-69994819D01*
X135857142Y-54674819D02*
X135523809Y-54198628D01*
X135285714Y-54674819D02*
X135285714Y-53674819D01*
X135285714Y-53674819D02*
X135666666Y-53674819D01*
X135666666Y-53674819D02*
X135761904Y-53722438D01*
X135761904Y-53722438D02*
X135809523Y-53770057D01*
X135809523Y-53770057D02*
X135857142Y-53865295D01*
X135857142Y-53865295D02*
X135857142Y-54008152D01*
X135857142Y-54008152D02*
X135809523Y-54103390D01*
X135809523Y-54103390D02*
X135761904Y-54151009D01*
X135761904Y-54151009D02*
X135666666Y-54198628D01*
X135666666Y-54198628D02*
X135285714Y-54198628D01*
X136809523Y-54674819D02*
X136238095Y-54674819D01*
X136523809Y-54674819D02*
X136523809Y-53674819D01*
X136523809Y-53674819D02*
X136428571Y-53817676D01*
X136428571Y-53817676D02*
X136333333Y-53912914D01*
X136333333Y-53912914D02*
X136238095Y-53960533D01*
X137428571Y-53674819D02*
X137523809Y-53674819D01*
X137523809Y-53674819D02*
X137619047Y-53722438D01*
X137619047Y-53722438D02*
X137666666Y-53770057D01*
X137666666Y-53770057D02*
X137714285Y-53865295D01*
X137714285Y-53865295D02*
X137761904Y-54055771D01*
X137761904Y-54055771D02*
X137761904Y-54293866D01*
X137761904Y-54293866D02*
X137714285Y-54484342D01*
X137714285Y-54484342D02*
X137666666Y-54579580D01*
X137666666Y-54579580D02*
X137619047Y-54627200D01*
X137619047Y-54627200D02*
X137523809Y-54674819D01*
X137523809Y-54674819D02*
X137428571Y-54674819D01*
X137428571Y-54674819D02*
X137333333Y-54627200D01*
X137333333Y-54627200D02*
X137285714Y-54579580D01*
X137285714Y-54579580D02*
X137238095Y-54484342D01*
X137238095Y-54484342D02*
X137190476Y-54293866D01*
X137190476Y-54293866D02*
X137190476Y-54055771D01*
X137190476Y-54055771D02*
X137238095Y-53865295D01*
X137238095Y-53865295D02*
X137285714Y-53770057D01*
X137285714Y-53770057D02*
X137333333Y-53722438D01*
X137333333Y-53722438D02*
X137428571Y-53674819D01*
X89786666Y-64254819D02*
X89786666Y-64969104D01*
X89786666Y-64969104D02*
X89739047Y-65111961D01*
X89739047Y-65111961D02*
X89643809Y-65207200D01*
X89643809Y-65207200D02*
X89500952Y-65254819D01*
X89500952Y-65254819D02*
X89405714Y-65254819D01*
X90739047Y-64254819D02*
X90262857Y-64254819D01*
X90262857Y-64254819D02*
X90215238Y-64731009D01*
X90215238Y-64731009D02*
X90262857Y-64683390D01*
X90262857Y-64683390D02*
X90358095Y-64635771D01*
X90358095Y-64635771D02*
X90596190Y-64635771D01*
X90596190Y-64635771D02*
X90691428Y-64683390D01*
X90691428Y-64683390D02*
X90739047Y-64731009D01*
X90739047Y-64731009D02*
X90786666Y-64826247D01*
X90786666Y-64826247D02*
X90786666Y-65064342D01*
X90786666Y-65064342D02*
X90739047Y-65159580D01*
X90739047Y-65159580D02*
X90691428Y-65207200D01*
X90691428Y-65207200D02*
X90596190Y-65254819D01*
X90596190Y-65254819D02*
X90358095Y-65254819D01*
X90358095Y-65254819D02*
X90262857Y-65207200D01*
X90262857Y-65207200D02*
X90215238Y-65159580D01*
X116784819Y-91432857D02*
X116308628Y-91766190D01*
X116784819Y-92004285D02*
X115784819Y-92004285D01*
X115784819Y-92004285D02*
X115784819Y-91623333D01*
X115784819Y-91623333D02*
X115832438Y-91528095D01*
X115832438Y-91528095D02*
X115880057Y-91480476D01*
X115880057Y-91480476D02*
X115975295Y-91432857D01*
X115975295Y-91432857D02*
X116118152Y-91432857D01*
X116118152Y-91432857D02*
X116213390Y-91480476D01*
X116213390Y-91480476D02*
X116261009Y-91528095D01*
X116261009Y-91528095D02*
X116308628Y-91623333D01*
X116308628Y-91623333D02*
X116308628Y-92004285D01*
X115880057Y-91051904D02*
X115832438Y-91004285D01*
X115832438Y-91004285D02*
X115784819Y-90909047D01*
X115784819Y-90909047D02*
X115784819Y-90670952D01*
X115784819Y-90670952D02*
X115832438Y-90575714D01*
X115832438Y-90575714D02*
X115880057Y-90528095D01*
X115880057Y-90528095D02*
X115975295Y-90480476D01*
X115975295Y-90480476D02*
X116070533Y-90480476D01*
X116070533Y-90480476D02*
X116213390Y-90528095D01*
X116213390Y-90528095D02*
X116784819Y-91099523D01*
X116784819Y-91099523D02*
X116784819Y-90480476D01*
X115784819Y-89623333D02*
X115784819Y-89813809D01*
X115784819Y-89813809D02*
X115832438Y-89909047D01*
X115832438Y-89909047D02*
X115880057Y-89956666D01*
X115880057Y-89956666D02*
X116022914Y-90051904D01*
X116022914Y-90051904D02*
X116213390Y-90099523D01*
X116213390Y-90099523D02*
X116594342Y-90099523D01*
X116594342Y-90099523D02*
X116689580Y-90051904D01*
X116689580Y-90051904D02*
X116737200Y-90004285D01*
X116737200Y-90004285D02*
X116784819Y-89909047D01*
X116784819Y-89909047D02*
X116784819Y-89718571D01*
X116784819Y-89718571D02*
X116737200Y-89623333D01*
X116737200Y-89623333D02*
X116689580Y-89575714D01*
X116689580Y-89575714D02*
X116594342Y-89528095D01*
X116594342Y-89528095D02*
X116356247Y-89528095D01*
X116356247Y-89528095D02*
X116261009Y-89575714D01*
X116261009Y-89575714D02*
X116213390Y-89623333D01*
X116213390Y-89623333D02*
X116165771Y-89718571D01*
X116165771Y-89718571D02*
X116165771Y-89909047D01*
X116165771Y-89909047D02*
X116213390Y-90004285D01*
X116213390Y-90004285D02*
X116261009Y-90051904D01*
X116261009Y-90051904D02*
X116356247Y-90099523D01*
X161144819Y-75329523D02*
X161859104Y-75329523D01*
X161859104Y-75329523D02*
X162001961Y-75377142D01*
X162001961Y-75377142D02*
X162097200Y-75472380D01*
X162097200Y-75472380D02*
X162144819Y-75615237D01*
X162144819Y-75615237D02*
X162144819Y-75710475D01*
X162144819Y-74329523D02*
X162144819Y-74900951D01*
X162144819Y-74615237D02*
X161144819Y-74615237D01*
X161144819Y-74615237D02*
X161287676Y-74710475D01*
X161287676Y-74710475D02*
X161382914Y-74805713D01*
X161382914Y-74805713D02*
X161430533Y-74900951D01*
X162144819Y-73377142D02*
X162144819Y-73948570D01*
X162144819Y-73662856D02*
X161144819Y-73662856D01*
X161144819Y-73662856D02*
X161287676Y-73758094D01*
X161287676Y-73758094D02*
X161382914Y-73853332D01*
X161382914Y-73853332D02*
X161430533Y-73948570D01*
X144143333Y-67734819D02*
X143810000Y-67258628D01*
X143571905Y-67734819D02*
X143571905Y-66734819D01*
X143571905Y-66734819D02*
X143952857Y-66734819D01*
X143952857Y-66734819D02*
X144048095Y-66782438D01*
X144048095Y-66782438D02*
X144095714Y-66830057D01*
X144095714Y-66830057D02*
X144143333Y-66925295D01*
X144143333Y-66925295D02*
X144143333Y-67068152D01*
X144143333Y-67068152D02*
X144095714Y-67163390D01*
X144095714Y-67163390D02*
X144048095Y-67211009D01*
X144048095Y-67211009D02*
X143952857Y-67258628D01*
X143952857Y-67258628D02*
X143571905Y-67258628D01*
X145048095Y-66734819D02*
X144571905Y-66734819D01*
X144571905Y-66734819D02*
X144524286Y-67211009D01*
X144524286Y-67211009D02*
X144571905Y-67163390D01*
X144571905Y-67163390D02*
X144667143Y-67115771D01*
X144667143Y-67115771D02*
X144905238Y-67115771D01*
X144905238Y-67115771D02*
X145000476Y-67163390D01*
X145000476Y-67163390D02*
X145048095Y-67211009D01*
X145048095Y-67211009D02*
X145095714Y-67306247D01*
X145095714Y-67306247D02*
X145095714Y-67544342D01*
X145095714Y-67544342D02*
X145048095Y-67639580D01*
X145048095Y-67639580D02*
X145000476Y-67687200D01*
X145000476Y-67687200D02*
X144905238Y-67734819D01*
X144905238Y-67734819D02*
X144667143Y-67734819D01*
X144667143Y-67734819D02*
X144571905Y-67687200D01*
X144571905Y-67687200D02*
X144524286Y-67639580D01*
X148362835Y-74387271D02*
X148410455Y-74434890D01*
X148410455Y-74434890D02*
X148458074Y-74577747D01*
X148458074Y-74577747D02*
X148458074Y-74672985D01*
X148458074Y-74672985D02*
X148410455Y-74815842D01*
X148410455Y-74815842D02*
X148315216Y-74911080D01*
X148315216Y-74911080D02*
X148219978Y-74958699D01*
X148219978Y-74958699D02*
X148029502Y-75006318D01*
X148029502Y-75006318D02*
X147886645Y-75006318D01*
X147886645Y-75006318D02*
X147696169Y-74958699D01*
X147696169Y-74958699D02*
X147600931Y-74911080D01*
X147600931Y-74911080D02*
X147505693Y-74815842D01*
X147505693Y-74815842D02*
X147458074Y-74672985D01*
X147458074Y-74672985D02*
X147458074Y-74577747D01*
X147458074Y-74577747D02*
X147505693Y-74434890D01*
X147505693Y-74434890D02*
X147553312Y-74387271D01*
X148458074Y-73434890D02*
X148458074Y-74006318D01*
X148458074Y-73720604D02*
X147458074Y-73720604D01*
X147458074Y-73720604D02*
X147600931Y-73815842D01*
X147600931Y-73815842D02*
X147696169Y-73911080D01*
X147696169Y-73911080D02*
X147743788Y-74006318D01*
X125717142Y-71954819D02*
X125383809Y-71478628D01*
X125145714Y-71954819D02*
X125145714Y-70954819D01*
X125145714Y-70954819D02*
X125526666Y-70954819D01*
X125526666Y-70954819D02*
X125621904Y-71002438D01*
X125621904Y-71002438D02*
X125669523Y-71050057D01*
X125669523Y-71050057D02*
X125717142Y-71145295D01*
X125717142Y-71145295D02*
X125717142Y-71288152D01*
X125717142Y-71288152D02*
X125669523Y-71383390D01*
X125669523Y-71383390D02*
X125621904Y-71431009D01*
X125621904Y-71431009D02*
X125526666Y-71478628D01*
X125526666Y-71478628D02*
X125145714Y-71478628D01*
X126098095Y-71050057D02*
X126145714Y-71002438D01*
X126145714Y-71002438D02*
X126240952Y-70954819D01*
X126240952Y-70954819D02*
X126479047Y-70954819D01*
X126479047Y-70954819D02*
X126574285Y-71002438D01*
X126574285Y-71002438D02*
X126621904Y-71050057D01*
X126621904Y-71050057D02*
X126669523Y-71145295D01*
X126669523Y-71145295D02*
X126669523Y-71240533D01*
X126669523Y-71240533D02*
X126621904Y-71383390D01*
X126621904Y-71383390D02*
X126050476Y-71954819D01*
X126050476Y-71954819D02*
X126669523Y-71954819D01*
X127526666Y-71288152D02*
X127526666Y-71954819D01*
X127288571Y-70907200D02*
X127050476Y-71621485D01*
X127050476Y-71621485D02*
X127669523Y-71621485D01*
X131647142Y-54544819D02*
X131313809Y-54068628D01*
X131075714Y-54544819D02*
X131075714Y-53544819D01*
X131075714Y-53544819D02*
X131456666Y-53544819D01*
X131456666Y-53544819D02*
X131551904Y-53592438D01*
X131551904Y-53592438D02*
X131599523Y-53640057D01*
X131599523Y-53640057D02*
X131647142Y-53735295D01*
X131647142Y-53735295D02*
X131647142Y-53878152D01*
X131647142Y-53878152D02*
X131599523Y-53973390D01*
X131599523Y-53973390D02*
X131551904Y-54021009D01*
X131551904Y-54021009D02*
X131456666Y-54068628D01*
X131456666Y-54068628D02*
X131075714Y-54068628D01*
X132599523Y-54544819D02*
X132028095Y-54544819D01*
X132313809Y-54544819D02*
X132313809Y-53544819D01*
X132313809Y-53544819D02*
X132218571Y-53687676D01*
X132218571Y-53687676D02*
X132123333Y-53782914D01*
X132123333Y-53782914D02*
X132028095Y-53830533D01*
X132980476Y-53640057D02*
X133028095Y-53592438D01*
X133028095Y-53592438D02*
X133123333Y-53544819D01*
X133123333Y-53544819D02*
X133361428Y-53544819D01*
X133361428Y-53544819D02*
X133456666Y-53592438D01*
X133456666Y-53592438D02*
X133504285Y-53640057D01*
X133504285Y-53640057D02*
X133551904Y-53735295D01*
X133551904Y-53735295D02*
X133551904Y-53830533D01*
X133551904Y-53830533D02*
X133504285Y-53973390D01*
X133504285Y-53973390D02*
X132932857Y-54544819D01*
X132932857Y-54544819D02*
X133551904Y-54544819D01*
X159126667Y-56027200D02*
X159269524Y-56074819D01*
X159269524Y-56074819D02*
X159507619Y-56074819D01*
X159507619Y-56074819D02*
X159602857Y-56027200D01*
X159602857Y-56027200D02*
X159650476Y-55979580D01*
X159650476Y-55979580D02*
X159698095Y-55884342D01*
X159698095Y-55884342D02*
X159698095Y-55789104D01*
X159698095Y-55789104D02*
X159650476Y-55693866D01*
X159650476Y-55693866D02*
X159602857Y-55646247D01*
X159602857Y-55646247D02*
X159507619Y-55598628D01*
X159507619Y-55598628D02*
X159317143Y-55551009D01*
X159317143Y-55551009D02*
X159221905Y-55503390D01*
X159221905Y-55503390D02*
X159174286Y-55455771D01*
X159174286Y-55455771D02*
X159126667Y-55360533D01*
X159126667Y-55360533D02*
X159126667Y-55265295D01*
X159126667Y-55265295D02*
X159174286Y-55170057D01*
X159174286Y-55170057D02*
X159221905Y-55122438D01*
X159221905Y-55122438D02*
X159317143Y-55074819D01*
X159317143Y-55074819D02*
X159555238Y-55074819D01*
X159555238Y-55074819D02*
X159698095Y-55122438D01*
X160031429Y-55074819D02*
X160269524Y-56074819D01*
X160269524Y-56074819D02*
X160460000Y-55360533D01*
X160460000Y-55360533D02*
X160650476Y-56074819D01*
X160650476Y-56074819D02*
X160888572Y-55074819D01*
X161793333Y-56074819D02*
X161221905Y-56074819D01*
X161507619Y-56074819D02*
X161507619Y-55074819D01*
X161507619Y-55074819D02*
X161412381Y-55217676D01*
X161412381Y-55217676D02*
X161317143Y-55312914D01*
X161317143Y-55312914D02*
X161221905Y-55360533D01*
X131627142Y-67674819D02*
X131293809Y-67198628D01*
X131055714Y-67674819D02*
X131055714Y-66674819D01*
X131055714Y-66674819D02*
X131436666Y-66674819D01*
X131436666Y-66674819D02*
X131531904Y-66722438D01*
X131531904Y-66722438D02*
X131579523Y-66770057D01*
X131579523Y-66770057D02*
X131627142Y-66865295D01*
X131627142Y-66865295D02*
X131627142Y-67008152D01*
X131627142Y-67008152D02*
X131579523Y-67103390D01*
X131579523Y-67103390D02*
X131531904Y-67151009D01*
X131531904Y-67151009D02*
X131436666Y-67198628D01*
X131436666Y-67198628D02*
X131055714Y-67198628D01*
X132579523Y-67674819D02*
X132008095Y-67674819D01*
X132293809Y-67674819D02*
X132293809Y-66674819D01*
X132293809Y-66674819D02*
X132198571Y-66817676D01*
X132198571Y-66817676D02*
X132103333Y-66912914D01*
X132103333Y-66912914D02*
X132008095Y-66960533D01*
X133531904Y-67674819D02*
X132960476Y-67674819D01*
X133246190Y-67674819D02*
X133246190Y-66674819D01*
X133246190Y-66674819D02*
X133150952Y-66817676D01*
X133150952Y-66817676D02*
X133055714Y-66912914D01*
X133055714Y-66912914D02*
X132960476Y-66960533D01*
X111527142Y-54704819D02*
X111193809Y-54228628D01*
X110955714Y-54704819D02*
X110955714Y-53704819D01*
X110955714Y-53704819D02*
X111336666Y-53704819D01*
X111336666Y-53704819D02*
X111431904Y-53752438D01*
X111431904Y-53752438D02*
X111479523Y-53800057D01*
X111479523Y-53800057D02*
X111527142Y-53895295D01*
X111527142Y-53895295D02*
X111527142Y-54038152D01*
X111527142Y-54038152D02*
X111479523Y-54133390D01*
X111479523Y-54133390D02*
X111431904Y-54181009D01*
X111431904Y-54181009D02*
X111336666Y-54228628D01*
X111336666Y-54228628D02*
X110955714Y-54228628D01*
X111908095Y-53800057D02*
X111955714Y-53752438D01*
X111955714Y-53752438D02*
X112050952Y-53704819D01*
X112050952Y-53704819D02*
X112289047Y-53704819D01*
X112289047Y-53704819D02*
X112384285Y-53752438D01*
X112384285Y-53752438D02*
X112431904Y-53800057D01*
X112431904Y-53800057D02*
X112479523Y-53895295D01*
X112479523Y-53895295D02*
X112479523Y-53990533D01*
X112479523Y-53990533D02*
X112431904Y-54133390D01*
X112431904Y-54133390D02*
X111860476Y-54704819D01*
X111860476Y-54704819D02*
X112479523Y-54704819D01*
X112860476Y-53800057D02*
X112908095Y-53752438D01*
X112908095Y-53752438D02*
X113003333Y-53704819D01*
X113003333Y-53704819D02*
X113241428Y-53704819D01*
X113241428Y-53704819D02*
X113336666Y-53752438D01*
X113336666Y-53752438D02*
X113384285Y-53800057D01*
X113384285Y-53800057D02*
X113431904Y-53895295D01*
X113431904Y-53895295D02*
X113431904Y-53990533D01*
X113431904Y-53990533D02*
X113384285Y-54133390D01*
X113384285Y-54133390D02*
X112812857Y-54704819D01*
X112812857Y-54704819D02*
X113431904Y-54704819D01*
X152940476Y-91874819D02*
X152940476Y-92589104D01*
X152940476Y-92589104D02*
X152892857Y-92731961D01*
X152892857Y-92731961D02*
X152797619Y-92827200D01*
X152797619Y-92827200D02*
X152654762Y-92874819D01*
X152654762Y-92874819D02*
X152559524Y-92874819D01*
X153940476Y-92874819D02*
X153369048Y-92874819D01*
X153654762Y-92874819D02*
X153654762Y-91874819D01*
X153654762Y-91874819D02*
X153559524Y-92017676D01*
X153559524Y-92017676D02*
X153464286Y-92112914D01*
X153464286Y-92112914D02*
X153369048Y-92160533D01*
X154321429Y-91970057D02*
X154369048Y-91922438D01*
X154369048Y-91922438D02*
X154464286Y-91874819D01*
X154464286Y-91874819D02*
X154702381Y-91874819D01*
X154702381Y-91874819D02*
X154797619Y-91922438D01*
X154797619Y-91922438D02*
X154845238Y-91970057D01*
X154845238Y-91970057D02*
X154892857Y-92065295D01*
X154892857Y-92065295D02*
X154892857Y-92160533D01*
X154892857Y-92160533D02*
X154845238Y-92303390D01*
X154845238Y-92303390D02*
X154273810Y-92874819D01*
X154273810Y-92874819D02*
X154892857Y-92874819D01*
X152033333Y-59604819D02*
X151700000Y-59128628D01*
X151461905Y-59604819D02*
X151461905Y-58604819D01*
X151461905Y-58604819D02*
X151842857Y-58604819D01*
X151842857Y-58604819D02*
X151938095Y-58652438D01*
X151938095Y-58652438D02*
X151985714Y-58700057D01*
X151985714Y-58700057D02*
X152033333Y-58795295D01*
X152033333Y-58795295D02*
X152033333Y-58938152D01*
X152033333Y-58938152D02*
X151985714Y-59033390D01*
X151985714Y-59033390D02*
X151938095Y-59081009D01*
X151938095Y-59081009D02*
X151842857Y-59128628D01*
X151842857Y-59128628D02*
X151461905Y-59128628D01*
X152985714Y-59604819D02*
X152414286Y-59604819D01*
X152700000Y-59604819D02*
X152700000Y-58604819D01*
X152700000Y-58604819D02*
X152604762Y-58747676D01*
X152604762Y-58747676D02*
X152509524Y-58842914D01*
X152509524Y-58842914D02*
X152414286Y-58890533D01*
X141634819Y-70802857D02*
X141158628Y-71136190D01*
X141634819Y-71374285D02*
X140634819Y-71374285D01*
X140634819Y-71374285D02*
X140634819Y-70993333D01*
X140634819Y-70993333D02*
X140682438Y-70898095D01*
X140682438Y-70898095D02*
X140730057Y-70850476D01*
X140730057Y-70850476D02*
X140825295Y-70802857D01*
X140825295Y-70802857D02*
X140968152Y-70802857D01*
X140968152Y-70802857D02*
X141063390Y-70850476D01*
X141063390Y-70850476D02*
X141111009Y-70898095D01*
X141111009Y-70898095D02*
X141158628Y-70993333D01*
X141158628Y-70993333D02*
X141158628Y-71374285D01*
X140730057Y-70421904D02*
X140682438Y-70374285D01*
X140682438Y-70374285D02*
X140634819Y-70279047D01*
X140634819Y-70279047D02*
X140634819Y-70040952D01*
X140634819Y-70040952D02*
X140682438Y-69945714D01*
X140682438Y-69945714D02*
X140730057Y-69898095D01*
X140730057Y-69898095D02*
X140825295Y-69850476D01*
X140825295Y-69850476D02*
X140920533Y-69850476D01*
X140920533Y-69850476D02*
X141063390Y-69898095D01*
X141063390Y-69898095D02*
X141634819Y-70469523D01*
X141634819Y-70469523D02*
X141634819Y-69850476D01*
X140634819Y-69517142D02*
X140634819Y-68850476D01*
X140634819Y-68850476D02*
X141634819Y-69279047D01*
X119457142Y-67784819D02*
X119123809Y-67308628D01*
X118885714Y-67784819D02*
X118885714Y-66784819D01*
X118885714Y-66784819D02*
X119266666Y-66784819D01*
X119266666Y-66784819D02*
X119361904Y-66832438D01*
X119361904Y-66832438D02*
X119409523Y-66880057D01*
X119409523Y-66880057D02*
X119457142Y-66975295D01*
X119457142Y-66975295D02*
X119457142Y-67118152D01*
X119457142Y-67118152D02*
X119409523Y-67213390D01*
X119409523Y-67213390D02*
X119361904Y-67261009D01*
X119361904Y-67261009D02*
X119266666Y-67308628D01*
X119266666Y-67308628D02*
X118885714Y-67308628D01*
X120409523Y-67784819D02*
X119838095Y-67784819D01*
X120123809Y-67784819D02*
X120123809Y-66784819D01*
X120123809Y-66784819D02*
X120028571Y-66927676D01*
X120028571Y-66927676D02*
X119933333Y-67022914D01*
X119933333Y-67022914D02*
X119838095Y-67070533D01*
X120742857Y-66784819D02*
X121409523Y-66784819D01*
X121409523Y-66784819D02*
X120980952Y-67784819D01*
X122144819Y-77152857D02*
X121668628Y-77486190D01*
X122144819Y-77724285D02*
X121144819Y-77724285D01*
X121144819Y-77724285D02*
X121144819Y-77343333D01*
X121144819Y-77343333D02*
X121192438Y-77248095D01*
X121192438Y-77248095D02*
X121240057Y-77200476D01*
X121240057Y-77200476D02*
X121335295Y-77152857D01*
X121335295Y-77152857D02*
X121478152Y-77152857D01*
X121478152Y-77152857D02*
X121573390Y-77200476D01*
X121573390Y-77200476D02*
X121621009Y-77248095D01*
X121621009Y-77248095D02*
X121668628Y-77343333D01*
X121668628Y-77343333D02*
X121668628Y-77724285D01*
X121240057Y-76771904D02*
X121192438Y-76724285D01*
X121192438Y-76724285D02*
X121144819Y-76629047D01*
X121144819Y-76629047D02*
X121144819Y-76390952D01*
X121144819Y-76390952D02*
X121192438Y-76295714D01*
X121192438Y-76295714D02*
X121240057Y-76248095D01*
X121240057Y-76248095D02*
X121335295Y-76200476D01*
X121335295Y-76200476D02*
X121430533Y-76200476D01*
X121430533Y-76200476D02*
X121573390Y-76248095D01*
X121573390Y-76248095D02*
X122144819Y-76819523D01*
X122144819Y-76819523D02*
X122144819Y-76200476D01*
X121144819Y-75295714D02*
X121144819Y-75771904D01*
X121144819Y-75771904D02*
X121621009Y-75819523D01*
X121621009Y-75819523D02*
X121573390Y-75771904D01*
X121573390Y-75771904D02*
X121525771Y-75676666D01*
X121525771Y-75676666D02*
X121525771Y-75438571D01*
X121525771Y-75438571D02*
X121573390Y-75343333D01*
X121573390Y-75343333D02*
X121621009Y-75295714D01*
X121621009Y-75295714D02*
X121716247Y-75248095D01*
X121716247Y-75248095D02*
X121954342Y-75248095D01*
X121954342Y-75248095D02*
X122049580Y-75295714D01*
X122049580Y-75295714D02*
X122097200Y-75343333D01*
X122097200Y-75343333D02*
X122144819Y-75438571D01*
X122144819Y-75438571D02*
X122144819Y-75676666D01*
X122144819Y-75676666D02*
X122097200Y-75771904D01*
X122097200Y-75771904D02*
X122049580Y-75819523D01*
X123577142Y-54574819D02*
X123243809Y-54098628D01*
X123005714Y-54574819D02*
X123005714Y-53574819D01*
X123005714Y-53574819D02*
X123386666Y-53574819D01*
X123386666Y-53574819D02*
X123481904Y-53622438D01*
X123481904Y-53622438D02*
X123529523Y-53670057D01*
X123529523Y-53670057D02*
X123577142Y-53765295D01*
X123577142Y-53765295D02*
X123577142Y-53908152D01*
X123577142Y-53908152D02*
X123529523Y-54003390D01*
X123529523Y-54003390D02*
X123481904Y-54051009D01*
X123481904Y-54051009D02*
X123386666Y-54098628D01*
X123386666Y-54098628D02*
X123005714Y-54098628D01*
X124529523Y-54574819D02*
X123958095Y-54574819D01*
X124243809Y-54574819D02*
X124243809Y-53574819D01*
X124243809Y-53574819D02*
X124148571Y-53717676D01*
X124148571Y-53717676D02*
X124053333Y-53812914D01*
X124053333Y-53812914D02*
X123958095Y-53860533D01*
X125386666Y-53574819D02*
X125196190Y-53574819D01*
X125196190Y-53574819D02*
X125100952Y-53622438D01*
X125100952Y-53622438D02*
X125053333Y-53670057D01*
X125053333Y-53670057D02*
X124958095Y-53812914D01*
X124958095Y-53812914D02*
X124910476Y-54003390D01*
X124910476Y-54003390D02*
X124910476Y-54384342D01*
X124910476Y-54384342D02*
X124958095Y-54479580D01*
X124958095Y-54479580D02*
X125005714Y-54527200D01*
X125005714Y-54527200D02*
X125100952Y-54574819D01*
X125100952Y-54574819D02*
X125291428Y-54574819D01*
X125291428Y-54574819D02*
X125386666Y-54527200D01*
X125386666Y-54527200D02*
X125434285Y-54479580D01*
X125434285Y-54479580D02*
X125481904Y-54384342D01*
X125481904Y-54384342D02*
X125481904Y-54146247D01*
X125481904Y-54146247D02*
X125434285Y-54051009D01*
X125434285Y-54051009D02*
X125386666Y-54003390D01*
X125386666Y-54003390D02*
X125291428Y-53955771D01*
X125291428Y-53955771D02*
X125100952Y-53955771D01*
X125100952Y-53955771D02*
X125005714Y-54003390D01*
X125005714Y-54003390D02*
X124958095Y-54051009D01*
X124958095Y-54051009D02*
X124910476Y-54146247D01*
X131744819Y-89825238D02*
X131268628Y-90158571D01*
X131744819Y-90396666D02*
X130744819Y-90396666D01*
X130744819Y-90396666D02*
X130744819Y-90015714D01*
X130744819Y-90015714D02*
X130792438Y-89920476D01*
X130792438Y-89920476D02*
X130840057Y-89872857D01*
X130840057Y-89872857D02*
X130935295Y-89825238D01*
X130935295Y-89825238D02*
X131078152Y-89825238D01*
X131078152Y-89825238D02*
X131173390Y-89872857D01*
X131173390Y-89872857D02*
X131221009Y-89920476D01*
X131221009Y-89920476D02*
X131268628Y-90015714D01*
X131268628Y-90015714D02*
X131268628Y-90396666D01*
X130744819Y-89539523D02*
X131744819Y-89206190D01*
X131744819Y-89206190D02*
X130744819Y-88872857D01*
X131744819Y-88015714D02*
X131744819Y-88587142D01*
X131744819Y-88301428D02*
X130744819Y-88301428D01*
X130744819Y-88301428D02*
X130887676Y-88396666D01*
X130887676Y-88396666D02*
X130982914Y-88491904D01*
X130982914Y-88491904D02*
X131030533Y-88587142D01*
X152023333Y-67764819D02*
X151690000Y-67288628D01*
X151451905Y-67764819D02*
X151451905Y-66764819D01*
X151451905Y-66764819D02*
X151832857Y-66764819D01*
X151832857Y-66764819D02*
X151928095Y-66812438D01*
X151928095Y-66812438D02*
X151975714Y-66860057D01*
X151975714Y-66860057D02*
X152023333Y-66955295D01*
X152023333Y-66955295D02*
X152023333Y-67098152D01*
X152023333Y-67098152D02*
X151975714Y-67193390D01*
X151975714Y-67193390D02*
X151928095Y-67241009D01*
X151928095Y-67241009D02*
X151832857Y-67288628D01*
X151832857Y-67288628D02*
X151451905Y-67288628D01*
X152404286Y-66860057D02*
X152451905Y-66812438D01*
X152451905Y-66812438D02*
X152547143Y-66764819D01*
X152547143Y-66764819D02*
X152785238Y-66764819D01*
X152785238Y-66764819D02*
X152880476Y-66812438D01*
X152880476Y-66812438D02*
X152928095Y-66860057D01*
X152928095Y-66860057D02*
X152975714Y-66955295D01*
X152975714Y-66955295D02*
X152975714Y-67050533D01*
X152975714Y-67050533D02*
X152928095Y-67193390D01*
X152928095Y-67193390D02*
X152356667Y-67764819D01*
X152356667Y-67764819D02*
X152975714Y-67764819D01*
X136458095Y-74774819D02*
X136458095Y-75584342D01*
X136458095Y-75584342D02*
X136505714Y-75679580D01*
X136505714Y-75679580D02*
X136553333Y-75727200D01*
X136553333Y-75727200D02*
X136648571Y-75774819D01*
X136648571Y-75774819D02*
X136839047Y-75774819D01*
X136839047Y-75774819D02*
X136934285Y-75727200D01*
X136934285Y-75727200D02*
X136981904Y-75679580D01*
X136981904Y-75679580D02*
X137029523Y-75584342D01*
X137029523Y-75584342D02*
X137029523Y-74774819D01*
X138029523Y-75774819D02*
X137458095Y-75774819D01*
X137743809Y-75774819D02*
X137743809Y-74774819D01*
X137743809Y-74774819D02*
X137648571Y-74917676D01*
X137648571Y-74917676D02*
X137553333Y-75012914D01*
X137553333Y-75012914D02*
X137458095Y-75060533D01*
X126706666Y-88004819D02*
X126706666Y-88719104D01*
X126706666Y-88719104D02*
X126659047Y-88861961D01*
X126659047Y-88861961D02*
X126563809Y-88957200D01*
X126563809Y-88957200D02*
X126420952Y-89004819D01*
X126420952Y-89004819D02*
X126325714Y-89004819D01*
X127230476Y-89004819D02*
X127420952Y-89004819D01*
X127420952Y-89004819D02*
X127516190Y-88957200D01*
X127516190Y-88957200D02*
X127563809Y-88909580D01*
X127563809Y-88909580D02*
X127659047Y-88766723D01*
X127659047Y-88766723D02*
X127706666Y-88576247D01*
X127706666Y-88576247D02*
X127706666Y-88195295D01*
X127706666Y-88195295D02*
X127659047Y-88100057D01*
X127659047Y-88100057D02*
X127611428Y-88052438D01*
X127611428Y-88052438D02*
X127516190Y-88004819D01*
X127516190Y-88004819D02*
X127325714Y-88004819D01*
X127325714Y-88004819D02*
X127230476Y-88052438D01*
X127230476Y-88052438D02*
X127182857Y-88100057D01*
X127182857Y-88100057D02*
X127135238Y-88195295D01*
X127135238Y-88195295D02*
X127135238Y-88433390D01*
X127135238Y-88433390D02*
X127182857Y-88528628D01*
X127182857Y-88528628D02*
X127230476Y-88576247D01*
X127230476Y-88576247D02*
X127325714Y-88623866D01*
X127325714Y-88623866D02*
X127516190Y-88623866D01*
X127516190Y-88623866D02*
X127611428Y-88576247D01*
X127611428Y-88576247D02*
X127659047Y-88528628D01*
X127659047Y-88528628D02*
X127706666Y-88433390D01*
X148183333Y-67874819D02*
X147850000Y-67398628D01*
X147611905Y-67874819D02*
X147611905Y-66874819D01*
X147611905Y-66874819D02*
X147992857Y-66874819D01*
X147992857Y-66874819D02*
X148088095Y-66922438D01*
X148088095Y-66922438D02*
X148135714Y-66970057D01*
X148135714Y-66970057D02*
X148183333Y-67065295D01*
X148183333Y-67065295D02*
X148183333Y-67208152D01*
X148183333Y-67208152D02*
X148135714Y-67303390D01*
X148135714Y-67303390D02*
X148088095Y-67351009D01*
X148088095Y-67351009D02*
X147992857Y-67398628D01*
X147992857Y-67398628D02*
X147611905Y-67398628D01*
X148516667Y-66874819D02*
X149135714Y-66874819D01*
X149135714Y-66874819D02*
X148802381Y-67255771D01*
X148802381Y-67255771D02*
X148945238Y-67255771D01*
X148945238Y-67255771D02*
X149040476Y-67303390D01*
X149040476Y-67303390D02*
X149088095Y-67351009D01*
X149088095Y-67351009D02*
X149135714Y-67446247D01*
X149135714Y-67446247D02*
X149135714Y-67684342D01*
X149135714Y-67684342D02*
X149088095Y-67779580D01*
X149088095Y-67779580D02*
X149040476Y-67827200D01*
X149040476Y-67827200D02*
X148945238Y-67874819D01*
X148945238Y-67874819D02*
X148659524Y-67874819D01*
X148659524Y-67874819D02*
X148564286Y-67827200D01*
X148564286Y-67827200D02*
X148516667Y-67779580D01*
X161054819Y-88289523D02*
X161769104Y-88289523D01*
X161769104Y-88289523D02*
X161911961Y-88337142D01*
X161911961Y-88337142D02*
X162007200Y-88432380D01*
X162007200Y-88432380D02*
X162054819Y-88575237D01*
X162054819Y-88575237D02*
X162054819Y-88670475D01*
X162054819Y-87289523D02*
X162054819Y-87860951D01*
X162054819Y-87575237D02*
X161054819Y-87575237D01*
X161054819Y-87575237D02*
X161197676Y-87670475D01*
X161197676Y-87670475D02*
X161292914Y-87765713D01*
X161292914Y-87765713D02*
X161340533Y-87860951D01*
X161054819Y-86670475D02*
X161054819Y-86575237D01*
X161054819Y-86575237D02*
X161102438Y-86479999D01*
X161102438Y-86479999D02*
X161150057Y-86432380D01*
X161150057Y-86432380D02*
X161245295Y-86384761D01*
X161245295Y-86384761D02*
X161435771Y-86337142D01*
X161435771Y-86337142D02*
X161673866Y-86337142D01*
X161673866Y-86337142D02*
X161864342Y-86384761D01*
X161864342Y-86384761D02*
X161959580Y-86432380D01*
X161959580Y-86432380D02*
X162007200Y-86479999D01*
X162007200Y-86479999D02*
X162054819Y-86575237D01*
X162054819Y-86575237D02*
X162054819Y-86670475D01*
X162054819Y-86670475D02*
X162007200Y-86765713D01*
X162007200Y-86765713D02*
X161959580Y-86813332D01*
X161959580Y-86813332D02*
X161864342Y-86860951D01*
X161864342Y-86860951D02*
X161673866Y-86908570D01*
X161673866Y-86908570D02*
X161435771Y-86908570D01*
X161435771Y-86908570D02*
X161245295Y-86860951D01*
X161245295Y-86860951D02*
X161150057Y-86813332D01*
X161150057Y-86813332D02*
X161102438Y-86765713D01*
X161102438Y-86765713D02*
X161054819Y-86670475D01*
X122809819Y-84285238D02*
X122333628Y-84618571D01*
X122809819Y-84856666D02*
X121809819Y-84856666D01*
X121809819Y-84856666D02*
X121809819Y-84475714D01*
X121809819Y-84475714D02*
X121857438Y-84380476D01*
X121857438Y-84380476D02*
X121905057Y-84332857D01*
X121905057Y-84332857D02*
X122000295Y-84285238D01*
X122000295Y-84285238D02*
X122143152Y-84285238D01*
X122143152Y-84285238D02*
X122238390Y-84332857D01*
X122238390Y-84332857D02*
X122286009Y-84380476D01*
X122286009Y-84380476D02*
X122333628Y-84475714D01*
X122333628Y-84475714D02*
X122333628Y-84856666D01*
X121809819Y-83999523D02*
X122809819Y-83666190D01*
X122809819Y-83666190D02*
X121809819Y-83332857D01*
X121809819Y-83094761D02*
X121809819Y-82475714D01*
X121809819Y-82475714D02*
X122190771Y-82809047D01*
X122190771Y-82809047D02*
X122190771Y-82666190D01*
X122190771Y-82666190D02*
X122238390Y-82570952D01*
X122238390Y-82570952D02*
X122286009Y-82523333D01*
X122286009Y-82523333D02*
X122381247Y-82475714D01*
X122381247Y-82475714D02*
X122619342Y-82475714D01*
X122619342Y-82475714D02*
X122714580Y-82523333D01*
X122714580Y-82523333D02*
X122762200Y-82570952D01*
X122762200Y-82570952D02*
X122809819Y-82666190D01*
X122809819Y-82666190D02*
X122809819Y-82951904D01*
X122809819Y-82951904D02*
X122762200Y-83047142D01*
X122762200Y-83047142D02*
X122714580Y-83094761D01*
X142934819Y-89865238D02*
X142458628Y-90198571D01*
X142934819Y-90436666D02*
X141934819Y-90436666D01*
X141934819Y-90436666D02*
X141934819Y-90055714D01*
X141934819Y-90055714D02*
X141982438Y-89960476D01*
X141982438Y-89960476D02*
X142030057Y-89912857D01*
X142030057Y-89912857D02*
X142125295Y-89865238D01*
X142125295Y-89865238D02*
X142268152Y-89865238D01*
X142268152Y-89865238D02*
X142363390Y-89912857D01*
X142363390Y-89912857D02*
X142411009Y-89960476D01*
X142411009Y-89960476D02*
X142458628Y-90055714D01*
X142458628Y-90055714D02*
X142458628Y-90436666D01*
X141934819Y-89579523D02*
X142934819Y-89246190D01*
X142934819Y-89246190D02*
X141934819Y-88912857D01*
X142030057Y-88627142D02*
X141982438Y-88579523D01*
X141982438Y-88579523D02*
X141934819Y-88484285D01*
X141934819Y-88484285D02*
X141934819Y-88246190D01*
X141934819Y-88246190D02*
X141982438Y-88150952D01*
X141982438Y-88150952D02*
X142030057Y-88103333D01*
X142030057Y-88103333D02*
X142125295Y-88055714D01*
X142125295Y-88055714D02*
X142220533Y-88055714D01*
X142220533Y-88055714D02*
X142363390Y-88103333D01*
X142363390Y-88103333D02*
X142934819Y-88674761D01*
X142934819Y-88674761D02*
X142934819Y-88055714D01*
X140403333Y-54674819D02*
X140070000Y-54198628D01*
X139831905Y-54674819D02*
X139831905Y-53674819D01*
X139831905Y-53674819D02*
X140212857Y-53674819D01*
X140212857Y-53674819D02*
X140308095Y-53722438D01*
X140308095Y-53722438D02*
X140355714Y-53770057D01*
X140355714Y-53770057D02*
X140403333Y-53865295D01*
X140403333Y-53865295D02*
X140403333Y-54008152D01*
X140403333Y-54008152D02*
X140355714Y-54103390D01*
X140355714Y-54103390D02*
X140308095Y-54151009D01*
X140308095Y-54151009D02*
X140212857Y-54198628D01*
X140212857Y-54198628D02*
X139831905Y-54198628D01*
X140974762Y-54103390D02*
X140879524Y-54055771D01*
X140879524Y-54055771D02*
X140831905Y-54008152D01*
X140831905Y-54008152D02*
X140784286Y-53912914D01*
X140784286Y-53912914D02*
X140784286Y-53865295D01*
X140784286Y-53865295D02*
X140831905Y-53770057D01*
X140831905Y-53770057D02*
X140879524Y-53722438D01*
X140879524Y-53722438D02*
X140974762Y-53674819D01*
X140974762Y-53674819D02*
X141165238Y-53674819D01*
X141165238Y-53674819D02*
X141260476Y-53722438D01*
X141260476Y-53722438D02*
X141308095Y-53770057D01*
X141308095Y-53770057D02*
X141355714Y-53865295D01*
X141355714Y-53865295D02*
X141355714Y-53912914D01*
X141355714Y-53912914D02*
X141308095Y-54008152D01*
X141308095Y-54008152D02*
X141260476Y-54055771D01*
X141260476Y-54055771D02*
X141165238Y-54103390D01*
X141165238Y-54103390D02*
X140974762Y-54103390D01*
X140974762Y-54103390D02*
X140879524Y-54151009D01*
X140879524Y-54151009D02*
X140831905Y-54198628D01*
X140831905Y-54198628D02*
X140784286Y-54293866D01*
X140784286Y-54293866D02*
X140784286Y-54484342D01*
X140784286Y-54484342D02*
X140831905Y-54579580D01*
X140831905Y-54579580D02*
X140879524Y-54627200D01*
X140879524Y-54627200D02*
X140974762Y-54674819D01*
X140974762Y-54674819D02*
X141165238Y-54674819D01*
X141165238Y-54674819D02*
X141260476Y-54627200D01*
X141260476Y-54627200D02*
X141308095Y-54579580D01*
X141308095Y-54579580D02*
X141355714Y-54484342D01*
X141355714Y-54484342D02*
X141355714Y-54293866D01*
X141355714Y-54293866D02*
X141308095Y-54198628D01*
X141308095Y-54198628D02*
X141260476Y-54151009D01*
X141260476Y-54151009D02*
X141165238Y-54103390D01*
X106166666Y-71744819D02*
X106166666Y-72459104D01*
X106166666Y-72459104D02*
X106119047Y-72601961D01*
X106119047Y-72601961D02*
X106023809Y-72697200D01*
X106023809Y-72697200D02*
X105880952Y-72744819D01*
X105880952Y-72744819D02*
X105785714Y-72744819D01*
X107071428Y-71744819D02*
X106880952Y-71744819D01*
X106880952Y-71744819D02*
X106785714Y-71792438D01*
X106785714Y-71792438D02*
X106738095Y-71840057D01*
X106738095Y-71840057D02*
X106642857Y-71982914D01*
X106642857Y-71982914D02*
X106595238Y-72173390D01*
X106595238Y-72173390D02*
X106595238Y-72554342D01*
X106595238Y-72554342D02*
X106642857Y-72649580D01*
X106642857Y-72649580D02*
X106690476Y-72697200D01*
X106690476Y-72697200D02*
X106785714Y-72744819D01*
X106785714Y-72744819D02*
X106976190Y-72744819D01*
X106976190Y-72744819D02*
X107071428Y-72697200D01*
X107071428Y-72697200D02*
X107119047Y-72649580D01*
X107119047Y-72649580D02*
X107166666Y-72554342D01*
X107166666Y-72554342D02*
X107166666Y-72316247D01*
X107166666Y-72316247D02*
X107119047Y-72221009D01*
X107119047Y-72221009D02*
X107071428Y-72173390D01*
X107071428Y-72173390D02*
X106976190Y-72125771D01*
X106976190Y-72125771D02*
X106785714Y-72125771D01*
X106785714Y-72125771D02*
X106690476Y-72173390D01*
X106690476Y-72173390D02*
X106642857Y-72221009D01*
X106642857Y-72221009D02*
X106595238Y-72316247D01*
X124514819Y-70762857D02*
X124038628Y-71096190D01*
X124514819Y-71334285D02*
X123514819Y-71334285D01*
X123514819Y-71334285D02*
X123514819Y-70953333D01*
X123514819Y-70953333D02*
X123562438Y-70858095D01*
X123562438Y-70858095D02*
X123610057Y-70810476D01*
X123610057Y-70810476D02*
X123705295Y-70762857D01*
X123705295Y-70762857D02*
X123848152Y-70762857D01*
X123848152Y-70762857D02*
X123943390Y-70810476D01*
X123943390Y-70810476D02*
X123991009Y-70858095D01*
X123991009Y-70858095D02*
X124038628Y-70953333D01*
X124038628Y-70953333D02*
X124038628Y-71334285D01*
X123610057Y-70381904D02*
X123562438Y-70334285D01*
X123562438Y-70334285D02*
X123514819Y-70239047D01*
X123514819Y-70239047D02*
X123514819Y-70000952D01*
X123514819Y-70000952D02*
X123562438Y-69905714D01*
X123562438Y-69905714D02*
X123610057Y-69858095D01*
X123610057Y-69858095D02*
X123705295Y-69810476D01*
X123705295Y-69810476D02*
X123800533Y-69810476D01*
X123800533Y-69810476D02*
X123943390Y-69858095D01*
X123943390Y-69858095D02*
X124514819Y-70429523D01*
X124514819Y-70429523D02*
X124514819Y-69810476D01*
X123514819Y-69477142D02*
X123514819Y-68858095D01*
X123514819Y-68858095D02*
X123895771Y-69191428D01*
X123895771Y-69191428D02*
X123895771Y-69048571D01*
X123895771Y-69048571D02*
X123943390Y-68953333D01*
X123943390Y-68953333D02*
X123991009Y-68905714D01*
X123991009Y-68905714D02*
X124086247Y-68858095D01*
X124086247Y-68858095D02*
X124324342Y-68858095D01*
X124324342Y-68858095D02*
X124419580Y-68905714D01*
X124419580Y-68905714D02*
X124467200Y-68953333D01*
X124467200Y-68953333D02*
X124514819Y-69048571D01*
X124514819Y-69048571D02*
X124514819Y-69334285D01*
X124514819Y-69334285D02*
X124467200Y-69429523D01*
X124467200Y-69429523D02*
X124419580Y-69477142D01*
D11*
%TO.C,J1*%
X126610000Y-96130000D02*
X127940000Y-96130000D01*
X126610000Y-97460000D02*
X126610000Y-96130000D01*
X129210000Y-96130000D02*
X147050000Y-96130000D01*
X129210000Y-98790000D02*
X129210000Y-96130000D01*
X129210000Y-98790000D02*
X147050000Y-98790000D01*
X147050000Y-98790000D02*
X147050000Y-96130000D01*
%TO.C,J3*%
X149470000Y-96130000D02*
X150800000Y-96130000D01*
X149470000Y-97460000D02*
X149470000Y-96130000D01*
X152070000Y-96130000D02*
X164830000Y-96130000D01*
X152070000Y-98790000D02*
X152070000Y-96130000D01*
X152070000Y-98790000D02*
X164830000Y-98790000D01*
X164830000Y-98790000D02*
X164830000Y-96130000D01*
%TO.C,J2*%
X117466000Y-47870000D02*
X118796000Y-47870000D01*
X117466000Y-49200000D02*
X117466000Y-47870000D01*
X120066000Y-47870000D02*
X142986000Y-47870000D01*
X120066000Y-50530000D02*
X120066000Y-47870000D01*
X120066000Y-50530000D02*
X142986000Y-50530000D01*
X142986000Y-50530000D02*
X142986000Y-47870000D01*
%TO.C,J4*%
X144390000Y-47870000D02*
X145720000Y-47870000D01*
X144390000Y-49200000D02*
X144390000Y-47870000D01*
X146990000Y-47870000D02*
X164830000Y-47870000D01*
X146990000Y-50530000D02*
X146990000Y-47870000D01*
X146990000Y-50530000D02*
X164830000Y-50530000D01*
X164830000Y-50530000D02*
X164830000Y-47870000D01*
%TO.C,R9*%
X135430000Y-64263272D02*
G75*
G02*
X137270000Y-64263272I920000J1453272D01*
G01*
%TO.C,R13*%
X127230000Y-64273272D02*
G75*
G02*
X129070000Y-64273272I920000J1453272D01*
G01*
%TO.C,R14*%
X129182000Y-57166728D02*
G75*
G02*
X127342000Y-57166728I-920000J-1453272D01*
G01*
%TO.C,R18*%
X120970000Y-57216728D02*
G75*
G02*
X119130000Y-57216728I-920000J-1453272D01*
G01*
%TO.C,R4*%
X149240000Y-57236728D02*
G75*
G02*
X147400000Y-57236728I-920000J-1453272D01*
G01*
%TO.C,R15*%
X123150000Y-64263272D02*
G75*
G02*
X124990000Y-64263272I920000J1453272D01*
G01*
%TO.C,R19*%
X115160000Y-64293272D02*
G75*
G02*
X117000000Y-64293272I920000J1453272D01*
G01*
%TO.C,C2*%
X128520000Y-72730000D02*
X131260000Y-72730000D01*
X128520000Y-77970000D02*
X128520000Y-72730000D01*
X131260000Y-72730000D02*
X131260000Y-77970000D01*
X131260000Y-77970000D02*
X128520000Y-77970000D01*
%TO.C,R7*%
X139430000Y-64273272D02*
G75*
G02*
X141270000Y-64273272I920000J1453272D01*
G01*
%TO.C,R21*%
X111170000Y-64293272D02*
G75*
G02*
X113010000Y-64293272I920000J1453272D01*
G01*
%TO.C,SW2*%
X156960000Y-63050000D02*
X156960000Y-64550000D01*
X158210000Y-67050000D02*
X162710000Y-67050000D01*
X162710000Y-60550000D02*
X158210000Y-60550000D01*
X163960000Y-64550000D02*
X163960000Y-63050000D01*
%TO.C,R20*%
X117010000Y-57216728D02*
G75*
G02*
X115170000Y-57216728I-920000J-1453272D01*
G01*
%TO.C,R6*%
X145230000Y-57226728D02*
G75*
G02*
X143390000Y-57226728I-920000J-1453272D01*
G01*
%TO.C,J7*%
X151930000Y-70540000D02*
X153310000Y-70540000D01*
X151930000Y-71920000D02*
X151930000Y-70540000D01*
X151930000Y-73190000D02*
X151930000Y-78380000D01*
X151930000Y-73190000D02*
X154690000Y-73190000D01*
X151930000Y-78380000D02*
X154690000Y-78380000D01*
X154690000Y-73190000D02*
X154690000Y-78380000D01*
%TO.C,R10*%
X137190000Y-57196728D02*
G75*
G02*
X135350000Y-57196728I-920000J-1453272D01*
G01*
%TO.C,J5*%
X88350000Y-66400000D02*
X88350000Y-69060000D01*
X106190000Y-66400000D02*
X88350000Y-66400000D01*
X106190000Y-66400000D02*
X106190000Y-69060000D01*
X106190000Y-69060000D02*
X88350000Y-69060000D01*
X108790000Y-67730000D02*
X108790000Y-69060000D01*
X108790000Y-69060000D02*
X107460000Y-69060000D01*
%TO.C,R26*%
X120713272Y-91710000D02*
G75*
G02*
X120713272Y-89870000I-1453272J920000D01*
G01*
%TO.C,J11*%
X156390000Y-68330000D02*
X167390000Y-68330000D01*
X156390000Y-80330000D02*
X156390000Y-68330000D01*
X167390000Y-68330000D02*
X167390000Y-69830000D01*
X167390000Y-69830000D02*
X168590000Y-69830000D01*
X167390000Y-72330000D02*
X167390000Y-76330000D01*
X167390000Y-76330000D02*
X170390000Y-76330000D01*
X167390000Y-78830000D02*
X167390000Y-80330000D01*
X167390000Y-80330000D02*
X156390000Y-80330000D01*
X168590000Y-69830000D02*
X168590000Y-71330000D01*
X168590000Y-71330000D02*
X170390000Y-71330000D01*
X168590000Y-77330000D02*
X168590000Y-78830000D01*
X168590000Y-78830000D02*
X167390000Y-78830000D01*
X170390000Y-71330000D02*
X170390000Y-77330000D01*
X170390000Y-72330000D02*
X167390000Y-72330000D01*
X170390000Y-77330000D02*
X168590000Y-77330000D01*
%TO.C,R5*%
X143450000Y-64303272D02*
G75*
G02*
X145290000Y-64303272I920000J1453272D01*
G01*
%TO.C,C1*%
X145170000Y-75597620D02*
X142989000Y-75597620D01*
X145170000Y-75637620D02*
X142992000Y-75637620D01*
X145170000Y-75677620D02*
X142996000Y-75677620D01*
X145170000Y-75717620D02*
X143000000Y-75717620D01*
X145170000Y-75757620D02*
X143005000Y-75757620D01*
X145170000Y-75797620D02*
X143010000Y-75797620D01*
X145170000Y-75837620D02*
X143015000Y-75837620D01*
X145170000Y-75877620D02*
X143022000Y-75877620D01*
X145170000Y-75917620D02*
X143028000Y-75917620D01*
X145170000Y-75957620D02*
X143036000Y-75957620D01*
X145170000Y-75997620D02*
X143043000Y-75997620D01*
X145170000Y-76037620D02*
X143051000Y-76037620D01*
X145170000Y-76077620D02*
X143060000Y-76077620D01*
X145170000Y-76117620D02*
X143070000Y-76117620D01*
X145170000Y-76157620D02*
X143079000Y-76157620D01*
X145170000Y-76197620D02*
X143090000Y-76197620D01*
X145170000Y-76237620D02*
X143101000Y-76237620D01*
X145170000Y-76277620D02*
X143112000Y-76277620D01*
X145170000Y-76317620D02*
X143124000Y-76317620D01*
X145170000Y-76357620D02*
X143137000Y-76357620D01*
X145170000Y-76397620D02*
X143150000Y-76397620D01*
X145170000Y-76437620D02*
X143163000Y-76437620D01*
X145170000Y-76477620D02*
X143178000Y-76477620D01*
X145170000Y-76517620D02*
X143193000Y-76517620D01*
X145170000Y-76557620D02*
X143208000Y-76557620D01*
X145170000Y-76597620D02*
X143224000Y-76597620D01*
X145170000Y-76637620D02*
X143241000Y-76637620D01*
X145170000Y-76677620D02*
X143258000Y-76677620D01*
X145170000Y-76717620D02*
X143276000Y-76717620D01*
X145170000Y-76757620D02*
X143295000Y-76757620D01*
X145170000Y-76797620D02*
X143314000Y-76797620D01*
X145170000Y-76837620D02*
X143334000Y-76837620D01*
X145170000Y-76877620D02*
X143355000Y-76877620D01*
X145170000Y-76917620D02*
X143376000Y-76917620D01*
X145170000Y-76957620D02*
X143398000Y-76957620D01*
X145170000Y-76997620D02*
X143421000Y-76997620D01*
X145170000Y-77037620D02*
X143445000Y-77037620D01*
X145170000Y-77077620D02*
X143469000Y-77077620D01*
X145170000Y-77117620D02*
X143494000Y-77117620D01*
X145170000Y-77157620D02*
X143520000Y-77157620D01*
X145170000Y-77197620D02*
X143547000Y-77197620D01*
X145170000Y-77237620D02*
X143574000Y-77237620D01*
X145170000Y-77277620D02*
X143603000Y-77277620D01*
X145170000Y-77317620D02*
X143633000Y-77317620D01*
X145170000Y-77357620D02*
X143663000Y-77357620D01*
X145170000Y-77397620D02*
X143694000Y-77397620D01*
X145170000Y-77437620D02*
X143727000Y-77437620D01*
X145170000Y-77477620D02*
X143760000Y-77477620D01*
X145170000Y-77517620D02*
X143795000Y-77517620D01*
X145170000Y-77557620D02*
X143831000Y-77557620D01*
X145170000Y-77597620D02*
X143868000Y-77597620D01*
X145170000Y-77637620D02*
X143906000Y-77637620D01*
X146612000Y-78597620D02*
X145808000Y-78597620D01*
X146843000Y-78557620D02*
X145577000Y-78557620D01*
X147011000Y-78517620D02*
X145409000Y-78517620D01*
X147149000Y-78477620D02*
X145271000Y-78477620D01*
X147268000Y-78437620D02*
X145152000Y-78437620D01*
X147375000Y-78397620D02*
X145045000Y-78397620D01*
X147471000Y-78357620D02*
X144949000Y-78357620D01*
X147560000Y-78317620D02*
X144860000Y-78317620D01*
X147642000Y-78277620D02*
X144778000Y-78277620D01*
X147719000Y-78237620D02*
X144701000Y-78237620D01*
X147791000Y-78197620D02*
X144629000Y-78197620D01*
X147859000Y-78157620D02*
X144561000Y-78157620D01*
X147924000Y-78117620D02*
X144496000Y-78117620D01*
X147985000Y-78077620D02*
X144435000Y-78077620D01*
X148044000Y-78037620D02*
X144376000Y-78037620D01*
X148049000Y-71857379D02*
X148049000Y-72487379D01*
X148100000Y-77997620D02*
X144320000Y-77997620D01*
X148153000Y-77957620D02*
X144267000Y-77957620D01*
X148205000Y-77917620D02*
X144215000Y-77917620D01*
X148254000Y-77877620D02*
X144166000Y-77877620D01*
X148301000Y-77837620D02*
X144119000Y-77837620D01*
X148347000Y-77797620D02*
X144073000Y-77797620D01*
X148364000Y-72172379D02*
X147734000Y-72172379D01*
X148391000Y-77757620D02*
X144029000Y-77757620D01*
X148433000Y-77717620D02*
X143987000Y-77717620D01*
X148474000Y-77677620D02*
X143946000Y-77677620D01*
X148514000Y-77637620D02*
X147250000Y-77637620D01*
X148552000Y-77597620D02*
X147250000Y-77597620D01*
X148589000Y-77557620D02*
X147250000Y-77557620D01*
X148625000Y-77517620D02*
X147250000Y-77517620D01*
X148660000Y-77477620D02*
X147250000Y-77477620D01*
X148693000Y-77437620D02*
X147250000Y-77437620D01*
X148726000Y-77397620D02*
X147250000Y-77397620D01*
X148757000Y-77357620D02*
X147250000Y-77357620D01*
X148787000Y-77317620D02*
X147250000Y-77317620D01*
X148817000Y-77277620D02*
X147250000Y-77277620D01*
X148846000Y-77237620D02*
X147250000Y-77237620D01*
X148873000Y-77197620D02*
X147250000Y-77197620D01*
X148900000Y-77157620D02*
X147250000Y-77157620D01*
X148926000Y-77117620D02*
X147250000Y-77117620D01*
X148951000Y-77077620D02*
X147250000Y-77077620D01*
X148975000Y-77037620D02*
X147250000Y-77037620D01*
X148999000Y-76997620D02*
X147250000Y-76997620D01*
X149022000Y-76957620D02*
X147250000Y-76957620D01*
X149044000Y-76917620D02*
X147250000Y-76917620D01*
X149065000Y-76877620D02*
X147250000Y-76877620D01*
X149086000Y-76837620D02*
X147250000Y-76837620D01*
X149106000Y-76797620D02*
X147250000Y-76797620D01*
X149125000Y-76757620D02*
X147250000Y-76757620D01*
X149144000Y-76717620D02*
X147250000Y-76717620D01*
X149162000Y-76677620D02*
X147250000Y-76677620D01*
X149179000Y-76637620D02*
X147250000Y-76637620D01*
X149196000Y-76597620D02*
X147250000Y-76597620D01*
X149212000Y-76557620D02*
X147250000Y-76557620D01*
X149227000Y-76517620D02*
X147250000Y-76517620D01*
X149242000Y-76477620D02*
X147250000Y-76477620D01*
X149257000Y-76437620D02*
X147250000Y-76437620D01*
X149270000Y-76397620D02*
X147250000Y-76397620D01*
X149283000Y-76357620D02*
X147250000Y-76357620D01*
X149296000Y-76317620D02*
X147250000Y-76317620D01*
X149308000Y-76277620D02*
X147250000Y-76277620D01*
X149319000Y-76237620D02*
X147250000Y-76237620D01*
X149330000Y-76197620D02*
X147250000Y-76197620D01*
X149341000Y-76157620D02*
X147250000Y-76157620D01*
X149350000Y-76117620D02*
X147250000Y-76117620D01*
X149360000Y-76077620D02*
X147250000Y-76077620D01*
X149369000Y-76037620D02*
X147250000Y-76037620D01*
X149377000Y-75997620D02*
X147250000Y-75997620D01*
X149384000Y-75957620D02*
X147250000Y-75957620D01*
X149392000Y-75917620D02*
X147250000Y-75917620D01*
X149398000Y-75877620D02*
X147250000Y-75877620D01*
X149405000Y-75837620D02*
X147250000Y-75837620D01*
X149410000Y-75797620D02*
X147250000Y-75797620D01*
X149415000Y-75757620D02*
X147250000Y-75757620D01*
X149420000Y-75717620D02*
X147250000Y-75717620D01*
X149424000Y-75677620D02*
X147250000Y-75677620D01*
X149428000Y-75637620D02*
X147250000Y-75637620D01*
X149431000Y-75597620D02*
X147250000Y-75597620D01*
X149434000Y-75557620D02*
X142986000Y-75557620D01*
X149436000Y-75517620D02*
X142984000Y-75517620D01*
X149438000Y-75477620D02*
X142982000Y-75477620D01*
X149439000Y-75437620D02*
X142981000Y-75437620D01*
X149440000Y-75357620D02*
X142980000Y-75357620D01*
X149440000Y-75397620D02*
X142980000Y-75397620D01*
X149480000Y-75357620D02*
G75*
G02*
X142940000Y-75357620I-3270000J0D01*
G01*
X142940000Y-75357620D02*
G75*
G02*
X149480000Y-75357620I3270000J0D01*
G01*
%TO.C,R24*%
X125440000Y-75693272D02*
G75*
G02*
X127280000Y-75693272I920000J1453272D01*
G01*
%TO.C,R12*%
X133100000Y-57166728D02*
G75*
G02*
X131260000Y-57166728I-920000J-1453272D01*
G01*
%TO.C,SW1*%
X156960000Y-54870000D02*
X156960000Y-56370000D01*
X158210000Y-58870000D02*
X162710000Y-58870000D01*
X162710000Y-52370000D02*
X158210000Y-52370000D01*
X163960000Y-56370000D02*
X163960000Y-54870000D01*
%TO.C,R11*%
X131260000Y-64223272D02*
G75*
G02*
X133100000Y-64223272I920000J1453272D01*
G01*
%TO.C,R22*%
X113050000Y-57196728D02*
G75*
G02*
X111210000Y-57196728I-920000J-1453272D01*
G01*
%TO.C,J12*%
X152240000Y-88510000D02*
X152240000Y-83320000D01*
X155000000Y-83320000D02*
X152240000Y-83320000D01*
X155000000Y-88510000D02*
X152240000Y-88510000D01*
X155000000Y-88510000D02*
X155000000Y-83320000D01*
X155000000Y-89780000D02*
X155000000Y-91160000D01*
X155000000Y-91160000D02*
X153620000Y-91160000D01*
%TO.C,R1*%
X152300000Y-56123272D02*
G75*
G02*
X154140000Y-56123272I920000J1453272D01*
G01*
%TO.C,R27*%
X136726728Y-69260000D02*
G75*
G02*
X136726728Y-71100000I1453272J-920000D01*
G01*
%TO.C,R17*%
X119110000Y-64253272D02*
G75*
G02*
X120950000Y-64253272I920000J1453272D01*
G01*
%TO.C,R25*%
X118633272Y-77280000D02*
G75*
G02*
X118633272Y-75440000I-1453272J920000D01*
G01*
%TO.C,R16*%
X124990000Y-57196728D02*
G75*
G02*
X123150000Y-57196728I-920000J-1453272D01*
G01*
%TO.C,RV1*%
X129720000Y-84535000D02*
X139470000Y-84535000D01*
X129720000Y-94285000D02*
X129720000Y-84535000D01*
X139470000Y-84535000D02*
X139470000Y-94285000D01*
X139470000Y-94285000D02*
X129720000Y-94285000D01*
%TO.C,R2*%
X152340000Y-64263272D02*
G75*
G02*
X154180000Y-64263272I920000J1453272D01*
G01*
%TO.C,U1*%
X134860000Y-72840000D02*
X134860000Y-83120000D01*
X134860000Y-83120000D02*
X139360000Y-83120000D01*
X136110000Y-72840000D02*
X134860000Y-72840000D01*
X139360000Y-72840000D02*
X138110000Y-72840000D01*
X139360000Y-83120000D02*
X139360000Y-72840000D01*
X131860000Y-72780000D02*
X142360000Y-72780000D01*
X142360000Y-83180000D01*
X131860000Y-83180000D01*
X131860000Y-72780000D01*
X138110000Y-72840000D02*
G75*
G02*
X136110000Y-72840000I-1000000J0D01*
G01*
%TO.C,J9*%
X125660000Y-84900000D02*
X125660000Y-79710000D01*
X128420000Y-79710000D02*
X125660000Y-79710000D01*
X128420000Y-84900000D02*
X125660000Y-84900000D01*
X128420000Y-84900000D02*
X128420000Y-79710000D01*
X128420000Y-86170000D02*
X128420000Y-87550000D01*
X128420000Y-87550000D02*
X127040000Y-87550000D01*
%TO.C,R3*%
X149260000Y-63156728D02*
G75*
G02*
X147420000Y-63156728I-920000J-1453272D01*
G01*
%TO.C,J10*%
X156390000Y-81540000D02*
X167390000Y-81540000D01*
X156390000Y-93540000D02*
X156390000Y-81540000D01*
X167390000Y-81540000D02*
X167390000Y-83040000D01*
X167390000Y-83040000D02*
X168590000Y-83040000D01*
X167390000Y-85540000D02*
X167390000Y-89540000D01*
X167390000Y-89540000D02*
X170390000Y-89540000D01*
X167390000Y-92040000D02*
X167390000Y-93540000D01*
X167390000Y-93540000D02*
X156390000Y-93540000D01*
X168590000Y-83040000D02*
X168590000Y-84540000D01*
X168590000Y-84540000D02*
X170390000Y-84540000D01*
X168590000Y-90540000D02*
X168590000Y-92040000D01*
X168590000Y-92040000D02*
X167390000Y-92040000D01*
X170390000Y-84540000D02*
X170390000Y-90540000D01*
X170390000Y-85540000D02*
X167390000Y-85540000D01*
X170390000Y-90540000D02*
X168590000Y-90540000D01*
%TO.C,RV3*%
X114845000Y-78665000D02*
X124595000Y-78665000D01*
X114845000Y-88415000D02*
X114845000Y-78665000D01*
X124595000Y-78665000D02*
X124595000Y-88415000D01*
X124595000Y-88415000D02*
X114845000Y-88415000D01*
%TO.C,RV2*%
X140920000Y-84535000D02*
X150670000Y-84535000D01*
X140920000Y-94285000D02*
X140920000Y-84535000D01*
X150670000Y-84535000D02*
X150670000Y-94285000D01*
X150670000Y-94285000D02*
X140920000Y-94285000D01*
%TO.C,R8*%
X141290000Y-57236728D02*
G75*
G02*
X139450000Y-57236728I-920000J-1453272D01*
G01*
%TO.C,J6*%
X94520000Y-73620000D02*
X94520000Y-72240000D01*
X95900000Y-73620000D02*
X94520000Y-73620000D01*
X97170000Y-70860000D02*
X104900000Y-70860000D01*
X97170000Y-73620000D02*
X97170000Y-70860000D01*
X97170000Y-73620000D02*
X104900000Y-73620000D01*
X104900000Y-73620000D02*
X104900000Y-70860000D01*
%TO.C,R23*%
X119916728Y-69120000D02*
G75*
G02*
X119916728Y-70960000I1453272J-920000D01*
G01*
%TD*%
M02*
