%TF.GenerationSoftware,KiCad,Pcbnew,9.0.7*%
%TF.CreationDate,2026-02-04T01:14:56-07:00*%
%TF.ProjectId,ShieldV1,53686965-6c64-4563-912e-6b696361645f,rev?*%
%TF.SameCoordinates,Original*%
%TF.FileFunction,Plated,1,2,PTH,Mixed*%
%TF.FilePolarity,Positive*%
%FSLAX46Y46*%
G04 Gerber Fmt 4.6, Leading zero omitted, Abs format (unit mm)*
G04 Created by KiCad (PCBNEW 9.0.7) date 2026-02-04 01:14:56*
%MOMM*%
%LPD*%
G01*
G04 APERTURE LIST*
%TA.AperFunction,ViaDrill*%
%ADD10C,0.400000*%
%TD*%
G04 aperture for slot hole*
%TA.AperFunction,ComponentDrill*%
%ADD11C,0.400000*%
%TD*%
%TA.AperFunction,ComponentDrill*%
%ADD12C,0.800000*%
%TD*%
G04 aperture for slot hole*
%TA.AperFunction,ComponentDrill*%
%ADD13C,0.800000*%
%TD*%
%TA.AperFunction,ComponentDrill*%
%ADD14C,1.000000*%
%TD*%
%TA.AperFunction,ComponentDrill*%
%ADD15C,1.100000*%
%TD*%
G04 APERTURE END LIST*
D10*
X138762000Y-94500000D03*
X143262000Y-94500000D03*
X147762000Y-72000000D03*
X148262000Y-69000000D03*
X154762000Y-60000000D03*
X154762000Y-64000000D03*
D11*
%TO.C,J11*%
X158590000Y-69330000D02*
X159590000Y-69330000D01*
X159590000Y-79330000D02*
X158590000Y-79330000D01*
%TO.C,J10*%
X158590000Y-82540000D02*
X159590000Y-82540000D01*
X159590000Y-92540000D02*
X158590000Y-92540000D01*
%TO.C,J11*%
X164090000Y-73830000D02*
X164090000Y-74830000D01*
%TO.C,J10*%
X164090000Y-87040000D02*
X164090000Y-88040000D01*
D12*
%TO.C,R21*%
X112090000Y-62840000D03*
X112090000Y-65380000D03*
%TO.C,R22*%
X112130000Y-56110000D03*
X112130000Y-58650000D03*
%TO.C,R19*%
X116080000Y-62840000D03*
X116080000Y-65380000D03*
%TO.C,R20*%
X116090000Y-56130000D03*
X116090000Y-58670000D03*
%TO.C,RV3*%
X117165000Y-83540000D03*
%TO.C,R25*%
X117180000Y-76360000D03*
%TO.C,R23*%
X118830000Y-70040000D03*
%TO.C,R26*%
X119260000Y-90790000D03*
%TO.C,RV3*%
X119705000Y-81000000D03*
X119705000Y-86080000D03*
%TO.C,R25*%
X119720000Y-76360000D03*
%TO.C,R17*%
X120030000Y-62800000D03*
X120030000Y-65340000D03*
%TO.C,R18*%
X120050000Y-56130000D03*
X120050000Y-58670000D03*
%TO.C,R23*%
X121370000Y-70040000D03*
%TO.C,R26*%
X121800000Y-90790000D03*
%TO.C,R16*%
X124070000Y-56110000D03*
X124070000Y-58650000D03*
%TO.C,R15*%
X124070000Y-62810000D03*
X124070000Y-65350000D03*
%TO.C,R24*%
X126360000Y-74240000D03*
X126360000Y-76780000D03*
%TO.C,R13*%
X128150000Y-62820000D03*
X128150000Y-65360000D03*
%TO.C,R14*%
X128262000Y-56080000D03*
X128262000Y-58620000D03*
%TO.C,C2*%
X129890000Y-74100000D03*
X129890000Y-76600000D03*
%TO.C,R12*%
X132180000Y-56080000D03*
X132180000Y-58620000D03*
%TO.C,R11*%
X132180000Y-62770000D03*
X132180000Y-65310000D03*
%TO.C,U1*%
X133300000Y-74170000D03*
X133300000Y-76710000D03*
X133300000Y-79250000D03*
X133300000Y-81790000D03*
%TO.C,RV1*%
X134610000Y-86870000D03*
X134610000Y-91950000D03*
%TO.C,R27*%
X135640000Y-70180000D03*
%TO.C,R10*%
X136270000Y-56110000D03*
X136270000Y-58650000D03*
%TO.C,R9*%
X136350000Y-62810000D03*
X136350000Y-65350000D03*
%TO.C,RV1*%
X137150000Y-89410000D03*
%TO.C,R27*%
X138180000Y-70180000D03*
%TO.C,R7*%
X140350000Y-62820000D03*
X140350000Y-65360000D03*
%TO.C,R8*%
X140370000Y-56150000D03*
X140370000Y-58690000D03*
%TO.C,U1*%
X140920000Y-74170000D03*
X140920000Y-76710000D03*
X140920000Y-79250000D03*
X140920000Y-81790000D03*
%TO.C,R6*%
X144310000Y-56140000D03*
X144310000Y-58680000D03*
%TO.C,R5*%
X144370000Y-62850000D03*
X144370000Y-65390000D03*
%TO.C,RV2*%
X145810000Y-86870000D03*
X145810000Y-91950000D03*
%TO.C,C1*%
X146210000Y-74107620D03*
X146210000Y-76607620D03*
%TO.C,R4*%
X148320000Y-56150000D03*
X148320000Y-58690000D03*
%TO.C,R3*%
X148340000Y-62070000D03*
X148340000Y-64610000D03*
%TO.C,RV2*%
X148350000Y-89410000D03*
%TO.C,R1*%
X153220000Y-54670000D03*
X153220000Y-57210000D03*
%TO.C,R2*%
X153260000Y-62810000D03*
X153260000Y-65350000D03*
D13*
%TO.C,J11*%
X158740000Y-71830000D02*
X159440000Y-71830000D01*
X159440000Y-76830000D02*
X158740000Y-76830000D01*
%TO.C,J10*%
X158740000Y-85040000D02*
X159440000Y-85040000D01*
X159440000Y-90040000D02*
X158740000Y-90040000D01*
D14*
%TO.C,J5*%
X89680000Y-67730000D03*
X92220000Y-67730000D03*
X94760000Y-67730000D03*
%TO.C,J6*%
X95900000Y-72240000D03*
%TO.C,J5*%
X97300000Y-67730000D03*
%TO.C,J6*%
X98440000Y-72240000D03*
%TO.C,J5*%
X99840000Y-67730000D03*
%TO.C,J6*%
X100980000Y-72240000D03*
%TO.C,J5*%
X102380000Y-67730000D03*
%TO.C,J6*%
X103520000Y-72240000D03*
%TO.C,J5*%
X104920000Y-67730000D03*
X107460000Y-67730000D03*
%TO.C,J2*%
X118796000Y-49200000D03*
X121336000Y-49200000D03*
X123876000Y-49200000D03*
X126416000Y-49200000D03*
%TO.C,J9*%
X127040000Y-81090000D03*
X127040000Y-83630000D03*
X127040000Y-86170000D03*
%TO.C,J1*%
X127940000Y-97460000D03*
%TO.C,J2*%
X128956000Y-49200000D03*
%TO.C,J1*%
X130480000Y-97460000D03*
%TO.C,J2*%
X131496000Y-49200000D03*
%TO.C,J1*%
X133020000Y-97460000D03*
%TO.C,J2*%
X134036000Y-49200000D03*
%TO.C,J1*%
X135560000Y-97460000D03*
%TO.C,J2*%
X136576000Y-49200000D03*
%TO.C,J1*%
X138100000Y-97460000D03*
%TO.C,J2*%
X139116000Y-49200000D03*
%TO.C,J1*%
X140640000Y-97460000D03*
%TO.C,J2*%
X141656000Y-49200000D03*
%TO.C,J1*%
X143180000Y-97460000D03*
%TO.C,J4*%
X145720000Y-49200000D03*
%TO.C,J1*%
X145720000Y-97460000D03*
%TO.C,J4*%
X148260000Y-49200000D03*
X150800000Y-49200000D03*
%TO.C,J3*%
X150800000Y-97460000D03*
%TO.C,J7*%
X153310000Y-71920000D03*
X153310000Y-74460000D03*
X153310000Y-77000000D03*
%TO.C,J4*%
X153340000Y-49200000D03*
%TO.C,J3*%
X153340000Y-97460000D03*
%TO.C,J12*%
X153620000Y-84700000D03*
X153620000Y-87240000D03*
X153620000Y-89780000D03*
%TO.C,J4*%
X155880000Y-49200000D03*
%TO.C,J3*%
X155880000Y-97460000D03*
%TO.C,J4*%
X158420000Y-49200000D03*
%TO.C,J3*%
X158420000Y-97460000D03*
%TO.C,J4*%
X160960000Y-49200000D03*
%TO.C,J3*%
X160960000Y-97460000D03*
%TO.C,J4*%
X163500000Y-49200000D03*
%TO.C,J3*%
X163500000Y-97460000D03*
D15*
%TO.C,SW1*%
X157210000Y-53370000D03*
X157210000Y-57870000D03*
%TO.C,SW2*%
X157210000Y-61550000D03*
X157210000Y-66050000D03*
%TO.C,SW1*%
X163710000Y-53370000D03*
X163710000Y-57870000D03*
%TO.C,SW2*%
X163710000Y-61550000D03*
X163710000Y-66050000D03*
M02*
